<?xml version="1.0" encoding="utf-8"?>
<!-- Generator: Adobe Illustrator 20.1.0, SVG Export Plug-In . SVG Version: 6.00 Build 0)  -->
<svg version="1.1" id="Layer_1" xmlns="http://www.w3.org/2000/svg" xmlns:xlink="http://www.w3.org/1999/xlink" x="0px" y="0px"
	 viewBox="0 0 795.4 755.5" style="enable-background:new 0 0 795.4 755.5;" xml:space="preserve">
<style type="text/css">
	.st0{fill:none;}
	.st1{fill:#45BDA9;}
	.st2{fill:#27A08C;}
	.st3{fill:#6BD6C4;}
	.st4{fill:none;stroke:#27A08C;stroke-width:3;stroke-linecap:round;stroke-linejoin:round;stroke-miterlimit:10;}
	.st5{fill:none;stroke:#000000;stroke-width:3;stroke-linecap:round;stroke-linejoin:round;stroke-miterlimit:10;}
</style>
<g>
	<path class="st0" d="M11.5,713c-0.1-1.4-0.2-2.7-0.3-4.1h-0.5c0.1,1.4,0.2,2.7,0.3,4.1c0.1,0.8,0.7,1.4,1.5,1.4c0,0,0.1,0,0.1,0
		c0.1,0,0.1,0,0.2,0C12.1,714.3,11.6,713.7,11.5,713z"/>
	<path class="st0" d="M13.1,597.5c8,2.3,16.4,3.5,25.1,3.5c0.1,0,0.2,0,0.2,0c-8.7,0-17.3-1.3-25.3-3.7
		C13.1,597.4,13.1,597.5,13.1,597.5z"/>
	<path class="st1" d="M708.2,417.2c9.1-6.5,19.6-11.8,31.3-15.3c0.8-0.2,1.6,0.2,1.9,1c0.2,0.8-0.2,1.6-1,1.9
		c-29.8,9-52,29.4-60.5,53.9c-1.6,5.9-2.5,12.1-2.5,18.4c0,43.2,39.7,78.6,90.4,82.3c-3.2-5.6-5.4-11.7-6.4-18
		c-7.3-6.8-14.1-14.1-20.3-22.2c-13.2-17.2-16.8-37.6-16.9-58.9h12.5c0.1,15.4,2,30.1,9.1,43.3c5.7-7.8,8.4-17.1,8.3-26.8h7.5
		c0.2,12.3-3.8,23.6-11.4,33.3c-0.1,0.1-0.1,0.1-0.2,0.2c0.5,0.7,1,1.4,1.5,2c3.2,4,6.5,7.9,9.9,11.6c3.1-18.5,15.9-34.4,34-44v-84
		c-6.1-1-12.4-1.5-18.8-1.5C750,394.4,726,403,708.2,417.2z"/>
	<path class="st1" d="M782.1,576.5c0.4-3.7,0.8-7.4,1.2-11.1l0.6-5.5c-0.2-0.1-0.4-0.3-0.5-0.4c-2.2,0.1-4.5,0.2-6.8,0.2
		c-3,0-5.9-0.1-8.8-0.3C771.4,565.7,776.2,571.5,782.1,576.5z"/>
	<path class="st1" d="M783.3,559.5c-7.7-5.7-15.1-11.7-22-18.2c1.1,6.4,3.3,12.4,6.4,18c2.9,0.2,5.8,0.3,8.8,0.3
		C778.8,559.7,781.1,559.6,783.3,559.5z"/>
	<path class="st1" d="M761.3,523.8c9.9,10.5,21,19.7,32.8,28.1c0.4-8.9-0.6-17.6-4.6-26.1c-2.5-5.3-5.5-10.5-7-16.3
		c-1.6-5.9-1.8-12.1-2.1-18.1h7.5c0.3,7.1,0.7,14.2,3.4,20.9c1.1,2.9,2.5,5.6,3.9,8.3v-40.9C777.3,489.5,764.5,505.4,761.3,523.8z"
		/>
	<path class="st1" d="M496.1,666.7C485.5,651,475.7,624.8,453,625v-12.5c15.8-0.1,27.3,9.2,36.4,20.8c2-3.1,3-6.8,3.9-10.4
		c1.6-5.7,2.4-11.5,2.8-17.5h7.5c-0.4,7.2-1.5,14.3-3.5,21.2c-1.4,4.6-3,9.4-6,13.1c2,3,3.9,6,5.6,8.9c6,10.1,12.3,19.7,20.6,28
		c3,3,6.3,5.9,9.9,8.2c-4.2-7.6-6.6-16-6.6-24.9c0-5.3,0.9-10.5,2.4-15.4c-0.3-0.7-0.6-1.4-0.9-2.1l1.8-0.5
		c9.1-23.9,36-41.3,67.8-41.3c5.3,0,10.4,0.5,15.4,1.4c-14.6-36.8-52-61.2-94.6-61.2c-40.8,0-76,22.6-91.9,55.1
		c-4.8,11.1-7.5,23.2-7.5,36c0,52.8,45.9,95.5,102.5,95.5c2.1,0,4.2-0.1,6.3-0.2c1.5-9.6,2.8-19.2,4.2-28.8
		C515.3,692.2,504.2,678.7,496.1,666.7z"/>
	<path class="st1" d="M553.4,721.9c5.4-1.8,10.5-4,15.5-6.6c-4.9-1.6-9.5-3.6-13.7-6C554.6,713.5,554,717.7,553.4,721.9z"/>
	<path class="st1" d="M577.7,557.2c16.5,11.5,29.2,27.7,36,45.7c0.9,0.2,1.9,0.4,2.8,0.7c-13-38.9-51.9-67.1-97.9-67.1
		c-16.4,0-31.9,3.6-45.7,10c13-5.5,27.4-8.5,42.6-8.5C538.1,538,559.6,544.6,577.7,557.2z"/>
	<path class="st1" d="M630,711.3c19.6-10.7,31.4-28.8,31.4-48.3c0-23.7-17.1-44.6-43.1-53.4c1.9,7.2,2.8,14.7,2.8,22.4
		c0,35.7-21,66.9-52.2,83.2c8,2.6,16.8,4.1,25.9,4.1c12.6,0,24.4-2.7,34.6-7.5C629.6,711.6,629.7,711.4,630,711.3z"/>
	<path class="st1" d="M664.4,663c0,7-1.4,13.9-4.2,20.3c3.7-7.2,5.7-15,5.7-23.3c0-26.4-20.8-48.8-49.5-56.5
		c0.3,0.8,0.5,1.7,0.8,2.5C645.6,615,664.4,637.5,664.4,663z"/>
	<path class="st1" d="M614.6,605.3c0.9,0.2,1.8,0.5,2.7,0.8c-0.3-0.8-0.5-1.7-0.8-2.5c-0.9-0.2-1.8-0.5-2.8-0.7
		C614,603.7,614.3,604.5,614.6,605.3z"/>
	<path class="st1" d="M539.4,667.2c0.7-2.4,1.6-4.7,2.6-7c-7.2-3.1-12.7-8.5-15.9-15.6c-1.6,4.9-2.4,10.1-2.4,15.4
		c0,8.9,2.4,17.3,6.6,24.9c2.4,1.5,5,2.8,7.7,3.6C537,681.5,537.5,674.2,539.4,667.2z"/>
	<path class="st1" d="M621.1,632c0-7.7-1-15.2-2.8-22.4c-1.7-0.6-3.4-1.1-5.2-1.6c-0.5-0.1-0.9-0.5-1-1c-0.5-1.6-1.2-3.2-1.8-4.8
		c-5-0.9-10.1-1.4-15.4-1.4c-31.7,0-58.6,17.3-67.8,41.3l5.5-1.5c2.1,5.8,6.8,10.6,12.5,12.9c0.3-0.7,0.6-1.5,0.9-2.3
		c2.3-6.2,2.1-12.7,1.7-19.2h7.5c0.3,5.8,0.5,11.6-0.8,17.3c-1.2,5.2-4,9.9-6,14.9c-3.1,7.6-4,15.7-2.9,23.6
		c24.2-14.2,40.8-38.7,45.5-66.5l12.1,3.3c-1.1,6.8-3,13.5-5.4,19.9c6-2.3,11.1-6.4,14.5-12l6.5,3.8c-5.3,8.7-13.9,14.9-24,16.9
		c-0.3,0.1-0.6,0.1-0.8,0.1c-3.1,6.4-6.9,12.5-11.2,18.1c0.4,0.5,0.4,1.2,0,1.7c-7.2,10.3-16,19.1-26.1,26.3l-0.6,5.7
		c-0.2,1.4-0.4,2.8-0.6,4.3c4.3,2.4,8.9,4.4,13.7,6C600,698.9,621.1,667.7,621.1,632z"/>
	<path class="st2" d="M781.7,580.6c4.1,3.3,8.7,6.2,13.6,8.7v-3.7c-4.8-2.6-9.3-5.6-13.3-9C782,577.9,781.8,579.3,781.7,580.6z"/>
	<path class="st2" d="M779.8,640.1c0.6,23,2.7,45.9,4.6,68.8h10.9v-64.4c-0.7,0.9-2.6,0.5-2.7-1c-1.2-11.1-1.6-22.3-1.2-33.5
		c0.1-1.9,3.1-1.9,3,0c-0.4,10.4-0.1,20.7,1,31v-48.4c-5-2.4-9.7-5.2-14-8.4C779.9,602.7,779.3,621.4,779.8,640.1z"/>
	<path class="st2" d="M792.4,566.6c0-0.2,0.1-0.4,0.1-0.5c-2.9-2-5.8-4.1-8.7-6.2l-0.6,5.5c-0.4,3.7-0.8,7.4-1.2,11.1
		c4,3.4,8.4,6.4,13.3,9v-14.4C793.6,570.6,792,568.9,792.4,566.6z"/>
	<path class="st2" d="M758.5,534.6c-15.5-14.4-26.1-33.2-30.5-53.9c-0.4-1.9,2.5-2.7,2.9-0.8c4.3,20.2,14.6,38.5,29.7,52.6
		c0-2.9,0.3-5.8,0.8-8.6c-3.5-3.7-6.8-7.5-9.9-11.6c-0.5-0.7-1-1.4-1.5-2c-3,3.4-8-1.8-5.1-5.5c0.3-0.4,0.6-0.8,0.9-1.2
		c-7.1-13.2-9-27.9-9.1-43.3h-12.5c0.1,21.3,3.7,41.7,16.9,58.9c6.2,8.1,13,15.4,20.3,22.2c-0.4-2.3-0.6-4.5-0.7-6.9
		C760.1,535,759.2,535.3,758.5,534.6z"/>
	<path class="st2" d="M783.3,559.5c0.2,0.1,0.4,0.3,0.5,0.4l0-0.4C783.7,559.5,783.5,559.5,783.3,559.5z"/>
	<path class="st2" d="M783.9,559.4l1.1-10.1l8.8,7.6c0.2-1.7,0.3-3.3,0.4-5c-11.8-8.4-22.9-17.6-32.8-28.1c-0.5,2.8-0.7,5.7-0.8,8.6
		l0,0c0.7,0.6,0.5,1.5,0,2c0.1,2.3,0.3,4.6,0.7,6.9c7,6.5,14.3,12.5,22,18.2C783.5,559.5,783.7,559.5,783.9,559.4z"/>
	<path class="st2" d="M783.9,559.9c2.8,2.1,5.7,4.1,8.7,6.2c0.4-2.5,0.8-5.1,1.1-7.6c-3.2,0.5-6.4,0.8-9.7,1L783.9,559.9z"/>
	<path class="st2" d="M783.9,559.4c3.3-0.2,6.5-0.5,9.7-1c0.1-0.5,0.1-1,0.2-1.5l-8.8-7.6L783.9,559.4z"/>
	<path class="st2" d="M750.1,510.1c7.5-9.7,11.6-21,11.4-33.3H754c0.2,9.7-2.6,19-8.3,26.8c1.2,2.3,2.6,4.5,4.2,6.7
		C750,510.2,750,510.1,750.1,510.1z"/>
	<path class="st2" d="M749.9,510.2c-1.6-2.2-3-4.4-4.2-6.7c-0.3,0.4-0.6,0.8-0.9,1.2C741.9,508.4,746.9,513.6,749.9,510.2z"/>
	<path class="st2" d="M788,491.4h-7.5c0.3,6.1,0.5,12.2,2.1,18.1c1.5,5.8,4.5,11,7,16.3c4,8.4,5,17.2,4.6,26.1
		c0.4,0.3,0.8,0.6,1.2,0.8v-24.6c-1.1-1.3-1.4-3.2,0-4.8v-2.7c-1.4-2.8-2.8-5.5-3.9-8.3C788.7,505.7,788.3,498.6,788,491.4z"/>
	<path class="st2" d="M792.4,566.6c-0.4,2.3,1.2,4,2.9,4.5V568c-0.9-0.6-1.9-1.3-2.8-1.9C792.5,566.2,792.5,566.4,792.4,566.6z"/>
	<path class="st2" d="M793.8,557l1,0.9c0.2-0.4,0.3-0.8,0.6-1.2v-3.8c-0.4-0.3-0.8-0.6-1.2-0.8C794.1,553.6,794,555.3,793.8,557z"/>
	<path class="st2" d="M794.6,558.3c-0.3,0.1-0.7,0.1-1,0.1c-0.3,2.5-0.7,5.1-1.1,7.6c0.9,0.7,1.9,1.3,2.8,1.9v-4.1
		C794.3,562.4,794.1,560.3,794.6,558.3z"/>
	<path class="st2" d="M794.6,558.3c0-0.2,0.1-0.3,0.2-0.5l-1-0.9c-0.1,0.5-0.1,1-0.2,1.5C794,558.4,794.3,558.4,794.6,558.3z"/>
	<path class="st2" d="M795.4,558.3v-0.1c0,0-0.1,0-0.1,0L795.4,558.3z"/>
	<path class="st2" d="M795.2,558.2c0,0,0.1,0,0.1,0v-1.6c-0.2,0.4-0.4,0.8-0.6,1.2L795.2,558.2z"/>
	<path class="st2" d="M794.6,558.3c-0.6,2-0.3,4.1,0.7,5.6v-5.6l-0.1-0.1C795,558.2,794.8,558.3,794.6,558.3z"/>
	<path class="st2" d="M795.2,558.2l-0.5-0.4c-0.1,0.2-0.1,0.3-0.2,0.5C794.8,558.3,795,558.2,795.2,558.2z"/>
	<path class="st2" d="M795.4,528.2v-4.8C794,525,794.3,526.9,795.4,528.2z"/>
	<path class="st2" d="M551.5,722.5c0,0.2-0.1,0.4-0.1,0.6c-1.5,10.8-3,21.6-4.9,32.4h1.6c2.1-11.2,3.7-22.5,5.3-33.6
		C552.8,722.1,552.1,722.3,551.5,722.5z"/>
	<path class="st2" d="M537.3,726c-1.4,9.9-2.9,19.7-4.5,29.5h10.7c1.9-10.6,3.4-21.4,4.8-32C544.7,724.5,541,725.3,537.3,726z"/>
	<path class="st2" d="M528.4,727.1c-1.2,0.1-2.3,0.2-3.5,0.3c-1.5,9.4-3.1,18.8-5,28.1h4.4C525.9,746.1,527.3,736.6,528.4,727.1z"/>
	<path class="st2" d="M531.5,726.8c-1.2,9.6-2.6,19.2-4.2,28.7h2.5c1.5-9.7,3-19.4,4.4-29.1C533.3,726.6,532.4,726.7,531.5,726.8z"
		/>
	<path class="st2" d="M529.8,715c0.2-1.9,3.2-1.9,3,0c-0.4,3.9-0.9,7.9-1.4,11.8c0.9-0.1,1.8-0.2,2.7-0.4c0.3-2.2,0.6-4.3,0.9-6.5
		c0.3-1.9,3.2-1.1,2.9,0.8c-0.2,1.7-0.5,3.5-0.7,5.2c3.8-0.6,7.4-1.5,11-2.5c0-0.2,0.1-0.5,0.1-0.7c0.6-4.5,1.2-8.9,1.9-13.3l0.3-3
		c-1.4-0.9-2.8-1.9-4.1-2.9c-1.7,0.7-4,0.4-5.1-1.5c-4.3-0.5-8.4-1.7-12.3-3.5c-1.4,9.6-2.7,19.2-4.2,28.8c1.2-0.1,2.3-0.2,3.5-0.3
		C528.9,723.1,529.4,719,529.8,715z"/>
	<path class="st2" d="M553.4,708.3l-0.2,1.6c-0.6,4.2-1.2,8.4-1.8,12.7c0.6-0.2,1.3-0.4,1.9-0.6c0.6-4.2,1.2-8.4,1.7-12.6
		C554.6,709,554,708.6,553.4,708.3z"/>
	<path class="st2" d="M553.4,708.3c0.6,0.3,1.1,0.7,1.7,1c0.2-1.4,0.4-2.8,0.6-4.3l0.6-5.7c-0.7,0.5-1.4,1-2.1,1.5L553.4,708.3z"/>
	<path class="st2" d="M552,698.8c1.5-1,2.9-2,4.4-3.1c-1.6,1-3.2,2-4.8,3c-0.6,1.4-1.7,2.6-3.2,3.2c-0.3,0.8-1,1.4-1.8,1.8
		c1.3,1,2.7,2,4.1,2.9l0.8-6.7C551.4,699.4,551.6,699,552,698.8z"/>
	<path class="st2" d="M546.1,689.8c1.5,0,2.8,0.4,3.7,1.1l7.9-2.7l-0.8,7.2c8.9-6.7,16.7-14.7,23.2-24c0.5-0.7,1.4-0.8,2.1-0.4
		c0.1,0.1,0.3,0.2,0.4,0.4c4.3-5.6,8.1-11.7,11.2-18.1c-4.1,0-5.6-6.4-1.1-7.3c1.7-0.3,3.4-0.8,5-1.4c2.5-6.4,4.3-13,5.4-19.9
		l-12.1-3.3c-4.6,27.7-21.2,52.2-45.5,66.5c0.1,0.7,0.2,1.3,0.3,2C545.8,689.8,546,689.8,546.1,689.8z"/>
	<path class="st2" d="M557.7,688.1l-7.9,2.7c2.3,1.7,2.9,5.1,1.8,7.8c1.6-1,3.2-2,4.8-3c0.2-0.1,0.3-0.2,0.5-0.4L557.7,688.1z"/>
	<path class="st2" d="M594.5,653.2c10.1-2,18.6-8.2,24-16.9l-6.5-3.8c-3.5,5.7-8.5,9.8-14.5,12c-1.1,3-2.4,5.9-3.8,8.7
		C594,653.2,594.3,653.2,594.5,653.2z"/>
	<path class="st2" d="M593.7,653.2c1.4-2.9,2.7-5.8,3.8-8.7c-1.6,0.6-3.2,1.1-5,1.4C588.1,646.8,589.6,653.2,593.7,653.2z"/>
	<path class="st2" d="M537.4,695.1c-2.8-3.2-5.2-6.6-7.2-10.1c-3.6-2.3-6.9-5.2-9.9-8.2c-8.3-8.4-14.6-18-20.6-28
		c-1.8-3-3.6-6-5.6-8.9c-0.7,0.9-1.5,1.6-2.4,2.4c-3.7,3.1-9-2.2-5.3-5.3c1.2-1,2.2-2.2,3-3.5c-9.1-11.6-20.6-20.9-36.4-20.8V625
		c22.7-0.1,32.5,26,43.1,41.7c8.1,12,19.2,25.5,33,31.9c0-0.3,0.1-0.6,0.1-0.9L537.4,695.1z M514,683.9
		c-11.6-8.2-18.1-20.9-24.7-33.1c-0.9-1.7,1.7-3.2,2.6-1.5c6.4,11.7,12.5,24.1,23.6,32C517.1,682.4,515.6,685,514,683.9z"/>
	<path class="st2" d="M539,694.6c-0.5-2-0.8-4-1.1-6c-2.7-0.9-5.3-2.1-7.7-3.6c2,3.6,4.4,7,7.2,10.1L539,694.6z"/>
	<path class="st2" d="M539.8,697.7c-0.8-0.9-1.6-1.7-2.4-2.6l-8.2,2.6c0,0.3-0.1,0.6-0.1,0.9c3.9,1.8,8,3,12.3,3.5
		c-0.1-0.2-0.2-0.4-0.3-0.6C540.6,700.2,540.2,699,539.8,697.7z"/>
	<path class="st2" d="M537.4,695.1c0.8,0.9,1.6,1.8,2.4,2.6c-0.3-1-0.6-2.1-0.8-3.1L537.4,695.1z"/>
	<path class="st2" d="M548.5,700.1c0.1,0.7,0.1,1.3-0.1,1.8c1.5-0.6,2.6-1.8,3.2-3.2c-0.4,0.2-0.8,0.5-1.1,0.7
		C549.8,699.7,549.1,699.9,548.5,700.1z"/>
	<path class="st2" d="M549.8,690.9c-0.9-0.7-2.2-1.1-3.7-1.1c-0.1,0-0.3,0-0.4,0c0.1,0.8,0.3,1.6,0.5,2.4L549.8,690.9z"/>
	<path class="st2" d="M549.8,690.9l-3.6,1.3c0.5,2.5,1.3,4.9,2.2,7.3c0.1,0.2,0.1,0.4,0.2,0.6c0.6-0.1,1.3-0.4,1.9-0.7
		c0.4-0.2,0.8-0.4,1.1-0.7C552.7,696,552.1,692.6,549.8,690.9z"/>
	<path class="st2" d="M500.1,626.7c2-6.9,3.1-14,3.5-21.2h-7.5c-0.3,5.9-1.2,11.7-2.8,17.5c-1,3.5-2,7.3-3.9,10.4
		c1.6,2.1,3.2,4.2,4.6,6.4C497.1,636,498.7,631.3,500.1,626.7z"/>
	<path class="st2" d="M486.4,636.8c-3.7,3.1,1.6,8.4,5.3,5.3c0.9-0.7,1.7-1.5,2.4-2.4c-1.5-2.2-3-4.3-4.6-6.4
		C488.6,634.6,487.6,635.8,486.4,636.8z"/>
	<path class="st2" d="M543,660.7c-0.4-0.1-0.7-0.3-1-0.4c-1,2.3-1.9,4.5-2.6,7c-1.9,7-2.4,14.2-1.5,21.3c1.5,0.5,3.1,0.8,4.8,1
		c0.4-0.4,0.9-0.8,1.4-1.1c0.4-0.2,0.9-0.5,1.3-0.8c-1-7.9-0.1-16,2.9-23.6c2-5,4.8-9.6,6-14.9c1.3-5.7,1.1-11.5,0.8-17.3h-7.5
		c0.3,6.5,0.6,13-1.7,19.2c-0.3,0.8-0.6,1.5-0.9,2.3c0,0,0,0,0,0C549.5,655.2,547.5,662.5,543,660.7z"/>
	<path class="st2" d="M541.4,702.1c1.1,1.9,3.4,2.3,5.1,1.5c-0.6-0.4-1.1-0.9-1.7-1.3C543.7,702.3,542.5,702.2,541.4,702.1z"/>
	<path class="st2" d="M548.4,701.8c-0.7,0.3-1.4,0.4-2.3,0.4c-0.4,0-0.8,0-1.2,0c0.6,0.5,1.1,0.9,1.7,1.3
		C547.4,703.3,548,702.6,548.4,701.8z"/>
	<path class="st2" d="M542.7,689.6c1,0.1,2,0.2,3,0.2c-0.1-0.7-0.2-1.3-0.3-2c-0.4,0.3-0.9,0.5-1.3,0.8
		C543.6,688.8,543.1,689.2,542.7,689.6z"/>
	<path class="st2" d="M542.7,689.6c-1.6-0.2-3.2-0.5-4.8-1c0.3,2,0.6,4,1.1,6l2.1-0.7C541,692.4,541.5,690.8,542.7,689.6z"/>
	<path class="st2" d="M539.8,697.7c0.4,1.3,0.8,2.5,1.3,3.7c0.1,0.2,0.2,0.4,0.3,0.6c1.1,0.1,2.3,0.2,3.5,0.2
		C543.1,700.8,541.4,699.3,539.8,697.7z"/>
	<path class="st2" d="M548.5,700.1c-3.9,0.8-7.2-2.6-7.4-6.2l-2.1,0.7c0.2,1.1,0.5,2.1,0.8,3.1c1.6,1.6,3.3,3.1,5,4.6
		c0.4,0,0.8,0,1.2,0c0.8,0,1.6-0.2,2.3-0.4C548.6,701.3,548.6,700.7,548.5,700.1z"/>
	<path class="st2" d="M541.1,693.9l0.8-0.3l4.2-1.5c-0.2-0.8-0.3-1.6-0.5-2.4c-1,0-2-0.1-3-0.2C541.5,690.8,541,692.4,541.1,693.9z"
		/>
	<path class="st2" d="M541.1,693.9c0.2,3.5,3.5,7,7.4,6.2c0-0.2-0.1-0.4-0.2-0.6c-0.9-2.4-1.6-4.8-2.2-7.3l-4.2,1.5L541.1,693.9z"/>
	<path class="st2" d="M525.2,642.6c0.3,0.7,0.6,1.4,0.9,2.1c0.3-0.9,0.6-1.7,0.9-2.6L525.2,642.6z"/>
	<path class="st2" d="M542,660.3c1-2.3,2.1-4.5,3-6.8c-5.8-2.3-10.4-7.1-12.5-12.9l-5.5,1.5c-0.3,0.9-0.6,1.7-0.9,2.6
		C529.3,651.8,534.8,657.2,542,660.3z"/>
	<path class="st2" d="M543,660.7c4.5,1.8,6.4-5.5,2-7.2c0,0,0,0,0,0c-1,2.3-2,4.5-3,6.8C542.3,660.4,542.7,660.6,543,660.7z"/>
	<path class="st2" d="M629.4,711.8c-0.3,0.4-0.3,1-0.1,1.5c0.3,0.5,0.8,0.8,1.3,0.8c0.2,0,0.5-0.1,0.7-0.2
		c13.6-7.4,23.6-18.2,28.8-30.6C654,695.5,643.1,705.5,629.4,711.8z"/>
	<path class="st2" d="M472.9,546.5c-36.1,15.2-61.4,49.2-61.4,88.5c0,9,1.3,17.9,3.9,26.5c0.2,0.8,1.1,1.2,1.9,1
		c0.8-0.2,1.2-1.1,1-1.9c-2.5-8.3-3.8-16.9-3.8-25.6c0-13.9,3.2-27.1,9.1-38.9C433.1,574.5,450.7,556.8,472.9,546.5z"/>
	<path class="st2" d="M515.5,541c42.6,0,80,24.4,94.6,61.2c1.2,0.2,2.3,0.5,3.5,0.7c-6.8-18.1-19.5-34.2-36-45.7
		c-18.1-12.6-39.6-19.2-62.2-19.2c-15.2,0-29.6,3.1-42.6,8.5c-22.2,10.3-39.9,28-49.3,49.6C439.6,563.6,474.8,541,515.5,541z"/>
	<path class="st2" d="M617.2,606.1c0.3,1.1,0.7,2.3,1,3.5c26,8.8,43.1,29.8,43.1,53.4c0,19.5-11.7,37.5-31.4,48.3
		c-0.2,0.1-0.4,0.3-0.5,0.5c13.7-6.4,24.6-16.4,30.8-28.5c2.7-6.4,4.2-13.3,4.2-20.3C664.4,637.5,645.6,615,617.2,606.1z"/>
	<path class="st2" d="M613,608c1.8,0.5,3.5,1,5.2,1.6c-0.3-1.2-0.6-2.3-1-3.5c-0.9-0.3-1.8-0.5-2.7-0.8c-0.3-0.8-0.6-1.6-0.9-2.4
		c-1.2-0.3-2.3-0.5-3.5-0.7c0.6,1.6,1.2,3.2,1.8,4.8C612.1,607.5,612.5,607.9,613,608z"/>
	<path class="st2" d="M766.2,562.6c-0.2-0.4-0.7-0.7-1.2-0.8c-49.9-3.7-89-39.2-89-80.8c0-7.7,1.3-15.2,3.8-22.4
		c4.4-16.1,14.4-30.4,28.3-41.4C686.3,432.9,673,456.1,673,481c0,21.2,9.5,41.5,26.7,57.1c16.9,15.3,39.7,24.7,64.3,26.7
		c4.3,7.4,10.3,14,17.4,19.4c0.1-1.2,0.2-2.4,0.3-3.5C775.4,575.5,770,569.4,766.2,562.6z"/>
	<path class="st2" d="M679.9,458.6c8.5-24.5,30.7-44.9,60.5-53.9c0.8-0.2,1.2-1.1,1-1.9c-0.2-0.8-1.1-1.2-1.9-1
		c-11.7,3.5-22.2,8.8-31.3,15.3C694.3,428.2,684.3,442.5,679.9,458.6z"/>
	<path class="st2" d="M781.4,584.1c4.3,3.2,9,6.1,14,8.4v-3.3c-4.9-2.4-9.5-5.3-13.6-8.7C781.6,581.8,781.5,583,781.4,584.1z"/>
	<path class="st3" d="M515.5,681.3c-11.1-7.9-17.3-20.3-23.6-32c-0.9-1.7-3.5-0.2-2.6,1.5c6.6,12.2,13.1,24.8,24.7,33.1
		C515.6,685,517.1,682.4,515.5,681.3z"/>
	<path class="st3" d="M528.4,727.1c-1.2,9.5-2.6,19-4.1,28.4h3c1.6-9.5,3-19.1,4.2-28.7C530.5,726.9,529.5,727,528.4,727.1z"/>
	<path class="st3" d="M532.8,715c0.2-1.9-2.8-1.9-3,0c-0.4,4-0.9,8.1-1.4,12.1c1-0.1,2-0.2,3-0.3C532,722.9,532.4,718.9,532.8,715z"
		/>
	<path class="st3" d="M534.2,726.4c-1.4,9.7-2.9,19.4-4.4,29.1h3c1.6-9.8,3.1-19.7,4.5-29.5C536.3,726.1,535.2,726.3,534.2,726.4z"
		/>
	<path class="st3" d="M538,720.8c0.3-1.9-2.6-2.7-2.9-0.8c-0.3,2.2-0.6,4.3-0.9,6.5c1-0.1,2.1-0.3,3.1-0.5
		C537.5,724.2,537.8,722.5,538,720.8z"/>
	<path class="st3" d="M730.9,479.9c-0.4-1.9-3.3-1.1-2.9,0.8c4.4,20.7,15,39.5,30.5,53.9c0.7,0.7,1.6,0.4,2.2-0.1
		c0-0.6-0.1-1.2-0.1-1.8c0-0.1,0-0.1,0-0.2C745.5,518.3,735.2,500.1,730.9,479.9z"/>
	<path class="st3" d="M760.6,534.5c0.5-0.5,0.6-1.4,0-2l0,0c0,0.1,0,0.1,0,0.2C760.6,533.3,760.6,533.9,760.6,534.5z"/>
	<path class="st3" d="M0.7,643.5c-0.1-0.8-0.2-1.7-0.3-2.5v3.5C0.7,644.3,0.8,643.9,0.7,643.5z"/>
	<path class="st3" d="M794.4,610c0.1-1.9-2.9-1.9-3,0c-0.4,11.2,0,22.4,1.2,33.5c0.2,1.5,2,1.8,2.7,1V641
		C794.3,630.7,794,620.4,794.4,610z"/>
	<path d="M556.8,695.4l-0.5,4c10.1-7.2,18.9-16,26.1-26.3c0.4-0.5,0.3-1.2,0-1.7C575.3,680.7,566.7,688.8,556.8,695.4z"/>
	<path d="M543.5,755.5h3c1.9-10.7,3.4-21.6,4.9-32.4c0-0.2,0.1-0.4,0.1-0.6c-1,0.3-2.1,0.6-3.2,0.9
		C546.8,734.1,545.3,744.9,543.5,755.5z"/>
	<path d="M553.4,708.3c-1-0.6-1.9-1.2-2.8-1.8l-0.3,3c-0.6,4.4-1.2,8.8-1.9,13.3c0,0.2-0.1,0.5-0.1,0.7c1.1-0.3,2.1-0.6,3.2-0.9
		c0.6-4.2,1.2-8.5,1.8-12.7L553.4,708.3z"/>
	<path d="M554.3,700.9c0.7-0.5,1.4-1,2.1-1.5l0.5-4c-0.1,0.1-0.3,0.2-0.4,0.3c-1.4,1.1-2.9,2.1-4.4,3.1c-0.4,0.2-0.6,0.6-0.7,1.1
		l-0.8,6.7c0.9,0.6,1.9,1.2,2.8,1.8L554.3,700.9z"/>
	<path d="M580,671.3c-6.5,9.3-14.3,17.3-23.2,24l0,0.1c9.8-6.5,18.5-14.7,25.6-24c-0.1-0.1-0.2-0.3-0.4-0.4
		C581.4,670.5,580.5,670.7,580,671.3z"/>
	<path d="M556.4,695.7c0.1-0.1,0.3-0.2,0.4-0.3l0-0.1C556.7,695.4,556.6,695.5,556.4,695.7z"/>
	<path class="st1" d="M80.3,478.6c0-0.5,0-1.1,0-1.6c0-40.1-34.3-73.6-79.9-81.1v83.9c11.8-6.3,25.9-10,41-10
		C55.7,469.8,69,473,80.3,478.6z"/>
	<path class="st1" d="M80.4,477c0,0.5,0,1.1,0,1.6c0.2,0.1,0.3,0.2,0.5,0.2c0-0.6,0-1.2,0-1.9c0-40.3-34.6-73.8-80.4-81.2v0.1
		C46,403.4,80.4,436.9,80.4,477z"/>
	<path class="st1" d="M82,506.6c-3.1,0.3-6,1.1-8.7,2.1c-2.1,4.3-4.7,8.4-7.6,12.2c3.5,0.2,7.1,0,10.6-0.7l2,7.2
		c-6.2,1.3-12.3,1.3-18.3,0.2c-7.3,7.9-16.3,14.6-26.6,19.8c-5.2,6.8-10.7,13.6-17.6,18.3c-1,8.4-1.8,16.9-2.4,25.3
		c8.7,2.9,18.1,4.5,28,4.5c18.3,0,35.1-5.4,48.2-14.3c14.3-11.2,23.3-27,23.3-44.6c0-0.8,0.7-1.5,1.5-1.5s1.5,0.7,1.5,1.5
		c0,3.1-0.3,6.1-0.8,9.1c1.1-4.2,1.7-8.6,1.7-13.1c0-22.6-14.4-42.5-36-53.5c-0.2,5.3-0.9,10.5-2.2,15.5c1.1-0.2,2.3-0.4,3.4-0.5
		V506.6z"/>
	<path class="st1" d="M116.8,532.7c0,4.5-0.6,8.8-1.7,13.1c-0.3,1.9-0.8,3.9-1.3,5.7c2.2-5.9,3.4-12.2,3.4-18.8
		c0-22.8-14.6-42.8-36.5-53.8c0,0.1,0,0.2,0,0.3C102.4,490.2,116.8,510,116.8,532.7z"/>
	<path class="st1" d="M12.6,499.9l7.2,2c-1.9,10.1-6.7,19.2-13.9,26.6c-0.5,0.5-1.1,0.8-1.6,1c2.6,7.6,3,15.6,2.5,23.6
		c7-1.7,12.3-9.1,16.5-14.3c5.8-7.1,11.2-14.4,17.3-21.2c10.3-11.3,22.8-20.2,37.9-22.9c1.3-5,2.1-10.2,2.2-15.5
		c-0.2-0.1-0.3-0.2-0.5-0.3c0-0.1,0-0.2,0-0.2c-11.4-5.6-24.6-8.9-38.8-8.9c-15.1,0-29.2,3.7-41,10v40.9c0.3,0.6,0.6,1.1,0.8,1.7
		C7.2,516.1,11,508.5,12.6,499.9z"/>
	<path class="st1" d="M80.3,478.9c0.2,0.1,0.3,0.2,0.5,0.3c0-0.1,0-0.2,0-0.3c-0.2-0.1-0.3-0.2-0.5-0.2
		C80.3,478.7,80.3,478.8,80.3,478.9z"/>
	<path class="st1" d="M73.3,508.7c-6.1,2.3-11.6,6.1-16.6,10.5c2.9,0.9,6,1.5,9,1.7C68.6,517.1,71.1,513,73.3,508.7z"/>
	<path class="st1" d="M43.4,535c-1.2,1.4-2.5,2.9-3.9,4.7c-1.6,2-3.2,4.1-4.9,6.2c-0.4,0.5-0.8,1.1-1.2,1.6
		c10.2-5.2,19.2-12,26.6-19.8c-3.1-0.6-6.2-1.5-9.2-2.7c-2.5,2.7-4.9,5.5-7.2,8.3C43.9,533.8,43.8,534.5,43.4,535z"/>
	<path class="st1" d="M188.9,750l5.3-5.3c3.1,3.3,5.8,7,7.9,10.8h3.4c-2.8-7.2-4.4-14.9-4.4-22.9c0-13.1,4.2-25.5,11.5-36.1
		c-45.1,1.9-82.8,26.1-96.2,59h77C192.1,753.6,190.6,751.7,188.9,750z"/>
	<path class="st1" d="M288.1,659.8c-32.3,0-60.5,14.8-75.5,36.7c1.9-0.1,3.9-0.1,5.8-0.1c47.4,0,87.6,24.6,101.8,58.6
		c7.5-15,10-32.6,10.1-49.3h12.5c-0.1,16.9-2.5,34.2-9.2,49.8h32.9c2-6.1,3.1-12.4,3.1-18.9c0-39.3-38.3-71.3-85.5-71.3
		c-14.4,0-28.5,3-41.1,8.8c-0.8,0.3-1.6,0-2-0.7c-0.3-0.8,0-1.6,0.7-2c12.9-5.9,27.5-9,42.3-9c48.8,0,88.5,33.3,88.5,74.3
		c0,6.4-1,12.8-2.9,18.9h1c2.8-7.2,4.4-14.9,4.4-22.9C375.1,692.4,336.1,659.8,288.1,659.8z"/>
	<path class="st1" d="M205.5,755.5h36.4c-2.2-5.6-3.6-11.5-3.2-17.8h7.5c-0.3,6.4,1.3,12.2,3.8,17.8h7.7c0.9-3,1.5-6.1,1.7-9.3h7.5
		c-0.3,3.2-0.8,6.3-1.5,9.3h29.5c-4.7-8.3-7.9-17.6-10.4-26.8l7.2-2c2.7,10.1,6.3,20.1,11.9,28.8h16.3c0.1-0.2,0.2-0.3,0.3-0.5
		c-14.2-34.1-54.4-58.6-101.8-58.6c-2,0-3.9,0-5.8,0.1c-7.3,10.6-11.5,23-11.5,36.1C201.1,740.6,202.7,748.3,205.5,755.5z"/>
	<path class="st2" d="M7,592.1c0.4,0.2,0.8,0.3,1.2,0.5c0.1-1.1,0.2-2.2,0.2-3.4c-2.7-1.1-5.4-2.3-7.9-3.7v3.7
		c1.5,0.8,3.1,1.5,4.7,2.1C5.9,591.2,6.7,591.4,7,592.1z"/>
	<path class="st2" d="M10.9,596.7c-1.1,15.9-1.4,31.7-0.9,47.3c0.6,19.7,2.2,39.8,3.8,59.1c0.2,1.9,0.3,3.8,0.5,5.7h2.4
		c-1.8-22.9-3.9-45.8-4.6-68.8c-0.4-14.2-0.2-28.5,0.6-42.7c0.2,0,0.3,0.1,0.5,0.1c0,0,0-0.1,0-0.1
		C12.4,597.2,11.6,596.9,10.9,596.7z"/>
	<path class="st2" d="M12,640.1c0.7,23,2.7,45.9,4.6,68.8H17c-1.8-22.9-3.9-45.8-4.6-68.8c-0.4-14.2-0.2-28.4,0.6-42.5
		c-0.2,0-0.3-0.1-0.5-0.1C11.8,611.6,11.6,625.8,12,640.1z"/>
	<path class="st2" d="M11.2,708.9c-0.1-1.8-0.3-3.7-0.4-5.5c-1.6-19.4-3.2-39.5-3.8-59.3c-0.5-15.9-0.1-32.2,1-48.4
		c-0.4-0.1-0.8-0.3-1.2-0.4c-1.7,13.7-2.1,27.5-1.3,41.3c0.1,1.9-2.9,1.9-3,0c-0.8-14.2-0.3-28.3,1.5-42.4c-1.1-0.5-2.2-1-3.4-1.5
		V641c0.1,0.8,0.2,1.7,0.3,2.5c0,0.4-0.1,0.7-0.3,1v64.4h10.2H11.2z"/>
	<path class="st2" d="M11.3,590.4c-0.1,1.1-0.2,2.2-0.2,3.3c0.7,0.2,1.5,0.5,2.2,0.7c0.1-1.1,0.1-2.1,0.2-3.2
		C12.8,590.9,12,590.6,11.3,590.4z"/>
	<path class="st2" d="M15.9,565.8c-0.7,0.5-1.4,0.9-2.2,1.4l-0.4,2.4c-0.8,6.9-1.5,13.8-2,20.7c0.7,0.3,1.5,0.5,2.2,0.8
		C14.1,582.7,14.9,574.2,15.9,565.8z"/>
	<path class="st2" d="M12.4,564.5c0.6-0.3,1.1-0.7,1.7-1c-0.5,0.2-1.1,0.5-1.7,0.7C12.4,564.2,12.4,564.3,12.4,564.5z"/>
	<path class="st2" d="M10.4,569.2L10.4,569.2c-1.6,1.6-3.9,2.3-6.4,1.1c-0.9,1-2.2,1.2-3.5,0.8v14.4c2.5,1.4,5.2,2.6,7.9,3.7
		C8.9,582.6,9.6,575.9,10.4,569.2z"/>
	<path class="st2" d="M11.6,564.9c0.3-0.1,0.5-0.3,0.8-0.5c0-0.1,0-0.2,0-0.4c-2.2,0.8-4.5,1.5-7,1.8c-0.1,0-0.1,0-0.2,0
		c-0.1,0.9-0.3,1.8-0.5,2.7c-0.1,0.7-0.4,1.3-0.8,1.7c2.5,1.3,4.8,0.5,6.4-1.1l0.5-3.2C10.9,565.6,11.2,565.1,11.6,564.9z"/>
	<path class="st2" d="M82,506.6v-12.5c-1.2,0.1-2.3,0.3-3.4,0.5c-1.3,4.9-3.1,9.6-5.3,14.1C76.1,507.7,79,507,82,506.6z"/>
	<path class="st2" d="M16.5,561.7c4-3.2,7.6-7.1,10.9-11.3c-6.5,2.8-13.5,5.1-20.8,6.7c1,0.7,2,1.3,3,2c0.1,0.1,0.2,0.2,0.3,0.2
		l7.5-3.6L16.5,561.7z"/>
	<path class="st2" d="M27.4,550.4c1.7-2.1,3.3-4.2,4.9-6.3c1.6-2.1,3.3-4.3,4.9-6.3c1.4-1.8,2.7-3.3,4-4.8c0.5-0.6,1.5-0.7,2.1-0.2
		c0.1,0.1,0.3,0.3,0.3,0.4c2.3-2.8,4.7-5.6,7.2-8.3c-0.6-0.2-1.2-0.5-1.7-0.7c-4.4-1.9-0.6-8.4,3.8-6.5c1.3,0.6,2.5,1,3.8,1.4
		c5-4.5,10.5-8.2,16.6-10.5c2.3-4.5,4-9.2,5.3-14.1c-15.1,2.7-27.6,11.6-37.9,22.9c-6.2,6.7-11.6,14.1-17.3,21.2
		c-4.2,5.2-9.5,12.7-16.5,14.3c-0.1,1.3-0.2,2.6-0.3,3.9c0,0,0.1,0.1,0.1,0.1C13.9,555.5,20.9,553.2,27.4,550.4z"/>
	<path class="st2" d="M17.3,555.7l-7.5,3.6c1.7,1.3,2.5,3,2.5,4.8c0.6-0.2,1.1-0.4,1.7-0.7c0.8-0.5,1.6-1.1,2.4-1.7L17.3,555.7z"/>
	<path class="st2" d="M9.6,559.1c-1-0.7-2-1.3-3-2c0,0-0.1,0-0.1,0c-0.1,1.4-0.3,2.7-0.5,4.1l3.9-1.9C9.8,559.2,9.7,559.1,9.6,559.1
		z"/>
	<path class="st2" d="M6.5,557c0,0,0,0.1,0,0.1c0,0,0.1,0,0.1,0C6.6,557,6.5,557,6.5,557z"/>
	<path class="st2" d="M12.4,564.1c0-1.8-0.8-3.5-2.5-4.8L6,561.2c-0.2,1.6-0.5,3.1-0.7,4.7c0.1,0,0.1,0,0.2,0
		C7.9,565.6,10.2,564.9,12.4,564.1z"/>
	<path class="st2" d="M78.3,527.5l-2-7.2c-3.5,0.7-7.1,1-10.6,0.7c-1.8,2.3-3.6,4.6-5.7,6.7C66,528.8,72.1,528.7,78.3,527.5z"/>
	<path class="st2" d="M65.7,521c-3.1-0.2-6.1-0.8-9-1.7c-2,1.8-4,3.8-5.9,5.8c3,1.2,6.1,2.1,9.2,2.7C62,525.5,63.9,523.3,65.7,521z"
		/>
	<path class="st2" d="M56.7,519.3c-1.3-0.4-2.6-0.9-3.8-1.4c-4.4-1.9-8.2,4.5-3.8,6.5c0.6,0.3,1.1,0.5,1.7,0.7
		C52.7,523,54.6,521.1,56.7,519.3z"/>
	<path class="st2" d="M5.4,553.4c0.5-0.1,0.9-0.1,1.4-0.3c0.5-8,0.1-15.9-2.5-23.6c-1.4,0.4-2.9-0.2-3.8-1.4v24.6
		c0.7,0.5,1.4,1,2.2,1.5C3.4,553.8,4.3,553.5,5.4,553.4z"/>
	<path class="st2" d="M1.3,522.5c-0.3-0.6-0.6-1.2-0.8-1.7v2.7c0.1-0.1,0.1-0.1,0.1-0.2C0.9,523,1.1,522.7,1.3,522.5z"/>
	<path class="st2" d="M4,570.3c-0.2-0.1-0.5-0.3-0.7-0.4c-0.9-0.6-1.8-1.2-2.8-1.9v3.1C1.8,571.5,3.1,571.3,4,570.3z"/>
	<path class="st2" d="M2.6,554.3c-0.7-0.5-1.4-1-2.2-1.5v3.8C1,555.7,1.7,554.9,2.6,554.3z"/>
	<path class="st2" d="M4,570.3c0.4-0.4,0.7-1,0.8-1.7c0.2-0.9,0.3-1.8,0.5-2.7c-2.2,0.2-3.8-0.6-4.8-2v4.1c0.9,0.6,1.8,1.3,2.8,1.9
		C3.5,570,3.8,570.2,4,570.3z"/>
	<path class="st2" d="M5.4,553.4c-1.1,0.1-2,0.5-2.8,1c1.3,0.9,2.5,1.8,3.8,2.6c0.1-1.3,0.2-2.6,0.3-3.9
		C6.4,553.2,5.9,553.3,5.4,553.4z"/>
	<path class="st2" d="M6,561.2c0.2-1.4,0.4-2.7,0.5-4.1c-2,0.4-4,0.8-6,1.1v0.1l4.1,3.5L6,561.2z"/>
	<path class="st2" d="M6.5,557c-1.3-0.9-2.6-1.8-3.8-2.6c-0.9,0.6-1.6,1.4-2.2,2.2v1.6c2-0.3,4-0.7,6-1.1C6.5,557,6.5,557,6.5,557z"
		/>
	<path class="st2" d="M5.3,565.9c0.3-1.6,0.5-3.1,0.7-4.7l-1.4,0.7l-4.1-3.5v5.6C1.4,565.2,3,566.1,5.3,565.9z"/>
	<path class="st2" d="M19.8,501.9l-7.2-2c-1.6,8.6-5.4,16.2-11.3,22.6c1.1,2.2,2.1,4.4,2.9,6.7c0,0.1,0.1,0.3,0.1,0.4
		c0.6-0.2,1.1-0.5,1.6-1C13.1,521.1,17.9,512,19.8,501.9z"/>
	<path class="st2" d="M4.3,529.5c0-0.1-0.1-0.3-0.1-0.4c-0.8-2.3-1.8-4.5-2.9-6.7c-0.2,0.3-0.5,0.5-0.7,0.8
		c-0.1,0.1-0.1,0.1-0.1,0.2v4.8C1.4,529.3,2.9,529.9,4.3,529.5z"/>
	<path class="st2" d="M327.9,755.5c5.7-12.8,7.9-27.4,9.6-41.4c0.2-1.9,3.2-1.9,3,0c-1.6,13.9-3.8,28.5-9.3,41.4h2.5
		c6.6-15.5,9.1-32.9,9.2-49.8h-12.5c-0.1,16.6-2.6,34.3-10.1,49.3c0.1,0.2,0.1,0.3,0.2,0.5H327.9z"/>
	<path class="st2" d="M320.4,755.5c-0.1-0.2-0.1-0.3-0.2-0.5c-0.1,0.2-0.2,0.3-0.3,0.5H320.4z"/>
	<path class="st2" d="M194.3,744.7l-5.3,5.3c1.6,1.7,3.1,3.6,4.4,5.5h8.8C200,751.6,197.4,748,194.3,744.7z"/>
	<path class="st2" d="M291.7,726.7l-7.2,2c2.5,9.3,5.7,18.5,10.4,26.8h8.8C298,746.8,294.4,736.8,291.7,726.7z"/>
	<path class="st2" d="M246.1,737.7h-7.5c-0.3,6.3,1,12.2,3.2,17.8h8.1C247.5,749.9,245.8,744.1,246.1,737.7z"/>
	<path class="st2" d="M266.9,746.2h-7.5c-0.3,3.2-0.9,6.3-1.7,9.3h7.7C266.2,752.5,266.7,749.4,266.9,746.2z"/>
	<path class="st2" d="M111.7,556.4c-4.8,9.7-12.4,18.2-22,24.8c-13.3,10.4-31.3,16.8-51,16.8c-8.8,0-17.4-1.3-25.4-3.7
		c-0.1,1-0.1,2-0.2,3.1c8,2.4,16.6,3.6,25.3,3.7C72.7,601,101.7,582.2,111.7,556.4z"/>
	<path class="st2" d="M38.4,601c0.1,0,0.2,0,0.2,0c36.5,0,67.2-21.2,75.2-49.6c-0.6,1.7-1.4,3.3-2.2,5
		C101.7,582.2,72.7,601,38.4,601z"/>
	<path class="st2" d="M114.5,535.2c-0.8,0-1.5,0.7-1.5,1.5c0,17.5-9,33.4-23.3,44.6c9.6-6.6,17.3-15.1,22-24.8
		c0.6-1.6,1.2-3.3,1.7-5c0.7-1.9,1.3-3.8,1.8-5.7c0.5-3,0.8-6,0.8-9.1C116,535.8,115.3,535.2,114.5,535.2z"/>
	<path class="st2" d="M113.4,551.5c-0.5,1.7-1,3.3-1.7,5c0.8-1.6,1.5-3.3,2.2-5c0.5-1.9,1-3.8,1.3-5.7
		C114.7,547.7,114.1,549.6,113.4,551.5z"/>
	<path class="st2" d="M4,592.8c0.1-0.7,0.6-1.2,1.2-1.3c-1.6-0.7-3.2-1.4-4.7-2.1v3.3c1.1,0.5,2.2,1,3.4,1.5
		C3.9,593.6,3.9,593.2,4,592.8z"/>
	<path class="st2" d="M7,592.1c0.1,0.2,0.1,0.4,0,0.6c-0.1,0.8-0.2,1.7-0.3,2.5c0.4,0.2,0.8,0.3,1.2,0.4c0.1-1,0.2-2.1,0.2-3.1
		C7.7,592.4,7.4,592.3,7,592.1z"/>
	<path class="st2" d="M10.9,596.7c0.8,0.2,1.5,0.5,2.3,0.7c0.1-1,0.1-2,0.2-3.1c-0.7-0.2-1.5-0.5-2.2-0.7
		C11,594.6,10.9,595.7,10.9,596.7z"/>
	<path class="st2" d="M372.6,736.6c0-41-39.7-74.3-88.5-74.3c-14.8,0-29.4,3.1-42.3,9c-0.8,0.3-1.1,1.2-0.7,2c0.3,0.8,1.2,1.1,2,0.7
		c12.5-5.7,26.7-8.8,41.1-8.8c47.1,0,85.5,32,85.5,71.3c0,6.4-1,12.8-3.1,18.9h3.2C371.6,749.4,372.6,743,372.6,736.6z"/>
	<path class="st3" d="M5.2,591.4c0.6,0.2,1.2,0.5,1.8,0.7C6.7,591.4,5.9,591.2,5.2,591.4z"/>
	<path class="st3" d="M2.4,636.5c0.1,1.9,3.1,1.9,3,0c-0.8-13.8-0.3-27.6,1.3-41.3c-1-0.4-1.9-0.8-2.9-1.2
		C2.1,608.2,1.6,622.3,2.4,636.5z"/>
	<path class="st3" d="M7,592.1c-0.6-0.2-1.2-0.5-1.8-0.7c-0.6,0.2-1.1,0.6-1.2,1.3c-0.1,0.4-0.1,0.9-0.2,1.3
		c0.9,0.4,1.9,0.8,2.9,1.2c0.1-0.8,0.2-1.7,0.3-2.5C7,592.5,7,592.3,7,592.1z"/>
	<path class="st3" d="M340.4,714.1c0.2-1.9-2.8-1.9-3,0c-1.7,13.9-3.8,28.5-9.6,41.4h3.3C336.6,742.6,338.8,728.1,340.4,714.1z"/>
	<path d="M14,712.8c-0.1-1.3-0.2-2.6-0.3-3.9h-2.5c0.1,1.4,0.2,2.7,0.3,4.1c0.1,0.7,0.6,1.2,1.3,1.3C13.5,714.2,14.1,713.5,14,712.8
		z"/>
	<path d="M14,712.8c0.1,0.8-0.5,1.4-1.2,1.6c0.1,0,0.1,0,0.2,0c0,0,0.1,0,0.1,0c0.8-0.1,1.4-0.8,1.4-1.6c-0.1-1.3-0.2-2.6-0.3-3.9
		h-0.5C13.8,710.2,13.9,711.5,14,712.8z"/>
	<path d="M33.4,547.5c-0.5,0.3-1.1,0.6-1.7,0.8c-4.5,5.5-9.4,10.6-15.4,13.9l-0.5,3.2c0,0.1,0,0.3,0,0.4
		C22.8,561.1,28.2,554.3,33.4,547.5z"/>
	<path d="M31.8,548.4c0.6-0.3,1.1-0.5,1.7-0.8c0.4-0.5,0.8-1.1,1.2-1.6c1.7-2.2,3.2-4.2,4.9-6.2c1.4-1.8,2.7-3.3,3.9-4.7
		c0.4-0.5,0.5-1.2,0.2-1.7c-0.4,0.5-0.8,1-1.2,1.5C38.9,539,35.5,543.8,31.8,548.4z"/>
	<path d="M11.3,590.4c-1-0.4-2-0.7-2.9-1.1c-0.1,1.1-0.2,2.2-0.2,3.4c1,0.4,1.9,0.7,2.9,1C11.2,592.5,11.2,591.4,11.3,590.4z"/>
	<path d="M9.9,644c-0.4-15.6-0.1-31.4,0.9-47.3c-1-0.3-2-0.7-2.9-1c-1.1,16.3-1.4,32.5-1,48.4c0.6,19.8,2.2,39.9,3.8,59.3
		c0.2,1.8,0.3,3.7,0.4,5.5h2.5h0.5c-0.2-1.9-0.3-3.8-0.5-5.7C12.1,683.8,10.5,663.8,9.9,644z"/>
	<path d="M13.4,569.6l0.4-2.4c0.7-0.4,1.5-0.9,2.2-1.4c0-0.1,0-0.3,0-0.4l0.5-3.2c-0.8,0.4-1.5,0.8-2.3,1.2c-0.5,0.4-1.1,0.7-1.7,1
		c-0.1,1.8-0.8,3.5-2,4.7l0,0c-0.8,6.7-1.5,13.4-2,20c1,0.4,1.9,0.8,2.9,1.1C11.9,583.4,12.5,576.5,13.4,569.6z"/>
	<path d="M11.6,564.9c-0.4,0.2-0.7,0.6-0.8,1.1l-0.5,3.2c1.2-1.2,2-3,2-4.7C12.1,564.6,11.9,564.8,11.6,564.9z"/>
	<path d="M31.8,548.4c-1.4,0.7-2.9,1.4-4.4,2c-3.4,4.2-6.9,8.1-10.9,11.3l-0.1,0.6C22.3,558.9,27.3,553.9,31.8,548.4z"/>
	<path d="M42.4,534.7c0.4-0.5,0.8-1,1.2-1.5c-0.1-0.2-0.2-0.3-0.3-0.4c-0.6-0.5-1.6-0.5-2.1,0.2c-1.2,1.4-2.5,3-4,4.8
		c-1.6,2-3.3,4.2-4.9,6.3c-1.6,2.1-3.2,4.2-4.9,6.3c1.5-0.6,2.9-1.3,4.4-2C35.5,543.8,38.9,539,42.4,534.7z"/>
	<path d="M14.1,563.4c0.8-0.4,1.6-0.8,2.3-1.2l0.1-0.6C15.7,562.3,14.9,562.9,14.1,563.4z"/>
	<path d="M11.1,593.6c-1-0.3-2-0.7-2.9-1c-0.1,1-0.2,2.1-0.2,3.1c1,0.4,1.9,0.7,2.9,1C10.9,595.7,11,594.6,11.1,593.6z"/>
</g>
<ellipse class="st1" cx="200.8" cy="340.9" rx="122" ry="102.8"/>
<ellipse class="st1" cx="289.1" cy="367.9" rx="72.3" ry="56.6"/>
<ellipse transform="matrix(0.1764 -0.9843 0.9843 0.1764 163.6761 699.3343)" class="st1" cx="499.8" cy="251.9" rx="89.9" ry="109.6"/>
<ellipse transform="matrix(0.1764 -0.9843 0.9843 0.1764 111.9337 626.0348)" class="st1" cx="430.1" cy="246.1" rx="65.9" ry="71.2"/>
<path class="st2" d="M298,559.5c-6.6-6.2-13-12.5-18.7-19.6c-0.2-0.3-2.7-3.4-1.4-1.8c1.2,1.6-1.2-1.7-1.4-2c-1.8-2.4-3.4-4.9-5-7.4
	c-3.4-5.4-6.5-11-9.3-16.7c-3.5-7.1-5.4-11.8-8.1-19.5c-3.1-8.6-5.9-17.4-7.9-26.3c-4.2-18.2-5.3-36.9-6.8-55.5v-14.5l-27.5,14.5
	l0,0c1.6,20.4,2.9,40.9,7.4,61c4,18.2,10.6,36.1,18.6,52.9c7.2,15,16.5,28.4,27.4,40.5"/>
<path class="st2" d="M122.4,313.5L122.4,313.5c2.4,26.9,12.6,52.5,30.1,73.2c17.6,20.9,44.2,35,71.9,28.7c7.8-1.8,4.5-13.8-3.3-12.1
	c-24,5.4-46.2-8.9-60.8-26.8c-14.5-17.8-23.3-40.3-25.3-63"/>
<path class="st2" d="M285.8,346.5c-1.6,16.1-15.7,25-29.3,30.5c-14.2,5.8-27.9,12.1-34.2,27.1c-1.3,3.1,1.4,6.8,4.4,7.7
	c3.6,1,6.4-1.3,7.7-4.4l0,0c6.2-14.8,26.9-17.6,39.4-24.7c13.6-7.6,23-20.7,24.6-36.2"/>
<path class="st2" d="M151.3,325.3c-1.4,9.2-5.9,17-13.3,22.7c-3.8,2.9,1.5,8.2,5.3,5.3l0,0c8.2-6.4,13.6-15.7,15.2-26"/>
<path class="st2" d="M255.8,326.7L255.8,326.7c1.7,16.3,5,39.6,21.4,47.9c4.3,2.2,8.1-4.3,3.8-6.5c-13.7-6.9-16.3-27.9-17.7-41.4"/>
<path class="st2" d="M219.8,329.8L219.8,329.8c1.7,7-0.8,14.3-2.5,21.1c-1.8,7-3.6,13.9-4.6,21.1c-1.6,11.6-0.5,23.7,5.8,33.9
	c2.5,4.1,9,0.3,6.5-3.8c-6.9-11.2-6.1-24.6-3.4-37.1c2.6-11.9,8.4-24.9,5.5-37.2"/>
<path class="st2" d="M196.2,348.9L196.2,348.9c2.8,9.9,9.5,18.3,18.7,22.9c4.3,2.1,8.1-4.3,3.8-6.5c-7.6-3.8-13-10.2-15.3-18.4"/>
<path class="st2" d="M429.7,208L429.7,208c0.3,12.7,2.7,25.3,7.6,37.1c5.1,12.5,13.1,22.5,20.6,33.6c13.8,20.4,18.3,45.9,12.3,69.8
	c-2,7.8,10.1,11.1,12.1,3.3c6.1-24.2,3-50.3-9.1-72.2c-6.4-11.5-15.6-21.2-21.5-33c-6-12-9.1-25.2-9.4-38.5"/>
<path class="st2" d="M569.6,243.8L569.6,243.8c-8.7,23.1-36,31.5-55.3,43.2c-21.2,12.7-36.5,32.8-40.5,57.4
	c-1.3,7.9,10.7,11.3,12.1,3.3c2-11.8,6.6-23.1,14.1-32.5c7.9-9.9,18.5-16.5,29.6-22.5c20.8-11.2,43.3-22.1,52.2-45.6"/>
<path class="st2" d="M406.5,237.3L406.5,237.3c8.2,12.9,22.6,20.6,38,19.9c4.8-0.2,4.8-7.7,0-7.5c-12.7,0.6-24.7-5.4-31.5-16.2"/>
<path class="st2" d="M539,245L539,245c-0.1,8.9,0,21.5,7.8,27.3c3.9,2.9,7.6-3.6,3.8-6.5c-2.4-1.8-2.8-6.1-3.2-8.8
	c-0.7-4-0.9-8-0.8-12"/>
<path class="st2" d="M568.3,290c-9.5,3-19.4,0.4-26.1-6.9c-3.3-3.5-8.6,1.8-5.3,5.3l0,0c8.5,9.1,21.5,12.6,33.4,8.8"/>
<path class="st2" d="M484,250.7L484,250.7c8,18.1,5.5,39.3-5.9,55.4c-2.8,3.9,3.7,7.7,6.5,3.8c13-18.4,15-42.5,5.9-62.9"/>
<path class="st2" d="M507.6,258.8c-3.1,5.3-8,8.7-14,9.9c-4.7,1-2.7,8.2,2,7.2l0,0c7.8-1.6,14.5-6.5,18.5-13.4"/>
<g>
	<path class="st2" d="M499.8,304.6c-1.6-0.5-2.3,0.7-5.1,5.8c-2.6,4.8-8.1,14.7-11.3,14.7c-4,0-6.9-10.8-8.2-15.4
		c-1.1-4.1-1.5-5.3-3-5.2c-1.5,0.1-1.7,1.7-1.8,2.6c-0.6,5.5-1.2,11-1.7,16.4c-0.6,6.3-1.3,12.9-2.1,19.3c-0.1,1.1-0.3,2.2-0.4,3.3
		l-0.2,1.7c0,0.2-0.1,0.4-0.1,0.6c-0.1,0.7-0.2,1.4-0.3,2.1c-0.5,3.6-1.1,7.2-1.6,10.5c-1.2,7.4-2.7,14.6-4.2,21.3
		c-8.2,34.9-21.4,63.5-40.6,87.4h37.1c11.3-17.7,20.3-36.8,26.8-57.1c8.4-26,12.1-52.4,14.4-72.6c0.6-5.5,1.2-11.1,1.7-16.5
		c0.5-5.3,1.1-10.8,1.7-16.1C501,306.7,501.2,305,499.8,304.6z"/>
</g>
<path class="st4" d="M91,395.4c20.9,31.2,60.7,52.3,106.3,52.3c27.4,0,52.6-7.6,73-20.4c4.9,0.8,10,1.3,15.3,1.3
	c39.9,0,72.3-25.3,72.3-56.6c0-22.8-17.2-42.4-42-51.4"/>
<path class="st4" d="M604.3,275.2c8.8-48.9-32.5-97.2-92.1-107.8c-23.6-4.2-46.6-1.9-66.3,5.4"/>
<path class="st4" d="M368.2,286.1c10.6,14.5,27.1,25.3,46.9,28.9c1.5,0.3,3,0.5,4.5,0.7c9.6,8.5,21.1,15.6,34,20.9"/>
<path class="st4" d="M407.6,186c-25.8,6-46.4,25.5-51,51.5c-3.1,17.5,1.5,34.7,11.6,48.5"/>
<path class="st5" d="M118.7,317.5c2.4,26.9,12.6,52.5,30.1,73.2c15,17.8,36.5,30.7,59.7,30.2c1.4,18.3,2.9,36.8,6.9,54.8
	c4,18.2,10.6,36.1,18.6,52.9c6.8,14.2,15.5,26.9,25.6,38.6"/>
<path class="st5" d="M450.7,475c11.9-18.2,21.2-37.9,27.9-58.8c7.6-23.5,11.5-47.9,14.4-72.3c0.9-7.5,1.6-15,2.4-22.6
	c0.5-0.7,1.1-1.4,1.6-2.1c7.9-9.9,18.5-16.5,29.6-22.5"/>
<g>
	<g>
		<path class="st3" d="M246.5,490.7c3.7,15.2,10.5,29.3,20,41.7c1.2,1.5,3.3-0.6,2.1-2.1c-9.3-12-15.7-25.6-19.3-40.3
			C249,488,246.1,488.8,246.5,490.7L246.5,490.7z"/>
	</g>
</g>
<g>
	<g>
		<path class="st3" d="M243.9,501.8c1.9,0,1.9-3,0-3C241.9,498.8,241.9,501.8,243.9,501.8L243.9,501.8z"/>
	</g>
</g>
<g>
	<g>
		<path class="st3" d="M242.8,501.4c3.3,10.2,8.1,19.5,14.6,28c1.2,1.5,3.8,0,2.6-1.5c-6.3-8.3-11.1-17.4-14.3-27.3
			C245.1,498.8,242.2,499.6,242.8,501.4L242.8,501.4z"/>
	</g>
</g>
<g>
	<g>
		<path class="st3" d="M254,388.4c8-3.4,16.6-5.7,23.9-10.6c6.7-4.6,10.4-10.9,13.5-18.2c0.7-1.8-1.8-3.3-2.6-1.5
			c-3.1,7.4-6.8,13.6-13.7,18c-6.8,4.2-14.5,6.4-21.8,9.4C251.4,386.2,252.2,389.1,254,388.4L254,388.4z"/>
	</g>
</g>
<g>
	<g>
		<path class="st3" d="M467.2,366.9c-1.9,17.5-6.5,34.5-13.6,50.5c-0.8,1.8,1.8,3.3,2.6,1.5c7.3-16.6,12-34,14-52.1
			C470.4,365,467.4,365,467.2,366.9L467.2,366.9z"/>
	</g>
</g>
<g>
	<g>
		<path class="st3" d="M470.7,379.2c-1.8,11.4-4.8,22.5-8.9,33.3c-0.7,1.8,2.2,2.6,2.9,0.8c4.2-10.8,7.2-21.9,8.9-33.3
			C473.9,378.1,471,377.3,470.7,379.2L470.7,379.2z"/>
	</g>
</g>
<g>
	<g>
		<path class="st3" d="M432.5,216.8c1.1,15.2,7.4,30.2,15.4,43.1c4.6,7.5,10.4,14.2,15.1,21.7c5.1,8.1,8.3,17.1,11.5,26.2
			c0.6,1.8,3.5,1,2.9-0.8c-2.9-8.1-5.7-16.3-10-23.9c-4.1-7.2-9.3-13.5-14-20.3c-9.2-13.4-16.7-29.6-17.9-46
			C435.4,214.8,432.4,214.8,432.5,216.8L432.5,216.8z"/>
	</g>
</g>
<g>
	<path class="st0" d="M546.5,0h-0.1c-0.1,0.8-0.2,1.5-0.3,2.3C546.2,1.5,546.4,0.8,546.5,0z"/>
	<path class="st0" d="M543.1,1.8l-3.7,20.4C541,15.6,542.2,8.7,543.1,1.8z"/>
	<path class="st3" d="M778.8,241.3c-3.7,2.6-7.6,5-11.6,7.1c0,0.3,0,0.6,0,0.9C771.2,246.8,775.1,244.2,778.8,241.3z"/>
	<path class="st3" d="M736.9,259.7c0,0.8-0.1,1.6-0.1,2.4c0.8-0.2,1.6-0.4,2.3-0.7c0-0.8,0.1-1.6,0.1-2.3
		C738.5,259.3,737.7,259.5,736.9,259.7z"/>
	<path class="st1" d="M732.5,212.4c0-0.2,0-0.3,0-0.5c-21.5-3.2-40.9-14.2-53.4-22.8c-10.6-7.4-19.4-15.9-26-25.4
		c-0.5-0.7-0.3-1.6,0.4-2.1c0.7-0.5,1.6-0.3,2.1,0.4c6.4,9.2,14.9,17.5,25.2,24.7c12.5,8.7,31.9,19.6,53.4,22.5
		c0.8,0.1,1.3,0.8,1.3,1.6c0,0.5,0,1,0,1.4c1.8,16.2,2,32.3,1.5,47.6c0.8-0.2,1.6-0.4,2.4-0.6c0.8-16.9,0.6-33.8-1.3-50.9
		c-0.1-0.6-0.1-1.1,0-1.7c-19.4-2.6-38.6-12-54-22.8c-19.1-13.2-34.8-32.4-38.2-56l12.1-3.3c1.7,11.5,6.6,21.8,13.4,30.7
		c4.5-11.1,4.3-23.5,4-35.4h7.5c0.3,14.2,0.2,28.7-6.1,41.7c4.5,4.7,9.6,8.9,15,12.5c16.6,11.2,37.1,20.9,57.6,20.8
		c-4.6-19.4-13.8-38-32.5-47.1l2.8-4.7c-9.3-11.6-14.8-25.7-14.8-40.9c0-18,7.7-34.4,20.4-47c-5.1-0.6-10.3-1-15.7-1
		c-63.3,0-114.6,46.7-114.6,104.4S646,262.7,709.3,262.7c8.5,0,16.7-0.8,24.7-2.4C734.5,244.9,734.3,228.7,732.5,212.4z"/>
	<path class="st1" d="M747,167.5c3.9,7.2,6.8,15.1,8.9,23.1c2.1-6.8,5-13.3,8.1-19.9c-5.7-1.4-11.1-3.4-16.3-5.8
		C747.5,165.7,747.3,166.6,747,167.5C747,167.4,747,167.4,747,167.5z"/>
	<path class="st1" d="M776.3,172.9c-1.1,2.3-2.2,4.5-3.2,6.8c-3.8,8.3-7.3,17.2-8,26.4c0.2,0.7,0.3,1.4,0.4,2.1
		c1.5,13.5,2,26.8,1.7,40.2c4-2.2,7.9-4.5,11.6-7.1c6.1-4.8,11.7-10.1,16.5-16v-52.1c-2.7,0.2-5.4,0.4-8.2,0.4
		C783.5,173.6,779.9,173.3,776.3,172.9z"/>
	<path class="st1" d="M787.2,30.4c-24.8,0-47.1,9.5-62.2,24.6c19.4,2.4,37.3,9.3,52.3,19.4l11-3c1.3,4.7,2.4,9.5,3.2,14.3
		c1.3,1.3,2.6,2.5,3.9,3.9V37.7c-4-0.5-8-0.8-12.2-0.8c-0.8,0-1.5-0.7-1.5-1.5s0.7-1.5,1.5-1.5c4.1,0,8.2,0.3,12.2,0.8v-3.9
		C792.7,30.6,789.9,30.4,787.2,30.4z"/>
	<path class="st1" d="M793.2,103.9c0.7-0.4,1.4-0.9,2.1-1.3v-13c-1.3-1.3-2.6-2.6-3.9-3.9C792.5,91.7,793.1,97.8,793.2,103.9z"/>
	<path class="st1" d="M719.4,142.9l1-1.7c8.5,4.1,15.3,10.1,20.7,17.2c0.4-6.6-1.5-13.1-5.6-18.7l6.5-3.8c6.1,8.4,8.1,19,5.7,29
		c5.1,2.4,10.6,4.4,16.3,5.8c3.4-7.4,7.1-14.8,9.8-22.5c8.5-23.7,9.3-49.3,2.4-73.5l1.1-0.3c-15-10.1-32.9-17-52.3-19.4
		c-12.7,12.6-20.4,29-20.4,47C704.6,117.2,710.1,131.3,719.4,142.9z"/>
	<path class="st1" d="M788,144.7c-0.6,2-1.3,4-2,5.9c3.4-0.4,6.6-1.7,9.3-3.6v-36c-0.7,0.4-1.4,0.7-2.1,1.1
		C792.9,123.2,791.2,134.2,788,144.7z"/>
	<path class="st1" d="M783.1,158.3c-2.1,4.9-4.4,9.8-6.8,14.7c3.6,0.4,7.2,0.6,10.8,0.6c2.8,0,5.5-0.1,8.2-0.4v-17.6
		c-3.5,1.6-7.3,2.6-11.3,2.7C783.7,158.4,783.4,158.3,783.1,158.3z"/>
	<path class="st2" d="M509.1,37.8C509.3,37.2,509.2,37.4,509.1,37.8C508.9,38.2,508.9,38.2,509.1,37.8z"/>
	<path class="st2" d="M497.1,58.7c-0.2,0.3-0.4,0.5-0.7,0.8C496.4,59.7,496.5,59.5,497.1,58.7z"/>
	<path class="st2" d="M546.1,2.3c-1.8,13.4-4.6,26.4-9,38.9c-0.1,0.3-0.2,0.7-0.4,1c5.2-13.5,8.7-27.7,11.4-42.2h-1.6
		C546.4,0.8,546.2,1.5,546.1,2.3z"/>
	<path class="st2" d="M543.1,1.8c0.1-0.6,0.2-1.2,0.2-1.8H537h-4.2c-0.5,3.2-1,6.4-1.5,9.6c-0.3,1.9-3.2,1.1-2.9-0.8
		c0.5-2.9,0.9-5.9,1.4-8.8h-2.5c-0.2,1.2-0.4,2.4-0.6,3.6c-0.3,1.9-3.2,1.1-2.9-0.8c0.2-0.9,0.3-1.8,0.5-2.8h-4.4
		c-1,4.7-2,9.4-3.2,14.1c-1.2,4.9-2.6,9.7-4.2,14.5c-0.8,2.3-1.6,4.5-2.4,6.8c-0.1,0.3-0.7,1.9-1,2.5c0.2-0.5,0.3-0.7,0,0
		c-0.2,0.4-0.1,0.3,0,0c-0.3,0.6-0.7,1.7-0.8,1.8c-1.9,4.1-4,8.1-6.3,12c-1.3,2.1-2.6,4.1-4,6c-0.2,0.3-1.2,1.6-1.4,1.9
		c0.2-0.3,0.4-0.5,0.7-0.8c-0.6,0.8-0.8,0.9-0.7,0.8c-0.5,0.7-1.1,1.3-1.7,2l27.8,3.2c8.2-13.2,13.4-27.5,16.9-42.4L543.1,1.8z"/>
	<path class="st2" d="M739.2,261.4c10-2.9,19.4-7,28-12.1c0-0.3,0-0.6,0-0.9c-8.6,4.6-18,8.2-27.9,10.7
		C739.3,259.9,739.2,260.7,739.2,261.4z"/>
	<path class="st2" d="M763.9,336.8C764,337.2,764,337.1,763.9,336.8C763.9,336.4,763.9,336.3,763.9,336.8z"/>
	<path class="st2" d="M737.3,288c-2.1,22.7-2.9,45,2.3,67.4l26.5-7.3c-0.7-2.9-1.3-5.7-1.8-8.6c0-0.3-0.3-2-0.4-2.7c0,0.3,0,0.4,0,0
		c-0.1-0.5,0-0.4,0,0c-0.1-0.8-0.3-2.9-0.4-3.3c-0.5-5-0.7-10.1-0.7-15.1c0-10.6,1-21.2,2-31.7c1-11.3,1.8-22.5,2.2-33.7
		c-8.8,5-18.2,8.9-28,11.7C738.6,272.4,738,280.2,737.3,288z M762,270.6c-0.6,19.8-7.6,39.6-2.8,59.3c0.5,1.9-2.4,2.7-2.9,0.8
		c-4.9-20,2.1-40,2.7-60C759,268.7,762,268.7,762,270.6z M752.9,281.9c0.3-1.9,3.2-1.1,2.9,0.8c-1.8,12.1-5.6,25.5-2.9,37.7
		c0.4,1.9-2.5,2.7-2.9,0.8C747.2,308.4,751,294.6,752.9,281.9z"/>
	<path class="st2" d="M765.6,216c1.4,7.9-10.6,11.2-12.1,3.3c-0.7-4.2-1-8.2-0.8-12.1c-4.9,0.3-9.9,0.1-14.8-0.6c0,0.5,0,1.1,0,1.7
		c1.9,17,2.1,33.9,1.3,50.9c9.9-2.4,19.2-6.1,27.9-10.7c0.3-13.4-0.2-26.7-1.7-40.2c-0.1-0.7-0.2-1.4-0.4-2.1
		C764.9,209.4,765,212.7,765.6,216z"/>
	<path class="st2" d="M749.2,194.8C749.2,194.8,749.2,194.8,749.2,194.8c-20.5,0.1-40.9-9.6-57.6-20.8c-5.4-3.7-10.5-7.9-15-12.5
		c-0.3,0.6-0.6,1.2-0.9,1.7c-2.3,4.3-8.7,0.5-6.5-3.8c0.7-1.4,1.4-2.8,1.9-4.2c-6.9-8.9-11.8-19.1-13.4-30.7l-12.1,3.3
		c3.5,23.5,19.2,42.7,38.2,56c15.5,10.8,34.7,20.2,54,22.8C738.3,200.8,743.7,196,749.2,194.8z"/>
	<path class="st2" d="M752.8,207.1c0-0.2,0-0.4,0-0.5c-0.8-0.4-1.5-1.2-1.7-2.4c-0.5-3.1-1.2-6.3-1.9-9.4c-5.5,1.2-10.9,6-11.2,11.8
		C742.9,207.2,747.8,207.4,752.8,207.1z"/>
	<path class="st2" d="M761.5,191.2c-0.5,1.9-3.4,1.1-2.9-0.8c1.6-6.7,4.3-13.1,7.2-19.3c-0.6-0.1-1.2-0.3-1.8-0.4
		c-3.1,6.6-6,13.1-8.1,19.9c0.3,1.4,0.7,2.7,1,4.1c1.5,0.4,2.6,1.4,3.2,2.7c2.6,2.1,4.3,5.3,5.1,8.8c0.7-9.2,4.1-18.1,8-26.4
		c1.1-2.3,2.1-4.5,3.2-6.8c-2.6-0.3-5.1-0.7-7.6-1.2C765.8,178,763.1,184.4,761.5,191.2z"/>
	<path class="st2" d="M788.2,71.4l-11,3c5.1,3.4,9.8,7.2,14.2,11.3C790.6,80.9,789.6,76.1,788.2,71.4z"/>
	<path class="st2" d="M773.8,148.2c-2.8,7.7-6.4,15.1-9.8,22.5c0.6,0.2,1.2,0.3,1.8,0.4c6.1-13.2,13.6-25.8,15.7-40.4
		c0.3-1.9,3.2-1.1,2.9,0.8c-2.2,14.5-9.5,27.1-15.7,40.2c2.5,0.5,5,0.9,7.6,1.2c2.3-4.9,4.6-9.7,6.8-14.7c-3.8-0.8-3.5-7.3,1-7.4
		c0.7,0,1.3-0.1,2-0.2c0.7-2,1.4-3.9,2-5.9c3.1-10.6,4.8-21.6,5.2-32.6c-0.7,0.3-1.4,0.6-2.2,0.9c-4.5,1.8-6.4-5.5-2-7.2
		c1.4-0.6,2.8-1.3,4.2-2c-0.2-6.1-0.8-12.2-1.8-18.2c-4.4-4.1-9.1-7.9-14.2-11.3l-1.1,0.3C783,98.8,782.3,124.5,773.8,148.2z"/>
	<path class="st2" d="M760,197.4c1.7,3.5-0.2,9.1-5.4,9.6c-0.6,0.1-1.2,0.1-1.9,0.1c-0.2,3.9,0,8,0.8,12.1
		c1.4,7.9,13.5,4.6,12.1-3.3c-0.6-3.3-0.7-6.6-0.5-9.8C764.3,202.7,762.6,199.5,760,197.4z"/>
	<path class="st2" d="M760,197.4c-0.6-1.3-1.7-2.3-3.2-2.7c0.1,0.3,0.1,0.6,0.2,0.9C758.1,196,759.1,196.6,760,197.4z"/>
	<path class="st2" d="M758.3,202.2c0.6,3.5-3.2,5.5-5.5,4.4c0,0.2,0,0.4,0,0.5c0.6,0,1.2-0.1,1.9-0.1c5.2-0.5,7-6.1,5.4-9.6
		c-0.9-0.7-1.9-1.4-3-1.8C757.5,197.8,757.9,200,758.3,202.2z"/>
	<path class="st2" d="M793.2,112.2c0.7-0.3,1.4-0.7,2.1-1.1v-8.6c-0.7,0.5-1.4,0.9-2.1,1.3C793.3,106.6,793.3,109.4,793.2,112.2z"/>
	<path class="st2" d="M791.1,113.1c0.7-0.3,1.4-0.6,2.2-0.9c0.1-2.8,0.1-5.6,0-8.3c-1.3,0.8-2.7,1.5-4.2,2
		C784.7,107.7,786.6,114.9,791.1,113.1z"/>
	<path class="st2" d="M682.7,119.7h-7.5c0.3,11.9,0.5,24.3-4,35.4c1.7,2.2,3.5,4.2,5.4,6.2C682.9,148.4,683,134,682.7,119.7z"/>
	<path class="st2" d="M675.7,163.1c0.3-0.6,0.6-1.2,0.9-1.7c-1.9-2-3.7-4.1-5.4-6.2c-0.6,1.4-1.2,2.8-1.9,4.2
		C667,163.6,673.4,167.4,675.7,163.1z"/>
	<path class="st2" d="M783.1,158.3c0.3,0.1,0.6,0.1,1,0.1c4-0.1,7.9-1.1,11.3-2.7v-8.5c-2.7,1.9-5.9,3.2-9.3,3.6
		C785.1,153.3,784.1,155.8,783.1,158.3z"/>
	<path class="st2" d="M783.1,158.3c1.1-2.5,2.1-5,3-7.6c-0.7,0.1-1.3,0.2-2,0.2C779.6,151,779.2,157.5,783.1,158.3z"/>
	<path class="st2" d="M751.7,194.5c0.6,0,1.1,0,1.7,0.1c0.4,0,0.8-0.1,1.2-0.1c0,0,0.1,0,0.1,0c0.3-1.3,0.7-2.6,1.1-3.9
		c-2.1-8-4.9-15.9-8.9-23.1c-1.5,4.5-8.7,2.5-7.2-2c0.4-1.4,0.8-2.8,1-4.2c-8.4-4.9-15.6-11.1-21.4-18.3l-2.8,4.7
		c18.8,9.1,27.9,27.8,32.5,47.1c0,0,0.1,0,0.1,0C750.1,194.6,750.9,194.5,751.7,194.5z"/>
	<path class="st2" d="M740.8,161.2c0.2-1,0.3-1.9,0.3-2.9c-5.4-7.1-12.2-13.1-20.7-17.2l-1,1.7C725.2,150.1,732.4,156.3,740.8,161.2
		z"/>
	<path class="st2" d="M751.7,194.5c-0.8,0-1.6,0.1-2.5,0.3c1.4,0,2.8-0.1,4.2-0.2C752.9,194.5,752.3,194.5,751.7,194.5z"/>
	<path class="st2" d="M749.3,194.7C749.2,194.7,749.2,194.7,749.3,194.7C749.2,194.8,749.2,194.8,749.3,194.7
		C749.2,194.8,749.2,194.8,749.3,194.7z"/>
	<path class="st2" d="M754.7,194.5c0,0-0.1,0-0.1,0c-0.4,0-0.8,0.1-1.2,0.1c0.4,0.1,0.8,0.1,1.2,0.2
		C754.7,194.7,754.7,194.6,754.7,194.5z"/>
	<path class="st2" d="M753.4,194.6c-1.4,0.1-2.8,0.2-4.2,0.2c0,0-0.1,0-0.1,0c0.7,3.1,1.4,6.3,1.9,9.4c0.2,1.3,0.9,2,1.7,2.4
		c0.2-4,0.9-8,1.9-11.8C754.3,194.7,753.8,194.6,753.4,194.6z"/>
	<path class="st2" d="M756.8,194.7c-0.3-1.4-0.6-2.7-1-4.1c-0.4,1.3-0.8,2.6-1.1,3.9C755.5,194.4,756.2,194.5,756.8,194.7z"/>
	<path class="st2" d="M754.7,194.8c0.8,0.2,1.6,0.4,2.4,0.8c-0.1-0.3-0.1-0.6-0.2-0.9c-0.6-0.2-1.3-0.2-2.1-0.2
		C754.7,194.6,754.7,194.7,754.7,194.8z"/>
	<path class="st2" d="M758.3,202.2c-0.4-2.2-0.8-4.4-1.3-6.6c-0.7-0.3-1.5-0.6-2.4-0.8c-1,3.8-1.6,7.8-1.9,11.8
		C755.1,207.7,758.9,205.7,758.3,202.2z"/>
	<path class="st2" d="M747,167.5C747,167.4,747,167.4,747,167.5c0.3-0.9,0.5-1.7,0.7-2.6c-1.1-0.5-2.1-1-3.2-1.6
		C745.4,164.7,746.2,166.1,747,167.5z"/>
	<path class="st2" d="M747.7,164.9c2.4-10,0.4-20.6-5.7-29l-6.5,3.8c4.1,5.6,6,12.1,5.6,18.7c1.2,1.6,2.4,3.3,3.4,5
		C745.6,163.8,746.6,164.4,747.7,164.9z"/>
	<path class="st2" d="M740.8,161.2c-0.2,1.4-0.6,2.8-1,4.2c-1.5,4.6,5.7,6.6,7.2,2c-0.8-1.4-1.6-2.8-2.4-4.2
		C743.3,162.6,742,161.9,740.8,161.2z"/>
	<path class="st2" d="M744.5,163.3c-1.1-1.7-2.2-3.4-3.4-5c-0.1,1-0.2,1.9-0.3,2.9C742,161.9,743.3,162.6,744.5,163.3z"/>
	<path class="st2" d="M705.3,266.2c-0.8,0-1.5,0.7-1.5,1.5s0.7,1.5,1.5,1.5c9.7,0,19.2-1.1,28.4-3.2c0.1-1.1,0.1-2.1,0.2-3.2
		C724.7,265,715.1,266.2,705.3,266.2z"/>
	<path class="st2" d="M767.2,249.3c0,1.2-0.1,2.5-0.1,3.7c6.1-3.5,11.9-7.6,17.3-12.1c4-3.4,7.7-7,11-10.8v-2.9
		c-5,5.2-10.5,9.9-16.5,14.1C775.1,244.2,771.2,246.8,767.2,249.3z"/>
	<path class="st2" d="M736.9,262.1c0,1.1-0.1,2.1-0.1,3.2c0.8-0.2,1.5-0.4,2.3-0.6c0.1-1.1,0.1-2.2,0.2-3.2
		C738.4,261.7,737.6,261.9,736.9,262.1z"/>
	<path class="st2" d="M778.8,241.3c6-4.2,11.6-8.9,16.5-14.1v-1.9C790.5,231.2,784.9,236.5,778.8,241.3z"/>
	<path class="st2" d="M739.2,261.4c-0.1,1.1-0.1,2.2-0.2,3.2c9.9-2.7,19.3-6.6,28-11.7c0-1.2,0.1-2.5,0.1-3.7
		C758.6,254.4,749.2,258.6,739.2,261.4z"/>
	<path class="st2" d="M781.7,35.4c0,0.8,0.7,1.5,1.5,1.5c4.1,0,8.2,0.3,12.2,0.8v-3c-4-0.5-8.1-0.8-12.2-0.8
		C782.3,33.9,781.7,34.6,781.7,35.4z"/>
	<path class="st3" d="M526.7,3.6c0.2-1.2,0.4-2.4,0.6-3.6h-3c-0.2,0.9-0.3,1.8-0.5,2.8C523.5,4.6,526.4,5.5,526.7,3.6z"/>
	<path class="st3" d="M531.3,9.6c0.5-3.2,1-6.4,1.5-9.6h-3c-0.5,2.9-0.9,5.9-1.4,8.8C528.1,10.7,531,11.5,531.3,9.6z"/>
	<path class="st3" d="M756.3,330.6c0.5,1.9,3.3,1.1,2.9-0.8c-4.8-19.7,2.2-39.5,2.8-59.3c0.1-1.9-2.9-1.9-3,0
		C758.4,290.7,751.4,310.6,756.3,330.6z"/>
	<path class="st3" d="M752.9,320.4c-2.7-12.2,1-25.6,2.9-37.7c0.3-1.9-2.6-2.7-2.9-0.8c-1.9,12.7-5.7,26.5-2.9,39.3
		C750.4,323.1,753.3,322.3,752.9,320.4z"/>
	<path class="st3" d="M761.5,191.2c1.7-6.8,4.3-13.2,7.3-19.5c-1-0.2-2-0.4-3-0.6c-2.9,6.2-5.5,12.6-7.2,19.3
		C758.1,192.3,761,193.1,761.5,191.2z"/>
	<path class="st3" d="M784.4,131.5c0.3-1.9-2.6-2.7-2.9-0.8c-2.2,14.6-9.6,27.2-15.7,40.4c1,0.2,2,0.4,3,0.6
		C774.8,158.7,782.2,146,784.4,131.5z"/>
	<path d="M736.9,259.7c-1,0.2-2,0.4-3,0.6c0,0.9-0.1,1.7-0.1,2.6c1-0.2,2-0.5,3-0.8C736.9,261.3,736.9,260.5,736.9,259.7z"/>
	<path d="M731.8,291.8c-2,21.6-3,44.8,2.4,67.9c0.2,0.7,0.8,1.2,1.5,1.2c0.1,0,0.2,0,0.3,0c0.8-0.2,1.3-1,1.1-1.8
		c-5.3-22.7-4.2-45.6-2.3-66.9c0.8-8.4,1.5-17.5,1.9-26.8c-1,0.3-2,0.5-3,0.7C733.2,275,732.5,283.7,731.8,291.8z"/>
	<path d="M735.5,212.1c0-0.4-0.1-0.9,0-1.4c0-0.8-0.5-1.5-1.3-1.6c-21.5-2.9-40.9-13.8-53.4-22.5c-10.3-7.2-18.8-15.5-25.2-24.7
		c-0.5-0.7-1.4-0.8-2.1-0.4c-0.7,0.5-0.8,1.4-0.4,2.1c6.6,9.5,15.4,18.1,26,25.4c12.5,8.7,31.9,19.6,53.4,22.8c0,0.2,0,0.4,0,0.5
		c1.9,16.3,2,32.5,1.4,47.9c1-0.2,2-0.4,3-0.6C737.5,244.4,737.3,228.3,735.5,212.1z"/>
	<path d="M733.8,262.9c0,1.1-0.1,2.1-0.2,3.2c1-0.2,2-0.5,3-0.7c0.1-1.1,0.1-2.1,0.1-3.2C735.8,262.4,734.8,262.6,733.8,262.9z"/>
	<path d="M546.1,2.3c0.1-0.8,0.2-1.5,0.3-2.3h-2.9l-0.3,1.8c-0.9,6.9-2.1,13.7-3.7,20.4L537,36.1l-11.3,29l-3.1-0.4
		c-0.1,0.1-0.1,0.2-0.2,0.3c-1.1,1.8-2.2,3.5-3.4,5.2c-0.5,0.7-0.3,1.6,0.4,2.1c0.3,0.2,0.7,0.3,1,0.3c0.4,0,0.8-0.3,1.1-0.6
		c6.6-9.4,11.5-19.4,15.3-29.8c-2,5.2-4.3,10.3-6.8,15.3C538,40.3,542.7,21.5,546.1,2.3z"/>
	<path d="M546.1,2.3c-3.4,19.2-8.1,38-16.2,55.2c2.6-5,4.8-10.1,6.8-15.3c0.1-0.3,0.2-0.7,0.4-1C541.6,28.7,544.3,15.6,546.1,2.3z"
		/>
	<path d="M543.5,0L543.5,0c-0.2,0.6-0.2,1.2-0.3,1.8L543.5,0z"/>
	<path d="M537,36.1l2.5-13.8c-3.5,15-8.7,29.3-16.9,42.4l3.1,0.4L537,36.1z"/>
	<path class="st3" d="M263.3,105.5c1.2-0.5,2.4-1,3.6-1.6c-0.1-0.2-0.2-0.4-0.3-0.5c-1.2,0.5-2.4,1-3.7,1.4
		C263,105.1,263.1,105.3,263.3,105.5z"/>
	<path class="st1" d="M0,225.3c12.8-15.3,21-33.9,22.6-54.2c0.1-0.8,0.8-1.4,1.6-1.4c0.8,0.1,1.4,0.8,1.4,1.6
		c-0.9,10.6-3.5,20.9-7.7,30.7c5.6-11,9.1-23.1,10.2-35.8C19.5,170,10,172.4,0,173.2V225.3z"/>
	<path class="st1" d="M0,30.8v3.9c40.6,5.1,71.9,35.6,71.9,72.3c0,8.4-1.6,16.7-4.8,24.4c4.7-9,7.3-18.9,7.3-29.4
		C74.4,64.9,41.8,34.4,0,30.8z"/>
	<path class="st1" d="M68.9,107c0-35.1-29.9-64.2-68.9-69.3v51.8c2.2,2.3,4.4,4.7,6.4,7.2c1.6-1.9,3-3.9,4.2-6.2l6.5,3.8
		c-1.7,3.1-3.8,6-6.2,8.5C22,118.9,28.5,138,28.5,158.4c0,2.7-0.1,5.3-0.3,7.9c6.1-2.6,11.8-5.8,16.9-9.6c0.1-0.1,0.2-0.2,0.3-0.3
		C60.5,143.2,68.9,125.6,68.9,107z"/>
	<path class="st1" d="M10.9,102.9c-3.1,3.3-6.8,6.1-10.9,8.3v36c3.2-2.3,5.8-5.4,7.3-9.2l7.2,2c-2.8,7.1-8,12.7-14.6,15.8v17.6
		c10-0.9,19.5-3.3,28.1-6.9c0.2-2.6,0.3-5.2,0.3-7.9C28.5,138,22,118.9,10.9,102.9z"/>
	<path class="st1" d="M6.4,96.8c-2-2.5-4.1-4.9-6.4-7.2v13C2.4,100.9,4.5,98.9,6.4,96.8z"/>
	<path class="st1" d="M284.2,49.8c-2,1.6-4,3.3-5.8,5.1v2.2c0.2,11.1,5.7,21.4,11.5,31.9c0.2,0.4,0.4,0.8,0.6,1.2
		c16.7-12.1,28.5-28.3,33.1-46.7c-10.9,4.1-22.9,6.3-35.5,6.3C286.8,49.9,285.5,49.9,284.2,49.8z"/>
	<path class="st1" d="M220.3,24.3c0.9,0.3,1.8,0.6,2.6,1C215.2,18,209.3,9.4,205.5,0h-3.4c3.6,6.5,5.8,13.7,6.4,21.3
		C212.5,22,216.4,23,220.3,24.3z"/>
	<path class="st1" d="M205.3,39.7c-6.6-1.7-13.7-2.3-20.7-2.9c-15.6-1.4-31.8-2.8-43.4-15.9c-0.6-0.6-0.5-1.6,0.1-2.1
		c0.6-0.6,1.6-0.5,2.1,0.1c10.8,12.1,25.7,13.5,41.4,14.9c7,0.6,14.3,1.3,21.1,3c16,4,30.9,13.1,42,25.5c0.2,0.3,0.4,0.6,0.4,0.9
		c0.8,15.3,7.2,28.2,14.4,41.7c1.2-0.5,2.5-0.9,3.7-1.4c-7.5-13.9-14.7-27.9-15.6-44.2c-10.9-12.2-25.3-21-41.3-25
		c-21.4-5.4-47,0-63.3-18.3l8.8-8.8c7.9,8.9,19.9,10.8,31.2,11.7c4.9,0.4,9.7,0.8,14.5,1.4C200,12.8,197.5,6,193.4,0h-77
		c-3.4,8.4-5.3,17.4-5.3,26.7c0,47.4,48.1,85.8,107.3,85.8c14.8,0,28.8-2.4,41.6-6.7c-6.9-13-13.5-26.5-14.5-42
		C234.8,52.1,220.6,43.5,205.3,39.7z"/>
	<path class="st1" d="M262.8,53.9c0.1-0.2,0.3-0.4,0.4-0.5c-0.2-2.2-0.4-4.4-0.7-6.7c-3.2-0.8-6.4-1.8-9.4-2.9
		C256.5,46.9,259.8,50.3,262.8,53.9z"/>
	<path class="st1" d="M365.2,10.8c2.1-3.4,4-7,5.4-10.8h-1C368.5,3.7,367,7.3,365.2,10.8z"/>
	<path class="st1" d="M347.9,28.5c8.8-8.3,15.2-18,18.6-28.5h-32.9c-2.4,5.5-5.2,10.9-8.8,15.9c0.6,3.6,0.9,7.2,0.9,10.9
		c0,5.8-0.7,11.4-2.1,16.9c8.9-3.3,16.9-7.9,23.9-13.3C347.3,29.7,347.4,29,347.9,28.5z"/>
	<path class="st1" d="M324.9,15.9c-1.2,1.8-2.6,3.5-3.9,5.2c-8.8,10.5-20.7,17.3-31.7,25.1c-1.7,1.2-3.4,2.4-5,3.8
		c1.3,0,2.6,0.1,3.9,0.1c12.7,0,24.7-2.3,35.5-6.3c1.4-5.5,2.1-11.1,2.1-16.9C325.7,23,325.4,19.4,324.9,15.9z"/>
	<path class="st1" d="M312.9,11.1c2.7-3.5,5.1-7.2,7.1-11.1h-16.3C306.2,4,309.3,7.8,312.9,11.1z"/>
	<path class="st1" d="M222.9,25.3c11.2,4.3,21.3,10.5,30.1,18.4c3,1.1,6.2,2.1,9.4,2.9c-0.5-3.8-1.3-7.6-2.4-11.3
		c-2-6.3-5.4-12.1-8.9-17.7c-3.4-5.7-6.9-11.5-9.3-17.7h-36.4C209.3,9.4,215.2,18,222.9,25.3z"/>
	<path class="st1" d="M258.6,15.4c0.9,1.5,1.7,2.9,2.6,4.4c4.7,8.5,7.2,17.2,8.6,26.3c11.1-10.4,26-17.9,37-28.3
		c0.4-0.4,0.8-0.7,1.1-1.1c-5.3-4.9-9.6-10.6-13-16.7h-29.5c-1.2,4.9-3.1,9.7-5.7,14.2C259.4,14.7,259,15.1,258.6,15.4z"/>
	<path class="st1" d="M257.7,0H250c1.3,2.8,2.8,5.6,4.4,8.3C255.7,5.6,256.8,2.9,257.7,0z"/>
	<path class="st2" d="M17.1,94.4l-6.5-3.8c-1.2,2.2-2.6,4.3-4.2,6.2c1.6,2,3.1,4,4.6,6.1C13.3,100.4,15.4,97.5,17.1,94.4z"/>
	<path class="st2" d="M6.4,96.8c-1.9,2.2-4,4.1-6.4,5.7v8.6c4.1-2.2,7.8-4.9,10.9-8.3C9.5,100.8,8,98.7,6.4,96.8z"/>
	<path class="st2" d="M14.6,139.8l-7.2-2c-1.5,3.8-4.1,7-7.3,9.2v8.5C6.6,152.5,11.8,147,14.6,139.8z"/>
	<path class="st2" d="M270.7,102.1c0-0.1-0.1-0.1-0.1-0.2c0,0,0-0.1-0.1-0.1c-1.3,0.6-2.6,1.1-3.9,1.7c0.1,0.2,0.2,0.4,0.3,0.5
		C268.1,103.4,269.4,102.8,270.7,102.1z"/>
	<path class="st2" d="M277.9,98.2c-1.5,0.8-3.1,1.6-4.7,2.3c0,0.1,0.1,0.2,0.1,0.2C274.9,99.9,276.4,99.1,277.9,98.2z"/>
	<path class="st2" d="M281.2,97.9c0.4,0.7,0.2,1.6-0.5,2.1c-1.9,1.2-3.9,2.3-5.9,3.4c9.5,17.4,16.7,35.1,19.8,54.9
		c0.3,1.9-2.6,2.7-2.9,0.8c-3.1-19.5-10.2-37.1-19.6-54.3c-1.3,0.6-2.5,1.3-3.8,1.8c4.3,7.9,8.4,15.8,11.5,24.2
		c9.2,25.4,11.9,51.8,14.6,78.4h27.5c-2.8-27.7-5.5-55.8-14.4-82.3c-4.3-12.9-10.4-24.8-16.9-36.6c-3.5,2.5-7.2,4.9-11,7
		C280.1,97.1,280.8,97.4,281.2,97.9z M291.3,125.1c4.7,14.8,8.6,29.8,11.6,45.1c0.4,1.9-2.5,2.7-2.9,0.8c-3-15.2-6.9-30.3-11.6-45.1
		C287.8,124.1,290.7,123.3,291.3,125.1z"/>
	<path class="st2" d="M278.4,57.2V55c-3.2,3.2-6,6.7-8,10.6c0.2,1.9-0.7,3.5-2,4.7c-0.5,1.5-0.9,3-1.2,4.6
		c-1.4,7.9-13.5,4.5-12.1-3.3c0.3-1.9,0.8-3.7,1.4-5.5c-1.7-2.4-3.6-4.6-5.5-6.8c0.9,16.3,8.1,30.3,15.6,44.2
		c1.3-0.5,2.6-1.1,3.9-1.7c-0.7-1.6,1.7-3,2.7-1.4c0,0,0,0.1,0.1,0.1c1.6-0.8,3.1-1.5,4.7-2.3c0.4-0.2,0.8-0.5,1.2-0.7
		c0.1-0.1,0.3-0.1,0.4-0.2c3.9-2.1,7.6-4.5,11-7c-0.2-0.4-0.4-0.8-0.6-1.2C284.1,78.6,278.6,68.3,278.4,57.2z"/>
	<path class="st2" d="M262,55c0.3-0.4,0.5-0.8,0.8-1.1c-3-3.6-6.2-7-9.7-10.1c-11.6-4.3-21.8-10.6-30.1-18.4c-0.9-0.3-1.7-0.7-2.6-1
		c-3.9-1.4-7.8-2.3-11.8-3.1c0.1,1.8,0.2,3.6,0.2,5.4c-0.1,4.8-7.6,4.8-7.5,0c0.1-2.2-0.1-4.4-0.3-6.6c-4.8-0.6-9.6-1-14.5-1.4
		c-11.3-0.9-23.3-2.8-31.2-11.7l-8.8,8.8c16.3,18.3,41.9,12.9,63.3,18.3c15.9,4,30.4,12.9,41.3,25c0-0.7-0.1-1.4-0.1-2.1L262,55z"/>
	<path class="st2" d="M222.9,25.3c8.3,7.8,18.5,14.2,30.1,18.4C244.3,35.8,234.1,29.6,222.9,25.3z"/>
	<path class="st2" d="M250.9,57.2c0,0.7,0.1,1.4,0.1,2.1c1.9,2.2,3.8,4.4,5.5,6.8c1.3-4.1,3.2-7.7,5.5-11.1L250.9,57.2z"/>
	<path class="st2" d="M270.4,65.6c-0.8,1.5-1.5,3.1-2,4.7C269.7,69.1,270.5,67.4,270.4,65.6z"/>
	<path class="st2" d="M270.6,53.3l7.7-1.5V55c1.8-1.8,3.8-3.5,5.8-5.1c-4.8-0.2-9.5-0.7-14.1-1.5C270.3,50,270.5,51.6,270.6,53.3z"
		/>
	<path class="st2" d="M263.2,53.4c-0.1,0.2-0.3,0.4-0.4,0.5c0.2,0.2,0.3,0.4,0.5,0.6C263.2,54.1,263.2,53.7,263.2,53.4z"/>
	<path class="st2" d="M327.9,0h-7.5c1.1,2.8,2.1,5.6,2.9,8.5C325,5.8,326.5,3,327.9,0z"/>
	<path class="st2" d="M324.9,15.9c3.5-5,6.4-10.3,8.8-15.9h-2.5c-1.9,4.4-4.1,8.6-6.9,12.6C324.5,13.6,324.7,14.7,324.9,15.9z"/>
	<path class="st2" d="M314.7,12.8c3.7,3.1-1.6,8.4-5.3,5.3c-0.5-0.4-1-0.9-1.5-1.4c-0.4,0.4-0.8,0.8-1.1,1.1
		c-11,10.4-25.9,17.9-37,28.3c0.1,0.7,0.2,1.5,0.3,2.2c4.6,0.8,9.3,1.3,14.1,1.5c1.6-1.3,3.3-2.6,5-3.8c11-7.8,23-14.6,31.7-25.1
		c1.4-1.7,2.7-3.4,3.9-5.2c-0.2-1.1-0.4-2.2-0.6-3.3c-2.6,3.8-5.7,7.3-9.4,10.5c-1.4,1.3-3.6-0.9-2.1-2.1c4.2-3.7,7.7-7.9,10.5-12.4
		c-0.8-2.9-1.8-5.8-2.9-8.5h-0.5c-2,3.9-4.3,7.6-7.1,11.1C313.5,11.7,314.1,12.3,314.7,12.8z"/>
	<path class="st2" d="M258.6,69.1c-0.7-1-1.4-2.1-2.1-3.1c-0.6,1.8-1,3.6-1.4,5.5c-1.4,7.9,10.6,11.2,12.1,3.3
		c0.3-1.6,0.7-3.1,1.2-4.6C265.7,72.6,261.1,73,258.6,69.1z"/>
	<path class="st2" d="M270.6,53.3c0.2,1.6,0.3,3.2,0.4,4.8c0.2,2-1,3.2-2.5,3.5c0.3,0.4,0.6,0.8,0.8,1.2c0.6,0.9,0.9,1.9,1,2.7
		c2.1-3.9,4.8-7.4,8-10.6v-3.2L270.6,53.3z"/>
	<path class="st2" d="M262.8,53.9c-0.3,0.4-0.5,0.8-0.8,1.1l1.3-0.3c0-0.1,0-0.2,0-0.2C263.1,54.3,262.9,54.1,262.8,53.9z"/>
	<path class="st2" d="M268.5,61.6c-2.1,0.5-4.7-0.7-5-3.5c-0.1-1.1-0.2-2.3-0.3-3.4L262,55c-2.3,3.3-4.2,7-5.5,11.1
		c0.7,1,1.4,2,2.1,3.1c2.5,3.8,7.1,3.4,9.8,1.1c0.6-1.6,1.3-3.2,2-4.7c-0.1-0.9-0.4-1.8-1-2.7C269.1,62.4,268.8,62,268.5,61.6z"/>
	<path class="st2" d="M208.6,21.3c-0.6-7.5-2.8-14.7-6.4-21.3h-8.8c4.1,6,6.7,12.8,7.5,20.1C203.5,20.4,206,20.8,208.6,21.3z"/>
	<path class="st2" d="M201.2,26.7c-0.1,4.8,7.4,4.8,7.5,0c0-1.8,0-3.6-0.2-5.4c-2.5-0.5-5.1-0.9-7.7-1.2
		C201.2,22.3,201.3,24.5,201.2,26.7z"/>
	<path class="st2" d="M307.9,16.7c1.8-1.8,3.4-3.7,5-5.6c-3.6-3.4-6.6-7.1-9.2-11.1h-8.8C298.3,6.2,302.6,11.9,307.9,16.7z"/>
	<path class="st2" d="M314.7,12.8c-0.6-0.5-1.3-1.1-1.9-1.7c-1.5,1.9-3.2,3.8-5,5.6c0.5,0.5,1,0.9,1.5,1.4
		C313.1,21.2,318.4,15.9,314.7,12.8z"/>
	<path class="st2" d="M267.9,47.9c-1.8-0.4-3.7-0.8-5.4-1.2c0.3,2.2,0.5,4.4,0.7,6.7C264.6,51.4,266.2,49.6,267.9,47.9z"/>
	<path class="st2" d="M260,35.4c1.2,3.7,1.9,7.5,2.4,11.3c1.8,0.5,3.6,0.9,5.4,1.2c0.6-0.6,1.2-1.2,1.8-1.8
		c-1.4-9.1-3.8-17.8-8.6-26.3c-0.8-1.5-1.7-2.9-2.6-4.4c-2.8,2-7.5-1.3-5.4-5c0.4-0.7,0.8-1.4,1.2-2.1c-1.6-2.7-3.1-5.5-4.4-8.3
		h-8.1c2.4,6.1,5.8,12,9.3,17.7C254.6,23.3,258,29,260,35.4z"/>
	<path class="st2" d="M263.3,54.5c0.1,0.1,0.1,0.1,0.2,0.2l7.2-1.4c-0.2-1.7-0.4-3.3-0.6-5c-0.7-0.1-1.4-0.3-2.2-0.4
		c-1.7,1.7-3.3,3.5-4.7,5.4C263.2,53.7,263.2,54.1,263.3,54.5z"/>
	<path class="st2" d="M269.7,46.1c-0.6,0.6-1.2,1.2-1.8,1.8c0.7,0.1,1.4,0.3,2.2,0.4C270,47.6,269.8,46.9,269.7,46.1z"/>
	<path class="st2" d="M268.5,61.6c1.5-0.3,2.7-1.5,2.5-3.5c-0.1-1.6-0.3-3.2-0.4-4.8l-7.2,1.4C265.2,56.9,266.9,59.2,268.5,61.6z"/>
	<path class="st2" d="M263.3,54.5c0,0.1,0,0.2,0,0.2l0.1,0C263.4,54.7,263.3,54.6,263.3,54.5z"/>
	<path class="st2" d="M263.3,54.8c0.1,1.1,0.2,2.3,0.3,3.4c0.2,2.8,2.9,4,5,3.5c-1.6-2.4-3.3-4.7-5.1-6.9L263.3,54.8z"/>
	<path class="st2" d="M258.6,15.4c0.4-0.3,0.8-0.7,1.1-1.2c2.6-4.5,4.5-9.3,5.7-14.2h-7.7c-0.8,2.9-2,5.6-3.4,8.3
		C255.7,10.7,257.2,13.1,258.6,15.4z"/>
	<path class="st2" d="M0,230.1c7.6-8.5,13.6-17.9,18-28c-4.7,9.2-10.7,17.6-18,25.1V230.1z"/>
	<path class="st2" d="M253.2,10.4c-2.1,3.7,2.6,7,5.4,5c-1.4-2.4-2.9-4.7-4.3-7.1C254,9,253.6,9.7,253.2,10.4z"/>
	<path class="st2" d="M24.3,169.8c-0.8-0.1-1.6,0.5-1.6,1.4C21,191.4,12.8,210,0,225.3v1.9c7.2-7.5,13.3-16,18-25.1
		c4.2-9.7,6.8-20,7.7-30.7C25.7,170.6,25.1,169.8,24.3,169.8z"/>
	<path class="st2" d="M45,156.7c-0.3,0.5-0.3,1.3,0.1,1.8c0.3,0.3,0.7,0.5,1.1,0.5c0.3,0,0.7-0.1,1-0.4c9-7.8,15.7-17.1,19.8-27.2
		C62,141.2,54.4,149.8,45,156.7z"/>
	<path class="st2" d="M0,34.7v3c38.9,5.1,68.9,34.2,68.9,69.3c0,18.6-8.4,36.2-23.6,49.4c-0.1,0.1-0.2,0.2-0.3,0.3
		c9.4-6.9,17-15.5,22.1-25.3c3.1-7.7,4.8-16,4.8-24.4C71.9,70.3,40.6,39.9,0,34.7z"/>
	<path class="st2" d="M347.6,30.2c0.1,0.2,0.1,0.3,0.3,0.4c0.3,0.3,0.7,0.5,1.1,0.5c0.4,0,0.7-0.1,1-0.4c6.4-6,11.5-12.7,15.3-20
		C360.7,18.1,354.7,24.6,347.6,30.2z"/>
	<path class="st2" d="M366.5,0c-3.5,10.5-9.8,20.3-18.6,28.5c-0.5,0.4-0.6,1.1-0.3,1.7c7.1-5.6,13.1-12.2,17.7-19.5
		c1.8-3.5,3.3-7.1,4.4-10.8H366.5z"/>
	<path class="st2" d="M263.3,105.5c0.5,0.9,1,1.8,1.4,2.7c1.2-0.5,2.4-1,3.6-1.6c-0.5-0.9-1-1.8-1.4-2.6
		C265.7,104.5,264.5,105,263.3,105.5z"/>
	<path class="st2" d="M214.4,115.1c-44,0-83.9-22.1-99.2-54.9c-0.4-0.8-1.2-1.1-2-0.7c-0.8,0.4-1.1,1.2-0.7,2
		c15.8,33.9,56.8,56.7,101.9,56.7c16.7,0,32.8-3,47.5-8.7c-0.5-0.9-1-1.8-1.4-2.7C246.2,112.2,230.6,115.1,214.4,115.1z"/>
	<path class="st2" d="M270.7,102.1c-1.3,0.6-2.5,1.2-3.8,1.8c0.5,0.9,1,1.8,1.4,2.6c1.3-0.6,2.6-1.2,3.8-1.8
		C271.6,103.9,271.2,103,270.7,102.1z"/>
	<path class="st2" d="M274.8,103.4c2-1.1,4-2.2,5.9-3.4c0.7-0.4,0.9-1.4,0.5-2.1c-0.4-0.6-1-0.8-1.6-0.7c-0.5,0.3-1.1,0.6-1.7,0.9
		c-1.5,0.9-3,1.8-4.5,2.6C273.8,101.6,274.3,102.5,274.8,103.4z"/>
	<path class="st2" d="M279.1,97.4c-0.4,0.3-0.8,0.5-1.2,0.7c0.6-0.3,1.1-0.6,1.7-0.9C279.4,97.3,279.2,97.4,279.1,97.4z"/>
	<path class="st3" d="M291.7,159c0.3,1.9,3.2,1.1,2.9-0.8c-3.1-19.8-10.3-37.5-19.8-54.9c-0.9,0.5-1.8,0.9-2.7,1.4
		C281.5,121.9,288.6,139.5,291.7,159z"/>
	<path class="st3" d="M270.7,102.1c0.9-0.5,1.8-0.9,2.7-1.4c0-0.1-0.1-0.2-0.1-0.2c-0.9,0.4-1.8,0.8-2.7,1.3c0,0,0,0.1,0.1,0.1
		C270.6,102,270.6,102.1,270.7,102.1z"/>
	<path class="st3" d="M273.1,100.4c-0.9-1.6-3.4-0.3-2.7,1.4c0.9-0.4,1.8-0.8,2.7-1.3C273.2,100.5,273.2,100.4,273.1,100.4z"/>
	<path class="st3" d="M270.7,102.1c0.5,0.9,1,1.7,1.5,2.6c0.9-0.5,1.8-0.9,2.7-1.4c-0.5-0.9-1-1.7-1.5-2.6
		C272.4,101.2,271.6,101.7,270.7,102.1z"/>
	<path class="st3" d="M300,171c0.4,1.9,3.3,1.1,2.9-0.8c-3-15.2-6.9-30.3-11.6-45.1c-0.6-1.8-3.5-1-2.9,0.8
		C293.1,140.7,297,155.8,300,171z"/>
	<path class="st3" d="M324.3,12.6c2.7-3.9,5-8.1,6.9-12.6h-3.3c-1.3,3-2.8,5.8-4.6,8.5C323.7,9.9,324,11.2,324.3,12.6z"/>
	<path class="st3" d="M312.8,20.9c-1.5,1.3,0.7,3.4,2.1,2.1c3.6-3.2,6.7-6.7,9.4-10.5c-0.3-1.3-0.6-2.7-1-4
		C320.5,13,317,17.2,312.8,20.9z"/>
	<path d="M262.2,109.9c4.4,8.2,9,16.7,12.2,25.5c5.2,14.4,8.8,30.1,11.5,50.8c0.1,0.8,0.7,1.3,1.5,1.3c0.1,0,0.1,0,0.2,0
		c0.8-0.1,1.4-0.9,1.3-1.7c-2.8-20.9-6.3-36.7-11.6-51.4c-3.3-9-7.9-17.6-12.4-25.9c0-0.1-0.1-0.2-0.1-0.3c-0.9,0.4-1.9,0.8-2.8,1.1
		C262,109.5,262.1,109.7,262.2,109.9z"/>
	<path d="M262.9,104.8c-0.9,0.3-1.9,0.7-2.9,1c0.1,0.3,0.3,0.5,0.4,0.8c0.9-0.4,1.9-0.8,2.8-1.1C263.1,105.3,263,105.1,262.9,104.8z
		"/>
	<path d="M248.5,63.2c0-0.3-0.2-0.7-0.4-0.9c-11.1-12.4-26-21.5-42-25.5c-6.8-1.7-14.1-2.4-21.1-3c-15.7-1.4-30.6-2.7-41.4-14.9
		c-0.6-0.6-1.5-0.7-2.1-0.1c-0.6,0.6-0.7,1.5-0.1,2.1c11.6,13,27.8,14.5,43.4,15.9c6.9,0.6,14.1,1.3,20.7,2.9
		c15.3,3.9,29.5,12.4,40.2,24.2c1,15.5,7.6,29,14.5,42c1-0.3,1.9-0.7,2.9-1C255.7,91.4,249.3,78.4,248.5,63.2z"/>
	<path d="M260.5,106.7c0.5,0.9,1,1.8,1.4,2.7c0.9-0.4,1.9-0.8,2.8-1.1c-0.5-0.9-1-1.8-1.4-2.7C262.3,105.9,261.4,106.3,260.5,106.7z
		"/>
</g>
</svg>
