<?xml version="1.0" encoding="utf-8"?>
<!-- Generator: Adobe Illustrator 20.1.0, SVG Export Plug-In . SVG Version: 6.00 Build 0)  -->
<svg version="1.1" id="Layer_1" xmlns="http://www.w3.org/2000/svg" xmlns:xlink="http://www.w3.org/1999/xlink" x="0px" y="0px"
	 viewBox="0 0 372 489" style="enable-background:new 0 0 372 489;" xml:space="preserve">
<style type="text/css">
	.st0{fill:#6BD6C4;}
	.st1{fill:#27A08C;}
	.st2{fill:#FDA6B0;}
	.st3{fill:none;}
	.st4{fill:#F85B6D;}
	.st5{fill:#F23B51;}
	.st6{fill:#FA7D8C;}
	.st7{fill:none;stroke:#000000;stroke-width:3;stroke-linecap:round;stroke-linejoin:round;stroke-miterlimit:10;}
</style>
<path class="st0" d="M41.8,249.7c22.2-17.8,45.5-34.4,69.5-49.8c-3.4-5.8-6.7-11.5-10.1-17.3c-30.4,22.7-58.8,47.8-84.8,75.5
	c-7.5,8,2.3,22.2,12.1,15.7c27.9-18.4,55.7-36.8,83.6-55.1c26.5-17.3,53.4-34,82.4-46.6c-4-5.2-8.1-10.5-12.1-15.7
	c-55.7,43.3-111.3,86.7-167,130c-9,7,2.6,21.7,12.1,15.7c63.9-40.5,127.8-81,191.7-121.5c-4-5.2-8.1-10.5-12.1-15.7
	c-52.7,41.4-105.5,82.8-158.2,124.2C33.8,301,18.7,312.9,3.5,324.8c-8.9,7,2.8,22.2,12.1,15.7C76.8,297.8,138,255,200.3,214
	c17.7-11.7,35.5-23.2,53.3-34.5c-4-5.2-8.1-10.5-12.1-15.7c-54.9,45-111.5,88-169.6,128.8c-16.7,11.7-33.4,23.2-50.3,34.5
	c-10.6,7.1-0.9,24.2,10.1,17.3c62.2-39.3,124.4-78.7,186.6-118c17.7-11.2,35.5-22.4,53.2-33.6c-3.4-5.8-6.7-11.5-10.1-17.3
	c-61.6,43.3-122.1,88.3-181.5,134.7c-16.7,13.1-33.3,26.3-49.8,39.6c-8.8,7.1,2.7,22,12.1,15.7c60.5-40.8,121-81.5,181.5-122.3
	c17-11.5,34.1-23,51.1-34.5c-3.4-5.8-6.7-11.5-10.1-17.3c-54.2,39.8-108.3,79.5-162.5,119.3c-15.6,11.4-31.1,22.8-46.7,34.2
	c-4.3,3.2-6.5,8.7-3.6,13.7c2.8,4.8,8.9,6.2,13.7,3.6c64.3-35.4,126.9-74,187.4-115.6c10.5-7.2,1.1-24-10.1-17.3
	C192,260,143,293.9,96.2,330.7c-8.9,7,2.7,22.1,12.1,15.7c46.8-31.7,94.8-61.8,143.6-90.3c-3.4-5.8-6.7-11.5-10.1-17.3
	c-59,38.1-116,79.4-170.6,123.6c-8.9,7.2,2.6,21.7,12.1,15.7c56.7-36,113.5-72,170.2-108c-3.4-5.8-6.7-11.5-10.1-17.3
	c-52,40.1-104,80.3-156,120.4c-4.3,3.3-6.6,8.6-3.6,13.7c2.6,4.5,9.2,6.6,13.7,3.6c54.1-35.7,108.3-71.4,162.4-107
	c-4-5.2-8.1-10.5-12.1-15.7c-47.7,37.5-95.8,75.6-134,123.2c-3.1,3.9-4.1,9-0.8,13.1c3,3.7,8.6,5.3,12.9,2.6
	c36-23.4,71.9-46.7,107.9-70.1c-3.4-5.8-6.7-11.5-10.1-17.3c-27.6,20.9-55.2,41.8-82.8,62.7c-4.3,3.3-6.5,8.6-3.6,13.7
	c2.8,4.8,8.9,6.1,13.7,3.6c30.9-16.3,60.9-34.1,90-53.3c10.7-7.1,0.7-24.4-10.1-17.3c-29.1,19.2-59.2,37-90,53.3
	c3.4,5.8,6.7,11.5,10.1,17.3c27.6-20.9,55.2-41.8,82.8-62.7c4.3-3.3,6.5-8.6,3.6-13.7c-2.6-4.5-9.1-6.5-13.7-3.6
	c-36,23.4-71.9,46.7-107.9,70.1c4,5.2,8.1,10.5,12.1,15.7c38.2-47.6,86.3-85.7,134-123.2c8.9-7-2.7-21.9-12.1-15.7
	c-54.1,35.7-108.3,71.4-162.4,107c3.4,5.8,6.7,11.5,10.1,17.3c52-40.1,104-80.3,156-120.4c4.3-3.3,6.6-8.6,3.6-13.7
	c-2.7-4.5-9.1-6.5-13.7-3.6c-56.7,36-113.5,72-170.2,108c4,5.2,8.1,10.5,12.1,15.7c53.3-43.1,109-83.3,166.6-120.5
	c10.8-6.9,1.1-23.8-10.1-17.3C193,267.3,145,297.4,98.2,329.1c4,5.2,8.1,10.5,12.1,15.7c45.5-35.7,93.2-68.5,142.8-98.3
	c-3.4-5.8-6.7-11.5-10.1-17.3c-60.5,41.6-123.1,80.2-187.4,115.6c3.4,5.8,6.7,11.5,10.1,17.3c54.2-39.8,108.3-79.5,162.5-119.3
	c15.6-11.4,31.1-22.8,46.7-34.2c4.3-3.2,6.5-8.7,3.6-13.7c-2.6-4.4-9.2-6.6-13.7-3.6c-60.5,40.8-121,81.5-181.5,122.3
	c-17,11.5-34.1,23-51.1,34.5c4,5.2,8.1,10.5,12.1,15.7c57.3-46.2,115.8-91,175.5-134.2c17.2-12.4,34.4-24.7,51.7-36.9
	c4.4-3.1,6.5-8.7,3.6-13.7c-2.7-4.5-9.1-6.5-13.7-3.6c-62.2,39.3-124.4,78.7-186.6,118c-17.7,11.2-35.5,22.4-53.2,33.6
	c3.4,5.8,6.7,11.5,10.1,17.3c60.1-40.4,118.7-83,175.6-127.7c16.3-12.8,32.4-25.7,48.4-38.8c8.8-7.2-2.6-21.7-12.1-15.7
	c-63,40-124.6,82.1-185.9,124.7C40.3,299,22.9,311.1,5.5,323.2c4,5.2,8.1,10.5,12.1,15.7c52.7-41.4,105.5-82.8,158.2-124.2
	c15.1-11.9,30.3-23.8,45.4-35.7c9-7-2.6-21.7-12.1-15.7c-63.9,40.5-127.8,81-191.7,121.5c4,5.2,8.1,10.5,12.1,15.7
	c55.7-43.3,111.3-86.7,167-130c3.9-3,3.6-9.6,0.8-13.1c-3.3-4.2-8.2-4.6-12.9-2.6c-29.1,12.6-56,29.3-82.4,46.6
	c-27.9,18.3-55.8,36.7-83.6,55.1c4,5.2,8.1,10.5,12.1,15.7c24.8-26.4,51.8-50.7,80.8-72.3c4.3-3.2,6.5-8.6,3.6-13.7
	c-2.6-4.5-9.1-6.5-13.7-3.6c-25.5,16.3-49.9,34-73.5,52.9c-4.2,3.4-3.5,10.6,0,14.1C31.8,253.9,37.6,253.1,41.8,249.7L41.8,249.7z"
	/>
<path class="st1" d="M138.9,49c0,0-39.3,28.7-24.3,64.7c13.1,31.5,3.3,57.5-26.3,57.5s-30-17.5-30-17.5s-33,8.2-33-20.7
	s31-33.5,31-57s23.3-72.3,91-72.3c62.3,0,85.3,47.5,85.3,69s27,21.8,27,48.3s-18.8,38.3-31.2,38.3c-12.5,0-14.8-4.7-14.8-4.7
	s-1.3,19.7-28,19.7S148.9,152,148.9,152"/>
<path class="st2" d="M254.5,410.3L254.5,410.3L91.6,307.6l-45,73.4l-19.5,31.8l0,0l-9.6,15.7c-1.4,2.3-0.7,5.2,1.5,6.7
	c2.2,1.4,5,0.8,6.4-1.3l0,0l-2.7,4.5c-1.4,2.3-0.7,5.2,1.5,6.7c2.2,1.4,5,0.8,6.4-1.3l0,0l-1.1,1.8c-1.4,2.3-0.7,5.2,1.5,6.7
	c2.2,1.4,5,0.8,6.4-1.3l0,0l5-8.2l0,0l-6,9.8c-1.4,2.3-0.7,5.2,1.5,6.7c2.2,1.4,5,0.8,6.4-1.3l0,0l6.1-10l0,0l-6,10
	c-1.4,2.3-0.7,5.2,1.5,6.7c2.2,1.4,5,0.8,6.4-1.3l0,0l6.4-10.5l0,0L87,406.7l120.6,75.9c20,12.6,46.2,6.4,58.7-13.9
	C278.4,448.9,273,423.3,254.5,410.3z"/>
<path class="st2" d="M247.3,296v-0.1l-58.7-120.1c-5.6-11.5-19.5-16.4-31.1-10.8c-11.2,5.4-16.1,18.7-11.3,30l59.3,121.2l85.5,54.5
	h41.9v-20.1L247.3,296z"/>
<g>
	<path class="st3" d="M259.6,407.5L259.6,407.5L259.6,407.5L259.6,407.5z"/>
	<path class="st2" d="M167.9,178.7c4,0,7.3-0.7,10.2-1.8c-6.1-11.2-11.2-20.3-11.2-23.2c0-7.5,0-16.7,0-16.7c14,0,46-15.7,46-49.3
		c0-33.7-17-49-17-49L87.6,65.5v23.9c0,15.3,20,32.2,20,47.7c0,6.8-7.5,15.6-15.8,26.2c5-2.7,10.7-4.5,17.1-4.5
		C135.7,158.7,136.2,178.7,167.9,178.7z"/>
	<path class="st2" d="M300.4,358.9L300.4,358.9l-28.7-18.5l-84.6,117.7l26.8,17.1c19,12.1,44.3,6.5,56.4-12.5
		c5.8-9.2,7.6-19.8,5.7-29.7c13.7,0.2,27.2-6.5,35.2-18.9C322.9,395.7,318,371.5,300.4,358.9z"/>
	<path class="st4" d="M216.2,304.7c0,0-10.3-6.8-10.3-12.5c0-15.2-12-24-12-37s6-7.9,6-26.9c0-11.6-12.3-34-21.8-51.4
		c-2.8,1.1-6.2,1.8-10.2,1.8c-31.8,0-32.3-20-59-20c-6.4,0-12.2,1.8-17.1,4.5c-10.6,13.4-22.5,29.6-22.5,48.1
		c0,33.2,2.7,25.6,2.7,50.8s-14.7,37.2-14.7,74c0,36.3,54.7,74,54.7,74V410l75.2,47.9l84.6-117.7L216.2,304.7z"/>
</g>
<path class="st1" d="M198.2,31.7c0,0-6.5,34.7-29.9,34.7c-15.3,0-17.1-6-17.1-6s-12.7,14-30.7,14s-21-5.8-21-5.8l42.8-33.8
	L198.2,31.7z"/>
<g>
	<g>
		<path class="st1" d="M147.2,3.7c-67.7,0-91,48.8-91,72.3s-31,28.2-31,57s33,20.7,33,20.7s0.3,17.5,30,17.5s39.5-26,26.3-57.5
			c-15-36,24.3-64.7,24.3-64.7l1.2,12.7l34.1-43.1C166.2,16.6,157.2,3.7,147.2,3.7z"/>
	</g>
</g>
<path class="st2" d="M228.3,334l-85.5-54.5v-0.1l-11.2-87.2c-1.3-12.8-12.6-22.1-25.4-20.9c-12.4,1.2-21.6,11.9-21,24.2l15.7,104.3
	l85.5,54.5v15.4v0V393c0,2.9,2.3,5.2,5.2,5.2c2.6,0.1,4.7-1.6,5.2-4v4.1c0,2.9,2.3,5.2,5.2,5.2c2.9-0.1,5.2-2.3,5.3-5v-28.8h0.1
	v33.8c0,2.9,2.3,5.2,5.2,5.2c2.8,0.1,5.1-2.1,5.3-4.9v-5.5c0,2.9,2.3,5.2,5.2,5.2c2.8-0.1,5.1-2.3,5.3-5v-28.8L228.3,334z"/>
<path class="st2" d="M364.1,350.6L364.1,350.6h-31.2v10.5h30.9c2.9,0,5.2-2.3,5.2-5.2C369,353.1,366.8,350.8,364.1,350.6z"/>
<path class="st2" d="M367,355.9L367,355.9h-34.1v10.5h33.8c2.9,0,5.2-2.3,5.2-5.2C371.9,358.3,369.7,356,367,355.9z"/>
<path class="st2" d="M342.3,360.2L342.3,360.2h-23.8v10.5H342c2.9,0,5.2-2.3,5.2-5.2C347.3,362.7,345.1,360.4,342.3,360.2z"/>
<g>
	<g>
		<path class="st1" d="M196.8,95c-5.2,0-9.6-3.5-10.8-8.5c-0.2-0.8,0.3-1.6,1.1-1.8c0.8-0.2,1.6,0.3,1.8,1.1
			c0.9,3.7,4.1,6.2,7.8,6.2c3.8,0,7-2.6,7.8-6.2c0.2-0.8,1-1.3,1.8-1.1c0.8,0.2,1.3,1,1.1,1.8C206.4,91.5,201.9,95,196.8,95z"/>
	</g>
	<path class="st1" d="M209,92.4c-0.3,0-0.6-0.1-0.8-0.2l-3.4-2.2c-0.7-0.4-0.9-1.4-0.5-2.1s1.4-0.9,2.1-0.5l3.4,2.2
		c0.7,0.4,0.9,1.4,0.5,2.1C210,92.2,209.5,92.4,209,92.4z"/>
	<path class="st1" d="M205.6,96.1c-0.3,0-0.6-0.1-0.8-0.2l-3.4-2.2c-0.7-0.4-0.9-1.4-0.5-2.1s1.4-0.9,2.1-0.5l3.4,2.2
		c0.7,0.4,0.9,1.4,0.5,2.1C206.6,95.8,206.1,96.1,205.6,96.1z"/>
</g>
<g>
	<g>
		<path class="st1" d="M146,94.5c-5.2,0-9.6-3.5-10.8-8.5c-0.2-0.8,0.3-1.6,1.1-1.8c0.8-0.2,1.6,0.3,1.8,1.1
			c0.9,3.7,4.1,6.2,7.8,6.2c3.8,0,7-2.6,7.8-6.2c0.2-0.8,1-1.3,1.8-1.1c0.8,0.2,1.3,1,1.1,1.8C155.6,91,151.2,94.5,146,94.5z"/>
	</g>
	<path class="st1" d="M133.8,91.9c-0.5,0-1-0.2-1.3-0.7c-0.4-0.7-0.2-1.6,0.5-2.1l3.4-2.2c0.7-0.4,1.6-0.2,2.1,0.5
		c0.4,0.7,0.2,1.6-0.5,2.1l-3.4,2.2C134.3,91.8,134.1,91.9,133.8,91.9z"/>
	<path class="st1" d="M137.2,95.5c-0.5,0-1-0.2-1.3-0.7c-0.4-0.7-0.2-1.6,0.5-2.1l3.4-2.2c0.7-0.4,1.6-0.2,2.1,0.5
		c0.4,0.7,0.2,1.6-0.5,2.1l-3.4,2.2C137.7,95.5,137.5,95.5,137.2,95.5z"/>
</g>
<g>
	<path class="st4" d="M169.9,86.4v18.9c0,0,6.5-1.3,11-5.8L169.9,86.4z"/>
	<path class="st5" d="M169.9,106.8c-0.3,0-0.7-0.1-1-0.3c-0.3-0.3-0.5-0.7-0.5-1.2V86.4c0-0.6,0.4-1.2,1-1.4c0.6-0.2,1.3,0,1.7,0.4
		l11,13.1c0.5,0.6,0.5,1.5-0.1,2c-4.8,4.8-11.5,6.1-11.7,6.2C170.1,106.7,170,106.8,169.9,106.8z M171.4,90.5v12.8
		c1.9-0.6,4.9-1.8,7.4-4L171.4,90.5z"/>
</g>
<path class="st5" d="M172,122.3c-6.1,0-11.3-4.1-12.7-10.1c-0.2-0.8,0.3-1.6,1.1-1.8c0.8-0.2,1.6,0.3,1.8,1.1
	c1.1,4.6,5.1,7.8,9.8,7.8s8.7-3.2,9.8-7.8c0.2-0.8,1-1.3,1.8-1.1c0.8,0.2,1.3,1,1.1,1.8C183.3,118.2,178.1,122.3,172,122.3z"/>
<path class="st1" d="M205.4,69.9c-0.6,0-1.1-0.3-1.4-0.9c-1.3-2.8-4.2-4.7-7.3-4.7s-6,1.8-7.3,4.7c-0.3,0.8-1.2,1.1-2,0.7
	s-1.1-1.2-0.7-2c1.8-3.9,5.7-6.4,10-6.4s8.2,2.5,10,6.4c0.3,0.8,0,1.6-0.7,2C205.9,69.8,205.6,69.9,205.4,69.9z"/>
<circle class="st4" cx="140.6" cy="110.5" r="13.3"/>
<g>
	<g>
		<g>
			<path class="st4" d="M211.6,101.1c-2.4-2.4-5.7-3.9-9.4-3.9c-7.3,0-13.3,5.9-13.3,13.3c0,5.8,3.8,10.8,9,12.5
				C203.9,117.4,209,110.1,211.6,101.1z"/>
		</g>
	</g>
</g>
<circle class="st4" cx="118.2" cy="288.8" r="15.8"/>
<path class="st6" d="M190.4,353.8c-0.3,0-0.6-0.1-0.8-0.2L104.1,299c-0.4-0.2-0.6-0.6-0.7-1L87.7,193.8c-0.1-0.8,0.4-1.6,1.3-1.7
	c0.8-0.1,1.6,0.4,1.7,1.3l15.6,103.5l85,54.2c0.7,0.4,0.9,1.4,0.5,2.1C191.4,353.5,190.9,353.8,190.4,353.8z"/>
<path d="M315.1,413.7c-0.3,0-0.6-0.1-0.8-0.2c-0.7-0.4-0.9-1.4-0.5-2.1c11.3-17.7,6.7-41.1-10.3-53.2c-0.7-0.5-0.8-1.4-0.4-2.1
	c0.5-0.7,1.4-0.8,2.1-0.4c18.4,13.1,23.3,38.2,11.1,57.3C316.1,413.4,315.6,413.7,315.1,413.7z"/>
<path d="M280.7,432.6c-0.2,0-0.5,0-0.7,0c-0.8,0-1.5-0.7-1.5-1.5s0.7-1.5,1.5-1.5l0,0c0.2,0,0.5,0,0.7,0c13.5,0,25.9-6.8,33.2-18.2
	c0.4-0.7,1.4-0.9,2.1-0.5s0.9,1.4,0.5,2.1C308.6,425.3,295.2,432.6,280.7,432.6z"/>
<path class="st6" d="M273.1,462.5c-0.3,0-0.6-0.1-0.8-0.2c-0.7-0.4-0.9-1.4-0.5-2.1c11.3-17.7,6.7-41.1-10.3-53.2
	c-0.1-0.1-0.2-0.1-0.2-0.2l-21.2-13.6c-0.7-0.4-0.9-1.4-0.5-2.1s1.4-0.9,2.1-0.5l21.5,13.9c0.1,0.1,0.3,0.2,0.4,0.3
	c18.1,13.1,22.9,38.1,10.8,57C274.1,462.3,273.6,462.5,273.1,462.5z"/>
<path class="st6" d="M196.9,392.1c-0.8,0-1.5-0.7-1.5-1.5v-0.1V367c0-0.8,0.7-1.5,1.5-1.5s1.5,0.7,1.5,1.5v23.6
	C198.4,391.4,197.7,392.1,196.9,392.1z"/>
<path class="st6" d="M207.4,397.3c-0.8,0-1.5-0.7-1.5-1.5v-0.1V367c0-0.8,0.7-1.5,1.5-1.5s1.5,0.7,1.5,1.5v28.8
	C208.9,396.6,208.2,397.3,207.4,397.3z"/>
<path class="st6" d="M196.9,397c-0.8,0-1.5-0.7-1.5-1.5V367c0-0.8,0.7-1.5,1.5-1.5s1.5,0.7,1.5,1.5v28.6
	C198.4,396.4,197.7,397,196.9,397z"/>
<path class="st6" d="M217.9,402.5c-0.1,0-0.2,0-0.2,0c-0.8-0.1-1.3-0.8-1.3-1.6v-34c0-0.8,0.7-1.5,1.5-1.5s1.5,0.7,1.5,1.5V401
	c0,0.4-0.2,0.9-0.5,1.1C218.6,402.4,218.2,402.5,217.9,402.5z"/>
<path class="st6" d="M207.4,402.3c-0.8,0-1.5-0.7-1.5-1.5V367c0-0.8,0.7-1.5,1.5-1.5s1.5,0.7,1.5,1.5v33.8
	C208.9,401.6,208.2,402.3,207.4,402.3z"/>
<path class="st6" d="M217.9,397c-0.8,0-1.5-0.7-1.5-1.5V367c0-0.8,0.7-1.5,1.5-1.5s1.5,0.7,1.5,1.5v28.6
	C219.4,396.4,218.7,397,217.9,397z"/>
<path class="st6" d="M367,357.4h-0.1h-34c-0.8,0-1.5-0.7-1.5-1.5s0.7-1.5,1.5-1.5H367c0.8,0,1.5,0.7,1.5,1.5S367.8,357.4,367,357.4z
	"/>
<path class="st6" d="M37.3,452.7c-0.3,0-0.5-0.1-0.8-0.2c-0.7-0.4-0.9-1.4-0.5-2.1l0.1-0.2l0,0c0-0.1,0.1-0.1,0.1-0.1l6.1-9.9
	c0.4-0.7,1.4-0.9,2.1-0.5c0.7,0.4,0.9,1.4,0.5,2.1L38.5,452C38.3,452.5,37.8,452.7,37.3,452.7z"/>
<path class="st6" d="M44.3,459.6c-0.3,0-0.5-0.1-0.8-0.2c-0.7-0.4-0.9-1.4-0.5-2.1l0.9-1.5c0-0.1,0.1-0.1,0.1-0.2l5-8.1
	c0.4-0.7,1.4-0.9,2.1-0.5c0.7,0.4,0.9,1.4,0.5,2.1l0,0l-5,8.2l0,0l-1,1.6C45.2,459.3,44.8,459.6,44.3,459.6z"/>
<path class="st6" d="M30.6,445.4c-0.3,0-0.5-0.1-0.8-0.2c-0.7-0.4-0.9-1.4-0.5-2.1l0.9-1.5c0,0,0,0,0-0.1c0,0,0-0.1,0.1-0.1l5-8.1
	c0.4-0.7,1.4-0.9,2.1-0.5c0.7,0.4,0.9,1.4,0.5,2.1l-6,9.8C31.6,445.2,31.1,445.4,30.6,445.4z"/>
<path class="st6" d="M25.4,435.6c-0.3,0-0.5-0.1-0.8-0.2c-0.7-0.4-0.9-1.4-0.5-2.1l0.9-1.5l0,0c0-0.1,0.1-0.1,0.1-0.1l5-8.1
	c0.4-0.7,1.4-0.9,2.1-0.5s0.9,1.4,0.5,2.1l-6,9.8C26.4,435.4,25.9,435.6,25.4,435.6z"/>
<path d="M61.2,335.1c-0.8,0-1.5-0.7-1.5-1.5c0-20.4,4.5-33.4,8.4-44.8c3.3-9.6,6.2-18,6.2-29.2c0-0.8,0.7-1.5,1.5-1.5
	s1.5,0.7,1.5,1.5c0,11.7-3.1,20.7-6.4,30.1c-3.9,11.2-8.3,24-8.3,43.9C62.7,334.5,62.1,335.1,61.2,335.1z"/>
<path d="M75.9,261.1c-0.8,0-1.5-0.7-1.5-1.5c0-11.7-0.6-16.3-1.2-21.2c-0.7-5.8-1.5-11.9-1.5-29.7c0-0.8,0.7-1.5,1.5-1.5
	s1.5,0.7,1.5,1.5c0,17.6,0.7,23.6,1.5,29.3c0.6,5,1.2,9.7,1.2,21.5C77.4,260.5,76.7,261.1,75.9,261.1z"/>
<path d="M73.2,210.3c-0.8,0-1.5-0.7-1.5-1.5c0-15.6,8.5-29.4,14.8-38.4c0.5-0.7,1.4-0.8,2.1-0.4c0.7,0.5,0.8,1.4,0.4,2.1
	c-6.1,8.7-14.3,21.9-14.3,36.7C74.7,209.6,74.1,210.3,73.2,210.3z"/>
<path d="M232.3,487.5c-7.1,0-14.2-1.7-20.7-5.3l-110-69.3c-0.7-0.4-0.9-1.4-0.5-2.1s1.4-0.9,2.1-0.5l109.9,69.2
	c18.9,10.6,43.8,3.6,55.5-15.4c0.4-0.7,1.4-0.9,2.1-0.5s0.9,1.4,0.5,2.1C262.6,479.6,247.5,487.5,232.3,487.5z"/>
<path d="M24.8,422.8c-0.3,0-0.5-0.1-0.8-0.2c-0.7-0.4-0.9-1.4-0.5-2.1l40.6-66.3c0.4-0.7,1.4-0.9,2.1-0.5s0.9,1.4,0.5,2.1L26,422.1
	C25.8,422.6,25.3,422.8,24.8,422.8z"/>
<g>
	<path d="M52.4,154.3c-5.4,0-12-1-17.1-5s-7.6-10.1-7.6-18.3c0-15.8,9.1-24.8,17.1-32.7C52,91.2,58.7,84.6,58.7,74
		c0-11.2,5.4-29.9,20.5-46c12-12.7,34.2-27.8,72-27.8c0.8,0,1.5,0.7,1.5,1.5s-0.7,1.5-1.5,1.5c-67,0-89.5,48.6-89.5,70.8
		c0,11.8-7.2,18.9-14.8,26.4c-8,7.9-16.2,16.1-16.2,30.6c0,7.2,2.2,12.6,6.5,15.9c9,7,24.5,3.3,24.7,3.3c0.8-0.2,1.6,0.3,1.8,1.1
		s-0.3,1.6-1.1,1.8C62.3,153.3,57.9,154.3,52.4,154.3z"/>
</g>
<path d="M125.1,73.3c-1.3,0-2.5,0-3.6-0.1c-0.8,0-1.5-0.7-1.4-1.6c0-0.8,0.7-1.5,1.6-1.4c1.1,0.1,2.3,0.1,3.5,0.1
	c17.1,0,29.4-13.4,29.6-13.5c0.4-0.4,0.9-0.6,1.4-0.5s1,0.5,1.1,1c0,0,1.9,4.9,15.6,4.9c14.2,0,23.9-20.2,26.5-26.4
	c0.3-0.8,1.2-1.1,2-0.8s1.1,1.2,0.8,2c-2.8,6.6-13.2,28.2-29.3,28.2c-11,0-15.5-3-17.3-5.1C151.7,63.9,140.3,73.3,125.1,73.3z"/>
<path class="st7" d="M117.5,73.7"/>
<path d="M171.4,136c-0.8,0-1.5-0.7-1.5-1.5s0.7-1.5,1.5-1.5c6.4,0,17.6-3.7,27.3-11.7c7.9-6.5,17.2-18.1,17.2-36.1
	c0-30-13.5-44.9-16.2-47.6c-0.6-0.6-0.6-1.5,0-2.1s1.5-0.6,2.1,0c2.9,2.8,17.1,18.5,17.1,49.7C218.9,120.9,185,136,171.4,136z"/>
<path d="M182.6,175.9c-0.5,0-1-0.3-1.3-0.8l-0.2-0.4c-7.1-12.9-11.1-20.4-11.1-23.5v-16.7c0-0.8,0.7-1.5,1.5-1.5s1.5,0.7,1.5,1.5
	v16.7c0,2.5,5.2,12,10.8,22.1l0.2,0.4c0.4,0.7,0.1,1.6-0.6,2C183.1,175.8,182.8,175.9,182.6,175.9z"/>
<path class="st5" d="M275.7,339.9c-0.3,0-0.6-0.1-0.8-0.2L219.4,304c-1.1-0.8-11-7.5-11-13.8c0-7.5-3.1-13.5-6.2-19.3
	c-2.9-5.5-5.8-11.1-5.8-17.7c0-6.3,1.3-8.7,2.8-11.2c1.6-2.8,3.2-5.7,3.2-15.7c0-6-3.5-15.9-10.8-30.2c-0.4-0.7-0.1-1.6,0.7-2
	c0.7-0.4,1.6-0.1,2,0.7c7.6,15,11.1,25.1,11.1,31.6c0,10.8-1.9,14.2-3.6,17.2c-1.3,2.3-2.4,4.2-2.4,9.7c0,5.9,2.7,11,5.5,16.3
	c3.2,6.1,6.5,12.4,6.5,20.7c0,3.5,5.9,8.8,9.7,11.2l55.5,35.7c0.7,0.4,0.9,1.4,0.5,2.1C276.7,339.7,276.2,339.9,275.7,339.9z"/>
<path d="M188.6,173.9c-0.8,0-1.5,0-2.2-0.1c-0.8,0-1.5-0.7-1.4-1.6c0-0.8,0.7-1.5,1.6-1.4c0.7,0,1.4,0,2.1,0
	c24.9,0,26.4-17.5,26.5-18.3c0-0.7,0.5-1.2,1.2-1.4c0.7-0.1,1.3,0.2,1.6,0.8c0,0,2.3,3.8,13.4,3.8c12,0,29.7-11.7,29.7-36.8
	c0-13.3-7.1-19.7-14.1-25.9c-5.1-4.6-10.4-9.3-12.2-16.6c-0.2-0.8,0.3-1.6,1.1-1.8c0.8-0.2,1.6,0.3,1.8,1.1
	c1.6,6.4,6.3,10.6,11.3,15.1c7.1,6.3,15.1,13.5,15.1,28.1c0,27.2-19.5,39.8-32.7,39.8c-7.6,0-11.7-1.7-13.9-3.2
	C215.9,161.5,210,173.9,188.6,173.9z"/>
<path class="st0" d="M102.8,98.4c-0.4,9.6,1.7,18.9,6.2,27.4c0.9,1.7,3.5,0.2,2.6-1.5c-4.3-8.1-6.2-16.7-5.8-25.9
	C105.9,96.5,102.9,96.5,102.8,98.4L102.8,98.4z"/>
<path class="st0" d="M97.6,101.7c-0.6,8.8,1.2,17.2,5,25.1c0.8,1.7,3.4,0.2,2.6-1.5c-3.6-7.4-5.1-15.3-4.6-23.6
	C100.7,99.8,97.7,99.8,97.6,101.7L97.6,101.7z"/>
<path class="st0" d="M171.4,41c-2.6,4.4-5.9,8.2-9.8,11.4c-1.5,1.2,0.6,3.3,2.1,2.1c4.2-3.3,7.6-7.4,10.3-12
	C175,40.9,172.4,39.4,171.4,41L171.4,41z"/>
<path class="st0" d="M174.5,45c-1.8,4.3-4.9,7.8-8.8,10.2c-1.6,1-0.1,3.6,1.5,2.6c4.7-2.8,8.1-6.9,10.2-12
	C178.1,44,175.2,43.2,174.5,45L174.5,45z"/>
<path class="st5" d="M220.5,475c-0.3,0-0.6-0.1-0.8-0.2l-104.6-66.7c-0.7-0.4-0.9-1.4-0.5-2.1s1.4-0.9,2.1-0.5l104.6,66.7
	c0.7,0.4,0.9,1.4,0.5,2.1C221.4,474.7,221,475,220.5,475z"/>
<path class="st5" d="M115.9,408.4c-0.3,0-0.6-0.1-0.9-0.3c-1.7-1.2-42.4-29.6-52.9-61.2c-0.3-0.8,0.2-1.6,1-1.9s1.6,0.2,1.9,1
	c10.2,30.7,51.3,59.4,51.7,59.7c0.7,0.5,0.9,1.4,0.4,2.1C116.9,408.1,116.4,408.4,115.9,408.4z"/>
</svg>
