<?xml version="1.0" encoding="utf-8"?>
<!-- Generator: Adobe Illustrator 20.1.0, SVG Export Plug-In . SVG Version: 6.00 Build 0)  -->
<svg version="1.1" id="Layer_1" xmlns="http://www.w3.org/2000/svg" xmlns:xlink="http://www.w3.org/1999/xlink" x="0px" y="0px"
	 viewBox="0 0 341 75" style="enable-background:new 0 0 341 75;" xml:space="preserve">
<style type="text/css">
	.st0{fill:#FFF0D5;}
	.st1{fill:none;stroke:#000000;stroke-width:2;stroke-miterlimit:10;}
</style>
<path class="st0" d="M46.6,64.5c0.7,2.7-0.8,5.4-3.4,6.1c-2.7,0.7-5.4-0.8-6.1-3.4c0,0-1.2-4.5-3-10.9H16.3c-1.8,6.4-3,10.9-3,10.9
	c-0.7,2.6-3.4,4.2-6.1,3.4c-2.6-0.7-4.2-3.4-3.4-6.1L20.4,4.2c0.5-2.2,2.5-3.6,4.8-3.6s4.3,1.5,4.8,3.6L46.6,64.5z M31.2,46.3
	c-2-7.2-4.2-15.2-6-21.9c-1.9,6.8-4.1,14.8-6,21.9H31.2z"/>
<path class="st0" d="M78.6,39.7l9,24.3c1,2.6-0.3,5.5-2.9,6.4c-2.6,0.9-5.4-0.3-6.4-2.9l-9.7-25.9H63v24.1c0,2.8-2.2,5-5,5
	c-2.7,0-5-2.2-5-5V5.9c0-2.7,2.3-5,5-5h12.5C80.2,1,88,8.8,88,18.4v5.8C88,31,84.2,36.8,78.6,39.7z M63,31.7h7.5
	c4.2,0,7.5-3.3,7.5-7.5v-5.8c0-4.2-3.3-7.5-7.5-7.5H63V31.7z"/>
<path class="st0" d="M125.9,34.6c3.2,3.2,5.3,7.6,5.3,12.5V53c0,9.7-7.9,17.5-17.5,17.5h-12.5c-2.8,0-5-2.2-5-5V5.9c0-2.7,2.2-5,5-5
	h12.5c9.6,0,17.5,7.8,17.5,17.5v3.7C131.2,27.1,129.1,31.5,125.9,34.6z M113.8,29.7c4.2,0,7.5-3.3,7.5-7.5v-3.7
	c0-4.2-3.3-7.5-7.5-7.5h-7.5v18.7H113.8z M113.8,39.6h-7.5v20.8h7.5c4.2,0,7.5-3.3,7.5-7.5v-5.8C121.2,43,117.9,39.6,113.8,39.6z"/>
<path class="st0" d="M139.5,53.4V18c0-9.7,7.8-17.5,17.5-17.5s17.5,7.8,17.5,17.5v35.4c0,9.7-7.8,17.5-17.5,17.5
	S139.5,63,139.5,53.4z M149.5,18v35.4c0,4.2,3.3,7.5,7.5,7.5s7.5-3.3,7.5-7.5V18c0-4.2-3.3-7.5-7.5-7.5S149.5,13.8,149.5,18z"/>
<path class="st0" d="M184.1,65.4V5.5c0-2.7,2.2-5,5-5c2.7,0,5,2.3,5,5v54.9h15.8c2.7,0,5,2.3,5,5c0,2.8-2.3,5-5,5H189
	C186.2,70.4,184.1,68.2,184.1,65.4z"/>
<path class="st0" d="M225.2,1H246c2.8,0,5,2.3,5,5c0,2.8-2.2,5-5,5h-15.8v18.7H244c2.8,0,5,2.3,5,5c0,2.8-2.2,5-5,5h-13.7v20.8H246
	c2.8,0,5,2.3,5,5c0,2.8-2.2,5-5,5h-20.8c-2.7,0-5-2.2-5-5V5.9C220.2,3.2,222.5,1,225.2,1z"/>
<path class="st0" d="M276,1c9.7,0,17.5,7.8,17.5,17.5V53c0,9.7-7.8,17.5-17.5,17.5h-12.5c-2.8,0-5-2.2-5-5V5.9c0-2.7,2.2-5,5-5H276z
	 M276,10.9h-7.5v49.5h7.5c4.2,0,7.5-3.3,7.5-7.5V18.4C283.5,14.3,280.2,10.9,276,10.9z"/>
<path class="st0" d="M340.5,64.5c0.7,2.7-0.8,5.4-3.4,6.1c-2.7,0.7-5.4-0.8-6.1-3.4c0,0-1.2-4.5-3-10.9h-17.7
	c-1.8,6.4-3,10.9-3,10.9c-0.7,2.6-3.4,4.2-6.1,3.4c-2.6-0.7-4.2-3.4-3.4-6.1l16.6-60.3c0.5-2.2,2.5-3.6,4.8-3.6s4.3,1.5,4.8,3.6
	L340.5,64.5z M325.1,46.3c-2-7.2-4.2-15.2-6-21.9c-1.9,6.8-4.1,14.8-6,21.9H325.1z"/>
<path class="st1" d="M44.6,67.5c0.7,2.7-0.8,5.4-3.4,6.1c-2.7,0.7-5.4-0.8-6.1-3.4c0,0-1.2-4.5-3-10.9H14.3c-1.8,6.4-3,10.9-3,10.9
	c-0.7,2.6-3.4,4.2-6.1,3.4c-2.6-0.7-4.2-3.4-3.4-6.1L18.4,7.2c0.5-2.2,2.5-3.6,4.8-3.6s4.3,1.5,4.8,3.6L44.6,67.5z M29.2,49.3
	c-2-7.2-4.2-15.2-6-21.9c-1.9,6.8-4.1,14.8-6,21.9H29.2z"/>
<path class="st1" d="M76.6,42.7l9,24.3c1,2.6-0.3,5.5-2.9,6.4c-2.6,0.9-5.4-0.3-6.4-2.9l-9.7-25.9H61v24.1c0,2.8-2.2,5-5,5
	c-2.7,0-5-2.2-5-5V8.9c0-2.7,2.3-5,5-5h12.5C78.2,4,86,11.8,86,21.4v5.8C86,34,82.2,39.8,76.6,42.7z M61,34.7h7.5
	c4.2,0,7.5-3.3,7.5-7.5v-5.8c0-4.2-3.3-7.5-7.5-7.5H61V34.7z"/>
<path class="st1" d="M123.9,37.6c3.2,3.2,5.3,7.6,5.3,12.5V56c0,9.7-7.9,17.5-17.5,17.5H99.3c-2.8,0-5-2.2-5-5V8.9c0-2.7,2.2-5,5-5
	h12.5c9.6,0,17.5,7.8,17.5,17.5v3.7C129.2,30.1,127.1,34.5,123.9,37.6z M111.8,32.7c4.2,0,7.5-3.3,7.5-7.5v-3.7
	c0-4.2-3.3-7.5-7.5-7.5h-7.5v18.7H111.8z M111.8,42.6h-7.5v20.8h7.5c4.2,0,7.5-3.3,7.5-7.5v-5.8C119.2,46,115.9,42.6,111.8,42.6z"/>
<path class="st1" d="M137.5,56.4V21c0-9.7,7.8-17.5,17.5-17.5s17.5,7.8,17.5,17.5v35.4c0,9.7-7.8,17.5-17.5,17.5
	S137.5,66,137.5,56.4z M147.5,21v35.4c0,4.2,3.3,7.5,7.5,7.5s7.5-3.3,7.5-7.5V21c0-4.2-3.3-7.5-7.5-7.5S147.5,16.8,147.5,21z"/>
<path class="st1" d="M182.1,68.4V8.5c0-2.7,2.2-5,5-5c2.7,0,5,2.3,5,5v54.9h15.8c2.7,0,5,2.3,5,5c0,2.8-2.3,5-5,5H187
	C184.2,73.4,182.1,71.2,182.1,68.4z"/>
<path class="st1" d="M223.2,4H244c2.8,0,5,2.3,5,5c0,2.8-2.2,5-5,5h-15.8v18.7H242c2.8,0,5,2.3,5,5c0,2.8-2.2,5-5,5h-13.7v20.8H244
	c2.8,0,5,2.3,5,5c0,2.8-2.2,5-5,5h-20.8c-2.7,0-5-2.2-5-5V8.9C218.2,6.2,220.5,4,223.2,4z"/>
<path class="st1" d="M274,4c9.7,0,17.5,7.8,17.5,17.5V56c0,9.7-7.8,17.5-17.5,17.5h-12.5c-2.8,0-5-2.2-5-5V8.9c0-2.7,2.2-5,5-5H274z
	 M274,13.9h-7.5v49.5h7.5c4.2,0,7.5-3.3,7.5-7.5V21.4C281.5,17.3,278.2,13.9,274,13.9z"/>
<path class="st1" d="M338.5,67.5c0.7,2.7-0.8,5.4-3.4,6.1c-2.7,0.7-5.4-0.8-6.1-3.4c0,0-1.2-4.5-3-10.9h-17.7
	c-1.8,6.4-3,10.9-3,10.9c-0.7,2.6-3.4,4.2-6.1,3.4c-2.6-0.7-4.2-3.4-3.4-6.1l16.6-60.3c0.5-2.2,2.5-3.6,4.8-3.6s4.3,1.5,4.8,3.6
	L338.5,67.5z M323.1,49.3c-2-7.2-4.2-15.2-6-21.9c-1.9,6.8-4.1,14.8-6,21.9H323.1z"/>
</svg>
