<?xml version="1.0" encoding="utf-8"?>
<!-- Generator: Adobe Illustrator 20.1.0, SVG Export Plug-In . SVG Version: 6.00 Build 0)  -->
<svg version="1.1" id="Layer_1" xmlns="http://www.w3.org/2000/svg" xmlns:xlink="http://www.w3.org/1999/xlink" x="0px" y="0px"
	 viewBox="0 0 225 225" style="enable-background:new 0 0 225 225;" xml:space="preserve">
<style type="text/css">
	.st0{fill:#6BD6C4;}
	.st1{fill:#27A08C;}
	.st2{fill:#FDA6B0;}
	.st3{fill:#FA7D8C;}
	.st4{fill:#F23B51;}
</style>
<path class="st0" d="M48,97.4c27.9-23.7,57.1-45.6,87.7-65.7c-4-5.2-8.1-10.5-12.1-15.7C90.9,50.2,56.7,82.8,20.9,113.8
	c-8.7,7.6,2.5,21.2,12.1,15.7c48.1-27.4,91.4-62.4,138.7-91.1c-4-5.2-8.1-10.5-12.1-15.7C106.6,66.1,55.8,112.3,5.2,158.5
	c-8.3,7.5,2.7,22.2,12.1,15.7C79.2,132,135.7,81.9,200.9,44.4c-4-5.2-8.1-10.5-12.1-15.7c-56,46.2-109.5,95.2-160.3,147
	c-9.1,9.3,4.5,22.5,14.1,14.1C97.1,142.8,154.3,99.1,214.1,59c-3.4-5.8-6.7-11.5-10.1-17.3C148.6,83.6,97.5,130.7,46.6,178
	c-4,3.7-3.7,10.4,0,14.1c4.1,4.1,10,3.4,14.1,0c47-38.6,96.6-73.8,148.4-105.6c-4-5.2-8.1-10.5-12.1-15.7
	c-47.9,38.8-94.3,79.4-139.1,121.6c-9.4,8.9,4.6,22.7,14.1,14.1c39.6-35.6,82.4-67.4,127.9-95.1c-4.6-4.6-9.1-9.1-13.7-13.7
	c-6.6,8.9-16.3,16.1-24.4,23.6c-9.5,8.8-19.1,17.6-28.6,26.4c-18.9,17.4-37.7,34.8-56.6,52.1c-4,3.7-3.7,10.4,0,14.1
	c4.1,4.1,10,3.5,14.1,0c33.8-28.8,70-54.7,108-77.7c-4-5.2-8.1-10.5-12.1-15.7c-24.9,20.6-49.8,41.3-72.1,64.7
	c-8.9,9.3,5.2,23.5,14.1,14.1c22.3-23.4,47.2-44.1,72.1-64.7c8.8-7.3-2.5-21.5-12.1-15.7C149.3,143,111.8,170.1,76.7,200
	c4.7,4.7,9.4,9.4,14.1,14.1c19.3-17.8,38.7-35.7,58-53.5c9.5-8.8,19.1-17.6,28.6-26.4c9.1-8.4,18.7-16.3,26-26.3
	c6.1-8.3-5.6-18.6-13.7-13.7C143,122.7,98.8,155.7,58,192.4c4.7,4.7,9.4,9.4,14.1,14.1c44.8-42.2,91.2-82.8,139.1-121.6
	c8.9-7.2-2.6-21.6-12.1-15.7C145.8,101.9,94.9,138.3,46.6,178c4.7,4.7,9.4,9.4,14.1,14.1c49.6-46,99.3-92.3,153.4-133.1
	c4.3-3.3,6.5-8.6,3.6-13.7c-2.6-4.4-9.2-6.6-13.7-3.6c-61.2,41-119.8,85.8-175.5,134c4.7,4.7,9.4,9.4,14.1,14.1
	C93.4,138.1,146.9,89,202.9,42.9c8.9-7.4-2.5-21.2-12.1-15.7C125.6,64.6,69.1,114.8,7.2,157c4,5.2,8.1,10.5,12.1,15.7
	C70,126.5,120.7,80.3,173.8,36.8c8.9-7.3-2.6-21.5-12.1-15.7C114.4,49.9,71.1,84.8,23,112.3c4,5.2,8.1,10.5,12.1,15.7
	c35.7-31,70-63.6,102.6-97.8c7.6-7.9-2.3-22.2-12.1-15.7C93.6,35.5,63,58.5,33.9,83.3c-4.1,3.5-3.6,10.5,0,14.1
	C37.9,101.5,43.9,100.9,48,97.4L48,97.4z"/>
<rect x="194" y="44.8" transform="matrix(0.7071 -0.7071 0.7071 0.7071 20.2302 160.6513)" class="st1" width="20" height="22.2"/>
<g>
	<polygon class="st1" points="93,165.7 94.2,166.9 101.5,162.7 97.3,158.4 	"/>
	<polygon class="st2" points="113.5,130.8 97.3,158.4 101.5,162.7 129.1,146.5 	"/>
</g>
<polygon class="st3" points="189.1,55.1 113.5,130.8 113.8,135.7 118.7,136 119.1,140.9 123.9,141.2 124.3,146.1 129.1,146.5 
	204.8,70.8 "/>
<path class="st4" d="M137.6,143.5c-0.4,0-0.8-0.1-1.1-0.4c-0.6-0.6-0.6-1.5,0-2.1l84.3-84.3c0.6-0.6,1.5-0.6,2.1,0
	c0.6,0.6,0.6,1.5,0,2.1l-84.3,84.3C138.4,143.3,138,143.5,137.6,143.5z"/>
<path d="M98.5,168.7c-0.5,0-1-0.3-1.3-0.7c-0.4-0.7-0.2-1.6,0.5-2.1l27.6-16.2c0.7-0.4,1.6-0.2,2.1,0.5c0.4,0.7,0.2,1.6-0.5,2.1
	l-27.6,16.2C99,168.7,98.7,168.7,98.5,168.7z"/>
<path d="M204.2,69.7c-0.4,0-0.8-0.1-1.1-0.4l-12-12c-0.6-0.6-0.6-1.5,0-2.1s1.5-0.6,2.1,0l12,12c0.6,0.6,0.6,1.5,0,2.1
	C204.9,69.5,204.5,69.7,204.2,69.7z"/>
<path d="M199.9,73.9c-0.4,0-0.8-0.1-1.1-0.4l-12-12c-0.6-0.6-0.6-1.5,0-2.1c0.6-0.6,1.5-0.6,2.1,0l12,12c0.6,0.6,0.6,1.5,0,2.1
	C200.7,73.8,200.3,73.9,199.9,73.9z"/>
<path class="st1" d="M90,167.2H13.3c-0.8,0-1.5-0.7-1.5-1.5s0.7-1.5,1.5-1.5H90c0.8,0,1.5,0.7,1.5,1.5S90.8,167.2,90,167.2z"/>
</svg>
