<?xml version="1.0" encoding="utf-8"?>
<!-- Generator: Adobe Illustrator 20.1.0, SVG Export Plug-In . SVG Version: 6.00 Build 0)  -->
<svg version="1.1" id="Layer_1" xmlns="http://www.w3.org/2000/svg" xmlns:xlink="http://www.w3.org/1999/xlink" x="0px" y="0px"
	 viewBox="0 0 261 75" style="enable-background:new 0 0 261 75;" xml:space="preserve">
<style type="text/css">
	.st0{fill:#FFF0D5;}
	.st1{fill:none;stroke:#000000;stroke-width:2;stroke-miterlimit:10;}
</style>
<path class="st0" d="M23.8,68.6c-5.4,3-12.2,3-17.5,0c-2.4-1.5-3.2-4.5-1.9-6.9c1.4-2.4,4.5-3.2,6.9-1.9c2.3,1.4,5.1,1.4,7.5,0
	c2.3-1.2,3.7-3.7,3.7-6.4V5.5c0-2.7,2.2-5,5-5c2.7,0,5,2.3,5,5v47.8C32.5,59.6,29.1,65.4,23.8,68.6z"/>
<path class="st0" d="M41.7,53.4V18c0-9.7,7.8-17.5,17.5-17.5S76.6,8.3,76.6,18v35.4c0,9.7-7.8,17.5-17.5,17.5S41.7,63,41.7,53.4z
	 M51.7,18v35.4c0,4.2,3.3,7.5,7.5,7.5s7.5-3.3,7.5-7.5V18c0-4.2-3.3-7.5-7.5-7.5S51.7,13.8,51.7,18z"/>
<path class="st0" d="M123.7,64.5c0.7,2.7-0.8,5.4-3.4,6.1c-2.7,0.7-5.4-0.8-6.1-3.4c0,0-1.2-4.5-3-10.9H93.4c-1.8,6.4-3,10.9-3,10.9
	c-0.7,2.6-3.4,4.2-6.1,3.4c-2.6-0.7-4.2-3.4-3.4-6.1L97.4,4.2c0.5-2.2,2.5-3.6,4.8-3.6s4.3,1.5,4.8,3.6L123.7,64.5z M108.3,46.3
	c-2-7.2-4.2-15.2-6-21.9c-1.9,6.8-4.1,14.8-6,21.9H108.3z"/>
<path class="st0" d="M159.7,68c0,0-11-22.8-19.7-40.7c0,17.8,0,38.5,0,38.5c0,2.8-2.3,5-5,5c-2.8,0-5-2.2-5-5V5.5
	c0-2.3,1.6-4.4,3.8-4.9c2.3-0.5,4.6,0.6,5.6,2.7c0,0,11,22.8,19.7,40.7c0-17.8,0-38.5,0-38.5c0-2.7,2.2-5,5-5c2.7,0,5,2.3,5,5v60.3
	c0,2.3-1.7,4.4-3.8,4.9C163.1,71.3,160.7,70.1,159.7,68z"/>
<path class="st0" d="M209.7,68c0,0-11-22.8-19.7-40.7c0,17.8,0,38.5,0,38.5c0,2.8-2.3,5-5,5c-2.8,0-5-2.2-5-5V5.5
	c0-2.3,1.6-4.4,3.8-4.9c2.3-0.5,4.6,0.6,5.6,2.7c0,0,11,22.8,19.7,40.7c0-17.8,0-38.5,0-38.5c0-2.7,2.2-5,5-5c2.7,0,5,2.3,5,5v60.3
	c0,2.3-1.7,4.4-3.8,4.9C213,71.3,210.6,70.1,209.7,68z"/>
<path class="st0" d="M234.9,1h20.8c2.8,0,5,2.3,5,5c0,2.8-2.2,5-5,5h-15.8v18.7h13.7c2.8,0,5,2.3,5,5c0,2.8-2.2,5-5,5h-13.7v20.8
	h15.8c2.8,0,5,2.3,5,5c0,2.8-2.2,5-5,5h-20.8c-2.7,0-5-2.2-5-5V5.9C229.9,3.2,232.2,1,234.9,1z"/>
<path class="st1" d="M21.8,71.6c-5.4,3-12.2,3-17.5,0c-2.4-1.5-3.2-4.5-1.9-6.9c1.4-2.4,4.5-3.2,6.9-1.9c2.3,1.4,5.1,1.4,7.5,0
	c2.3-1.2,3.7-3.7,3.7-6.4V8.5c0-2.7,2.2-5,5-5c2.7,0,5,2.3,5,5v47.8C30.5,62.6,27.1,68.4,21.8,71.6z"/>
<path class="st1" d="M39.7,56.4V21c0-9.7,7.8-17.5,17.5-17.5S74.6,11.3,74.6,21v35.4c0,9.7-7.8,17.5-17.5,17.5S39.7,66,39.7,56.4z
	 M49.7,21v35.4c0,4.2,3.3,7.5,7.5,7.5s7.5-3.3,7.5-7.5V21c0-4.2-3.3-7.5-7.5-7.5S49.7,16.8,49.7,21z"/>
<path class="st1" d="M121.7,67.5c0.7,2.7-0.8,5.4-3.4,6.1c-2.7,0.7-5.4-0.8-6.1-3.4c0,0-1.2-4.5-3-10.9H91.4c-1.8,6.4-3,10.9-3,10.9
	c-0.7,2.6-3.4,4.2-6.1,3.4c-2.6-0.7-4.2-3.4-3.4-6.1L95.4,7.2c0.5-2.2,2.5-3.6,4.8-3.6s4.3,1.5,4.8,3.6L121.7,67.5z M106.3,49.3
	c-2-7.2-4.2-15.2-6-21.9c-1.9,6.8-4.1,14.8-6,21.9H106.3z"/>
<path class="st1" d="M157.7,71c0,0-11-22.8-19.7-40.7c0,17.8,0,38.5,0,38.5c0,2.8-2.3,5-5,5c-2.8,0-5-2.2-5-5V8.5
	c0-2.3,1.6-4.4,3.8-4.9c2.3-0.5,4.6,0.6,5.6,2.7c0,0,11,22.8,19.7,40.7c0-17.8,0-38.5,0-38.5c0-2.7,2.2-5,5-5c2.7,0,5,2.3,5,5v60.3
	c0,2.3-1.7,4.4-3.8,4.9C161.1,74.3,158.7,73.1,157.7,71z"/>
<path class="st1" d="M207.7,71c0,0-11-22.8-19.7-40.7c0,17.8,0,38.5,0,38.5c0,2.8-2.3,5-5,5c-2.8,0-5-2.2-5-5V8.5
	c0-2.3,1.6-4.4,3.8-4.9c2.3-0.5,4.6,0.6,5.6,2.7c0,0,11,22.8,19.7,40.7c0-17.8,0-38.5,0-38.5c0-2.7,2.2-5,5-5c2.7,0,5,2.3,5,5v60.3
	c0,2.3-1.7,4.4-3.8,4.9C211,74.3,208.6,73.1,207.7,71z"/>
<path class="st1" d="M232.9,4h20.8c2.8,0,5,2.3,5,5c0,2.8-2.2,5-5,5h-15.8v18.7h13.7c2.8,0,5,2.3,5,5c0,2.8-2.2,5-5,5h-13.7v20.8
	h15.8c2.8,0,5,2.3,5,5c0,2.8-2.2,5-5,5h-20.8c-2.7,0-5-2.2-5-5V8.9C227.9,6.2,230.2,4,232.9,4z"/>
</svg>
