<?xml version="1.0" encoding="utf-8"?>
<!-- Generator: Adobe Illustrator 20.1.0, SVG Export Plug-In . SVG Version: 6.00 Build 0)  -->
<svg version="1.1" id="Layer_1" xmlns="http://www.w3.org/2000/svg" xmlns:xlink="http://www.w3.org/1999/xlink" x="0px" y="0px"
	 viewBox="0 0 144.8 143.4" style="enable-background:new 0 0 144.8 143.4;" xml:space="preserve">
<style type="text/css">
	.st0{display:none;}
	.st1{display:inline;fill:#355677;}
	.st2{display:inline;}
	.st3{fill:#AA6B7D;}
	.st4{fill:#D1A4B6;}
	.st5{fill:#C6839A;}
	.st6{fill:none;}
	.st7{display:inline;fill:#AA6B7D;}
	.st8{fill:#99EADD;}
	.st9{fill:#27A08C;}
</style>
<g id="circle" class="st0">
	<circle class="st1" cx="71.7" cy="72.2" r="125"/>
</g>
<g id="home" class="st0">
	<g id="icon" class="st2">
		<g id="chimney">
			<rect x="102.1" y="9.6" class="st3" width="31.8" height="46.7"/>
		</g>
		<g id="base">
			<g>
				<polygon class="st4" points="132,136.8 11.3,136.8 11.3,50.7 70.8,6.8 132,50.7 				"/>
			</g>
		</g>
		<g id="lining">
			<path class="st3" d="M139.5,68V57.1c0,0-2.2-1.4-11.9-7.6v-0.3h-0.4c-20.7-13.2-52.8-33.6-53-33.8c-1.5-1-3.4-1-4.9,0l-53,33.8
				h-0.6v0.3l-12,7.6L3.8,68l15-9.5h105.7L139.5,68z M71.7,46.8c-4.8,0-8.8-3.9-8.8-8.8s3.9-8.8,8.8-8.8c4.8,0,8.8,3.9,8.8,8.8
				S76.5,46.8,71.7,46.8z M57.8,33.6c-0.4,1.4-0.7,2.9-0.7,4.4c0,4.5,2.1,8.6,5.3,11.2H33.3L57.8,33.6z M80.8,49.3
				c3.3-2.7,5.3-6.7,5.3-11.2c0-1.5-0.2-3-0.7-4.4L110,49.3H80.8z"/>
		</g>
		<g id="roof">
			<g>
				<path class="st5" d="M142.6,44.5l-0.5-0.3L75.3,1.7l-0.1-0.1c-0.1-0.1-0.2-0.1-0.3-0.2c-0.1-0.1-0.2-0.1-0.3-0.1
					s-0.2-0.1-0.3-0.1c-0.1,0-0.2-0.1-0.4-0.1c-0.1,0-0.2-0.1-0.3-0.1c-0.1,0-0.3-0.1-0.4-0.1S73,0.9,73,0.8c-0.1,0-0.3-0.1-0.4-0.1
					s-0.2,0-0.3,0c-0.1,0-0.3,0-0.4,0s-0.2,0-0.3,0s-0.2,0-0.3,0c-0.1,0-0.3,0-0.4,0s-0.2,0-0.3,0c-0.1,0-0.3,0-0.4,0.1
					c-0.1,0-0.2,0-0.2,0.1c-0.1,0-0.3,0.1-0.4,0.1s-0.2,0.1-0.3,0.1c-0.1,0-0.2,0.1-0.4,0.1c-0.1,0-0.2,0.1-0.3,0.1
					c-0.1,0-0.2,0.1-0.3,0.1c-0.1,0.1-0.2,0.1-0.3,0.2l-0.1,0.1L1.2,44.1c0,0-0.2,0.1-0.5,0.3c-2.8,1.8-15.8,11.2-7.3,20.9
					c0.3-0.1,0.5-0.2,0.8-0.4l77.5-49.3L149.2,65c0.2,0.2,0.5,0.3,0.8,0.4C158.4,55.6,145.4,46.3,142.6,44.5z"/>
			</g>
		</g>
		<g id="door">
			<g class="st0">
				<g class="st2">
					<path class="st3" d="M48.2,143.6v-34.7c0-12.9,10.5-23.4,23.4-23.4S95,96,95,108.9v34.7H48.2z"/>
					<path class="st5" d="M71.7,89c11,0,19.9,8.9,19.9,19.9v31.2H51.7v-31.2C51.7,97.9,60.7,89,71.7,89 M71.7,82
						c-14.8,0-26.9,12.1-26.9,26.9v31.2v7h7h39.8h7v-7v-31.2C98.6,94.1,86.5,82,71.7,82L71.7,82z"/>
				</g>
			</g>
			<g>
				<path class="st3" d="M91.6,105.6c0-11-8.9-19.9-19.9-19.9s-19.9,8.9-19.9,19.9v31.2h39.8V105.6z"/>
				<path class="st5" d="M71.7,77.6c-15.4,0-28,12.5-28,28v31.2h8v-31.2c0-11,8.9-19.9,19.9-19.9s19.9,8.9,19.9,19.9v31.2h8v-31.2
					C99.6,90.2,87.1,77.6,71.7,77.6z"/>
			</g>
		</g>
		<g id="windows">
		</g>
	</g>
	<g id="lines" class="st2">
	</g>
</g>
<g id="works" class="st0">
	<g id="icon_1_" class="st2">
		<g id="contents">
			<rect x="29.7" y="24.3" class="st3" width="84" height="95.8"/>
			<g id="flower_1_">
				<g id="stem">
					<rect x="69.2" y="70" class="st5" width="5" height="30.5"/>
					<path class="st5" d="M77.9,87.7c-7.7,5.2-7.1,11.9-7.1,11.9s6,3.1,13.7-2.1c7.7-5.2,10-13.8,10-13.8S85.6,82.5,77.9,87.7z"/>
					<path class="st5" d="M65.5,87.7c7.7,5.2,7.1,11.9,7.1,11.9s-6,3.1-13.7-2.1c-7.7-5.2-10-13.8-10-13.8S57.8,82.5,65.5,87.7z"/>
				</g>
				<path id="blossom" class="st4" d="M87.4,47.2l-7.9,7.4l-7.8-10.7l0,0l-7.9,10.7l-7.9-7.4c0,0-7,20.4,4.7,25.4
					c5,2.1,11,1.9,11,1.9s6.1,0.3,11-1.9C94.5,67.5,87.4,47.2,87.4,47.2z"/>
			</g>
		</g>
		<g id="frame">
			<polygon class="st6" points="113.7,31.7 113.7,24.3 106.3,24.3 37.1,24.3 29.7,24.3 29.7,31.7 29.7,112.7 29.7,120.1 37.1,120.1 
				106.3,120.1 113.7,120.1 113.7,112.7 			"/>
			<path class="st5" d="M113.7,31.7v81v7.4l13,13c1.2-1.7,2-3.7,2-5.9v-110c0-2.2-0.7-4.3-2-5.9l-13,13V31.7z"/>
			<path class="st4" d="M37.1,24.3h69.3h7.4l13-13c-1.8-2.5-4.7-4.1-8-4.1H24.7c-3.3,0-6.2,1.6-8,4.1l13,13H37.1z"/>
			<path class="st4" d="M113.7,120.1h-7.4H37.1h-7.4l-13,13c1.8,2.5,4.7,4.1,8,4.1h94c3.3,0,6.2-1.6,8-4.1L113.7,120.1z"/>
			<path class="st5" d="M29.7,112.7v-81v-7.4l-13-13c-1.2,1.7-2,3.7-2,5.9v110c0,2.2,0.7,4.3,2,5.9l13-13V112.7z"/>
		</g>
	</g>
</g>
<g id="me">
	<g id="mouth" class="st0">
		<path class="st7" d="M71.7,111.7c-7.8,0-14.2-6.4-14.2-14.2c0-1.8,1.5-3.3,3.3-3.3s3.3,1.5,3.3,3.3c0,4.2,3.4,7.5,7.5,7.5
			c4.2,0,7.5-3.4,7.5-7.5c0-1.8,1.5-3.3,3.3-3.3s3.3,1.5,3.3,3.3C85.9,105.3,79.5,111.7,71.7,111.7z"/>
	</g>
	<g id="blush">
		<circle class="st8" cx="29.5" cy="100.3" r="17.7"/>
		<circle class="st8" cx="113.9" cy="100.3" r="17.7"/>
	</g>
	<g id="eyes">
		<path class="st9" d="M47.2,71.6c-1.9,0-3.4,1.5-3.4,3.4c0,3.3-2.7,5.9-5.9,5.9c-3.3,0-5.9-2.7-5.9-5.9c0-1.9-1.5-3.4-3.4-3.4
			s-3.4,1.5-3.4,3.4c0,1,0.1,2,0.3,2.9l-3.2,3.2c-1.3,1.3-1.3,3.5,0,4.8c0.7,0.7,1.5,1,2.4,1s1.8-0.3,2.4-1l1.8-1.8
			c2.3,2.3,5.5,3.7,8.9,3.7c7,0,12.8-5.7,12.8-12.8C50.6,73.1,49.1,71.6,47.2,71.6z"/>
		<path class="st9" d="M118.7,71.6c-1.9,0-3.4,1.5-3.4,3.4c0,3.3-2.7,5.9-5.9,5.9c-3.3,0-5.9-2.7-5.9-5.9c0-1.9-1.5-3.4-3.4-3.4
			s-3.4,1.5-3.4,3.4c0,1,0.1,2,0.3,2.9l-3.2,3.2c-1.3,1.3-1.3,3.5,0,4.8c0.7,0.7,1.5,1,2.4,1s1.8-0.3,2.4-1l1.8-1.8
			c2.3,2.3,5.5,3.7,8.9,3.7c7,0,12.8-5.7,12.8-12.8C122.2,73.1,120.6,71.6,118.7,71.6z"/>
	</g>
	<path class="st9" d="M71.7,143.4C32.2,143.4,0,111.3,0,71.7C0,32.2,32.1,0,71.7,0c39.5,0,71.7,32.1,71.7,71.7
		S111.2,143.4,71.7,143.4z M71.7,6.1C35.5,6.1,6,35.6,6,71.8s29.5,65.7,65.7,65.7s65.7-29.5,65.7-65.7S107.9,6.1,71.7,6.1z"/>
	<g id="flower">
		<path class="st9" d="M144.8,39c0-2.2-5.9-6.2-11.3-7c3.2-4.4,4.6-11.3,3.1-12.9c-1.6-1.5-8.6-0.2-13,3.1
			c-0.8-5.4-4.7-11.4-7.1-11.5c-2.2,0-6.1,5.9-7,11.2c-4.4-3.2-11.3-4.5-12.8-3c-1.5,1.6-0.2,8.6,3.1,13c-5.4,0.8-11.5,4.7-11.5,7.1
			c0,2.2,5.9,6.2,11.3,7c-3.2,4.5-4.6,11.3-3.1,12.8c1.6,1.5,8.5,0.2,13-3c0.8,5.4,4.7,11.4,7,11.4c2.2,0,6.2-5.9,7-11.3
			c4.4,3.2,11.3,4.7,12.9,3.1c1.5-1.6,0.2-8.5-3-13C138.8,45.2,144.7,41.3,144.8,39z M121.4,40.9c-0.7,0.3-1.3,0.6-1.8,1.2
			c-0.5,0.5-0.9,1.1-1.1,1.7c-0.6-0.3-1.3-0.4-2-0.4s-1.3,0.1-1.9,0.4c-0.3-0.7-0.6-1.3-1.2-1.8c-0.5-0.5-1.1-0.8-1.7-1.1
			c0.2-0.6,0.4-1.2,0.4-1.9c0-0.7-0.2-1.4-0.4-2c0.7-0.3,1.3-0.7,1.8-1.2s0.8-1.1,1.1-1.7c0.6,0.2,1.2,0.4,1.9,0.4s1.4-0.2,2-0.4
			c0.3,0.7,0.7,1.3,1.2,1.8s1.1,0.9,1.7,1.1c-0.3,0.6-0.4,1.3-0.4,2C121,39.7,121.1,40.3,121.4,40.9z"/>
		<circle class="st8" cx="116.5" cy="39" r="6.5"/>
	</g>
</g>
<g id="contact" class="st0">
	<g id="base_1_" class="st2">
		<path class="st4" d="M134.8,39.6L73.7,75.2c-0.6,0.4-1.3,0.6-2,0.6s-1.4-0.2-2-0.6L8.6,39.6c-0.4-0.3-0.7-0.6-0.9-0.9v76.9h128.2
			v-77C135.5,39,135.2,39.3,134.8,39.6z"/>
		<path class="st5" d="M8.6,104.8l61.1-35.6c0.6-0.4,1.3-0.6,2-0.6s1.4,0.2,2,0.6l61.1,35.6c0.4,0.3,0.7,0.6,0.9,0.9v9.8H7.6v-9.8
			C7.9,105.4,8.2,105.1,8.6,104.8z"/>
		<path class="st5" d="M8.6,39.6l61.1,35.6c0.6,0.4,1.3,0.6,2,0.6s1.4-0.2,2-0.6l61.1-35.6c0.4-0.3,0.7-0.6,0.9-0.9v-9.8H7.6v9.8
			C7.9,39,8.2,39.3,8.6,39.6z"/>
	</g>
	<g id="heart" class="st2">
		<path class="st3" d="M79.2,61.8c-4.2,0-7.5,3.4-7.5,7.5c0-4.2-3.4-7.5-7.5-7.5c-4.2,0-7.5,3.4-7.5,7.5c0,0,0,0.2,0,0.5
			c0,0.5,0.1,1,0.2,1.5c0.7,3.3,3.6,10.3,14.8,14.9c11.2-4.6,14.1-11.6,14.8-14.9c0.1-0.5,0.2-1,0.2-1.5c0-0.3,0-0.5,0-0.5
			C86.8,65.2,83.4,61.8,79.2,61.8z"/>
	</g>
</g>
<path class="st9" d="M71.7,120c-15.5,0-20-10.8-20.1-11.2c-0.7-1.8,0.2-3.8,2-4.5s3.8,0.2,4.5,1.9c0.2,0.4,3.1,6.8,13.6,6.8
	c10.8,0,13.6-6.7,13.6-6.8c0.7-1.8,2.7-2.7,4.5-2s2.7,2.7,2,4.5C91.7,109.2,87.2,120,71.7,120z"/>
</svg>
