<?xml version="1.0" encoding="utf-8"?>
<!-- Generator: Adobe Illustrator 21.0.2, SVG Export Plug-In . SVG Version: 6.00 Build 0)  -->
<svg version="1.1" id="Layer_1" xmlns="http://www.w3.org/2000/svg" xmlns:xlink="http://www.w3.org/1999/xlink" x="0px" y="0px"
	 viewBox="0 0 300 200" style="enable-background:new 0 0 300 200;" xml:space="preserve">
<style type="text/css">
	.st0{fill:#FFF0D5;}
	.st1{fill:none;stroke:#000000;stroke-width:2;stroke-miterlimit:10;}
	.st2{enable-background:new    ;}
	.st3{font-family:'Nunito-Bold';}
	.st4{font-size:44px;}
</style>
<g>
	<path class="st0" d="M52.3,130c0.6,2.2-0.7,4.4-2.8,5c-2.2,0.6-4.4-0.7-5-2.8c0,0-1-3.6-2.4-8.8H27.8c-1.4,5.2-2.4,8.8-2.4,8.8
		c-0.6,2.1-2.8,3.4-5,2.8c-2.1-0.6-3.4-2.8-2.8-5l13.4-48.7c0.4-1.8,2-2.9,3.9-2.9c1.8,0,3.4,1.2,3.9,2.9L52.3,130z M39.8,115.3
		c-1.6-5.8-3.4-12.3-4.9-17.7c-1.5,5.5-3.3,11.9-4.9,17.7H39.8z"/>
	<path class="st0" d="M78.5,110.5l7.3,19.8c0.8,2.1-0.3,4.5-2.4,5.2c-2.1,0.8-4.4-0.3-5.2-2.4l-7.8-21h-4.5l0,19.4
		c0,1.7-1,3.3-2.6,3.9c-2.7,1-5.5-1-5.5-3.8V83c0-2.2,1.8-4,4-4H72c7.8,0,14.1,6.3,14.1,14.1v4.8C86.1,103.4,83,108.1,78.5,110.5z
		 M65.9,104H72c3.3,0,6-2.7,6-6v-4.9c0-3.3-2.7-6-6-6h-6.1V104z"/>
	<path class="st0" d="M116.5,106c2.6,2.6,4.3,6.1,4.3,10v4.7c0,7.8-6.4,14-14.1,14H96.6c-2.2,0-4-1.8-4-4V83c0-2.2,1.8-4,4-4h10.1
		c7.7,0,14.1,6.3,14.1,14v3C120.8,99.9,119.1,103.5,116.5,106z M112.7,96.4v-3.2c0-3.3-2.7-6-6-6h-6.1v15.3h6.1
		C110,102.4,112.7,99.7,112.7,96.4z M106.7,110.5h-6.1v17h6.1c3.3,0,6-2.7,6-6v-4.9C112.7,113.2,110,110.5,106.7,110.5z"/>
	<path class="st0" d="M127.2,121.3V93c0-7.1,5.8-13.8,12.9-14.4c8.4-0.7,15.4,5.8,15.4,14.1V121c0,7.1-5.8,13.8-12.9,14.4
		C134.2,136.1,127.2,129.5,127.2,121.3z M135.3,92.7v28.4c0,3.1,2.3,5.9,5.3,6.2c3.7,0.4,6.8-2.4,6.8-6V92.9c0-3.1-2.3-5.9-5.3-6.2
		C138.4,86.3,135.3,89.1,135.3,92.7z"/>
	<path class="st0" d="M167.6,134.7c-2.2,0-4-1.8-4-4V82.2c0-2.4,2.2-4.4,4.8-4c1.9,0.3,3.3,2.1,3.3,4.1v44.3h12.6
		c2,0,3.8,1.4,4.1,3.3c0.4,2.6-1.6,4.8-4,4.8H167.6z"/>
	<path class="st0" d="M196.7,79h16.8c2.8,0,4.8,2.7,3.8,5.5c-0.6,1.6-2.2,2.6-3.9,2.6l-12.7,0v15.3h11.1c2.8,0,4.8,2.7,3.8,5.5
		c-0.6,1.6-2.2,2.6-3.9,2.6l-11,0v16.1h12.8c2.8,0,4.8,2.7,3.8,5.5c-0.6,1.6-2.2,2.6-3.9,2.6l-16.7,0c-2.2,0-4-1.8-4-4V83
		C192.7,80.8,194.5,79,196.7,79z"/>
	<path class="st0" d="M251.6,93.1v27.5c0,7.8-6.3,14.1-14.1,14.1h-10.1c-2.2,0-4-1.8-4-4V83c0-2.2,1.8-4,4-4h10.1
		C245.3,79,251.6,85.3,251.6,93.1z M237.5,87.1h-6.1v40.4h6.1c3.3,0,6-2.7,6-6V93.1C243.5,89.8,240.8,87.1,237.5,87.1z"/>
	<path class="st0" d="M289.6,130c0.6,2.2-0.7,4.4-2.8,5c-2.2,0.6-4.4-0.7-5-2.8c0,0-1-3.6-2.4-8.8h-14.3c-1.4,5.2-2.4,8.8-2.4,8.8
		c-0.6,2.1-2.8,3.4-5,2.8c-2.1-0.6-3.4-2.8-2.8-5l13.4-48.7c0.4-1.8,2-2.9,3.9-2.9s3.4,1.2,3.9,2.9L289.6,130z M277.1,115.3
		c-1.6-5.8-3.4-12.3-4.9-17.7c-1.5,5.5-3.3,11.9-4.9,17.7H277.1z"/>
	<path class="st1" d="M50.7,132.5c0.6,2.2-0.7,4.4-2.8,5c-2.2,0.6-4.4-0.7-5-2.8c0,0-1-3.6-2.4-8.8H26.2c-1.4,5.2-2.4,8.8-2.4,8.8
		c-0.6,2.1-2.8,3.4-5,2.8c-2.1-0.6-3.4-2.8-2.8-5l13.4-48.7c0.4-1.8,2-2.9,3.9-2.9c1.8,0,3.4,1.2,3.9,2.9L50.7,132.5z M38.2,117.8
		c-1.6-5.8-3.4-12.3-4.9-17.7c-1.5,5.5-3.3,11.9-4.9,17.7H38.2z"/>
	<path class="st1" d="M76.9,112.9l7.3,19.8c0.8,2.1-0.3,4.5-2.4,5.2c-2.1,0.8-4.4-0.3-5.2-2.4l-7.8-21h-4.5v19.4
		c0,1.7-1,3.3-2.6,3.9c-2.7,1-5.5-1-5.5-3.8V85.4c0-2.2,1.8-4,4-4h10.1c7.8,0,14.1,6.3,14.1,14.1v4.8
		C84.5,105.8,81.4,110.6,76.9,112.9z M64.3,106.4h6.1c3.3,0,6-2.7,6-6v-4.9c0-3.3-2.7-6-6-6h-6.1V106.4z"/>
	<path class="st1" d="M114.9,108.4c2.6,2.6,4.3,6.1,4.3,10v4.7c0,7.8-6.4,14-14.1,14H94.9c-2.2,0-4-1.8-4-4V85.4c0-2.2,1.8-4,4-4
		H105c7.7,0,14.1,6.3,14.1,14v3C119.2,102.4,117.5,105.9,114.9,108.4z M111.1,98.8v-3.2c0-3.3-2.7-6-6-6H99v15.3h6.1
		C108.4,104.8,111.1,102.1,111.1,98.8z M105.1,112.9H99v17h6.1c3.3,0,6-2.7,6-6V119C111.1,115.6,108.4,112.9,105.1,112.9z"/>
	<path class="st1" d="M125.6,123.7l0-28.3c0-7.1,5.8-13.8,12.9-14.4c8.4-0.7,15.4,5.8,15.4,14.1l0,28.3c0,7.1-5.8,13.8-12.9,14.4
		C132.6,138.5,125.6,131.9,125.6,123.7z M133.7,95.1v28.4c0,3.1,2.3,5.9,5.3,6.2c3.7,0.4,6.8-2.4,6.8-6V95.3c0-3.1-2.3-5.9-5.3-6.2
		C136.8,88.7,133.7,91.5,133.7,95.1z"/>
	<path class="st1" d="M166,137.1c-2.2,0-4-1.8-4-4V84.6c0-2.4,2.2-4.4,4.8-4c1.9,0.3,3.3,2.1,3.3,4.1v44.3h12.6c2,0,3.8,1.4,4.1,3.3
		c0.4,2.6-1.6,4.8-4,4.8H166z"/>
	<path class="st1" d="M195.1,81.4h16.8c2.8,0,4.8,2.7,3.8,5.5c-0.6,1.6-2.2,2.6-3.9,2.6l-12.7,0v15.3h11.1c2.8,0,4.8,2.7,3.8,5.5
		c-0.6,1.6-2.2,2.6-3.9,2.6l-11,0v16.1h12.8c2.8,0,4.8,2.7,3.8,5.5c-0.6,1.6-2.2,2.6-3.9,2.6h-16.7c-2.2,0-4-1.8-4-4V85.4
		C191,83.2,192.9,81.4,195.1,81.4z"/>
	<path class="st1" d="M250,95.5V123c0,7.8-6.3,14.1-14.1,14.1h-10.1c-2.2,0-4-1.8-4-4V85.4c0-2.2,1.8-4,4-4h10.1
		C243.7,81.4,250,87.7,250,95.5z M235.9,89.5h-6.1v40.4h6.1c3.3,0,6-2.7,6-6V95.5C241.9,92.2,239.2,89.5,235.9,89.5z"/>
	<path class="st1" d="M288,132.5c0.6,2.2-0.7,4.4-2.8,5c-2.2,0.6-4.4-0.7-5-2.8c0,0-1-3.6-2.4-8.8h-14.3c-1.4,5.2-2.4,8.8-2.4,8.8
		c-0.6,2.1-2.8,3.4-5,2.8c-2.1-0.6-3.4-2.8-2.8-5l13.4-48.7c0.4-1.8,2-2.9,3.9-2.9c1.8,0,3.4,1.2,3.9,2.9L288,132.5z M275.5,117.8
		c-1.6-5.8-3.4-12.3-4.9-17.7c-1.5,5.5-3.3,11.9-4.9,17.7H275.5z"/>
</g>
<g>
	<g class="st2">
		<path class="st0" d="M93.2,65.3c-4.4,2.4-9.8,2.4-14.1,0c-1.9-1.2-2.6-3.6-1.5-5.5c1.1-1.9,3.6-2.6,5.5-1.5c1.8,1.1,4.1,1.1,6,0
			c1.8-1,3-3,3-5.2V14.4c0-2.2,1.8-4,4-4c2.2,0,4,1.8,4,4v38.6C100.2,58.1,97.5,62.8,93.2,65.3z"/>
		<path class="st0" d="M107.6,53.1V24.5c0-7.8,6.3-14.1,14.1-14.1s14.1,6.3,14.1,14.1v28.6c0,7.8-6.3,14.1-14.1,14.1
			S107.6,60.9,107.6,53.1z M115.7,24.5v28.6c0,3.4,2.7,6,6,6s6-2.7,6-6V24.5c0-3.4-2.7-6-6-6S115.7,21.1,115.7,24.5z"/>
		<path class="st0" d="M173.8,62c0.6,2.2-0.7,4.4-2.8,5c-2.2,0.6-4.4-0.7-5-2.8c0,0-1-3.6-2.4-8.8h-14.3c-1.4,5.2-2.4,8.8-2.4,8.8
			c-0.6,2.1-2.8,3.4-5,2.8c-2.1-0.6-3.4-2.8-2.8-5l13.4-48.7c0.4-1.8,2-2.9,3.9-2.9s3.4,1.2,3.9,2.9L173.8,62z M161.4,47.3
			c-1.6-5.8-3.4-12.3-4.9-17.7c-1.5,5.5-3.3,11.9-4.9,17.7H161.4z"/>
		<path class="st0" d="M202.9,64.9c0,0-8.9-18.4-15.9-32.8c0,14.4,0,31.1,0,31.1c0,2.3-1.8,4-4,4c-2.3,0-4-1.8-4-4V14.4
			c0-1.8,1.3-3.5,3.1-3.9c1.8-0.4,3.7,0.5,4.5,2.2c0,0,8.9,18.4,15.9,32.8c0-14.4,0-31.1,0-31.1c0-2.2,1.8-4,4-4c2.2,0,4,1.8,4,4
			v48.7c0,1.8-1.3,3.5-3.1,3.9C205.6,67.5,203.7,66.6,202.9,64.9z"/>
		<path class="st0" d="M243.2,64.9c0,0-8.9-18.4-15.9-32.8c0,14.4,0,31.1,0,31.1c0,2.3-1.8,4-4,4c-2.3,0-4-1.8-4-4V14.4
			c0-1.8,1.3-3.5,3.1-3.9c1.8-0.4,3.7,0.5,4.5,2.2c0,0,8.9,18.4,15.9,32.8c0-14.4,0-31.1,0-31.1c0-2.2,1.8-4,4-4c2.2,0,4,1.8,4,4
			v48.7c0,1.8-1.3,3.5-3.1,3.9C245.9,67.5,244,66.6,243.2,64.9z"/>
		<path class="st0" d="M263.7,10.7h16.8c2.3,0,4,1.8,4,4c0,2.3-1.8,4-4,4h-12.8v15.1h11.1c2.3,0,4,1.8,4,4c0,2.3-1.8,4-4,4h-11.1
			v16.8h12.8c2.3,0,4,1.8,4,4c0,2.3-1.8,4-4,4h-16.8c-2.2,0-4-1.8-4-4v-48C259.6,12.6,261.5,10.7,263.7,10.7z"/>
	</g>
	<g class="st2">
		<path class="st1" d="M91.6,67.7c-4.4,2.4-9.8,2.4-14.1,0c-1.9-1.2-2.6-3.6-1.5-5.5c1.1-1.9,3.6-2.6,5.5-1.5c1.8,1.1,4.1,1.1,6,0
			c1.8-1,3-3,3-5.2V16.8c0-2.2,1.8-4,4-4c2.2,0,4,1.8,4,4v38.6C98.6,60.5,95.9,65.2,91.6,67.7z"/>
		<path class="st1" d="M106,55.5V26.9c0-7.8,6.3-14.1,14.1-14.1s14.1,6.3,14.1,14.1v28.6c0,7.8-6.3,14.1-14.1,14.1
			S106,63.3,106,55.5z M114.1,26.9v28.6c0,3.4,2.7,6,6,6c3.4,0,6-2.7,6-6V26.9c0-3.4-2.7-6-6-6C116.8,20.9,114.1,23.6,114.1,26.9z"
			/>
		<path class="st1" d="M172.2,64.5c0.6,2.2-0.7,4.4-2.8,5c-2.2,0.6-4.4-0.7-5-2.8c0,0-1-3.6-2.4-8.8h-14.3c-1.4,5.2-2.4,8.8-2.4,8.8
			c-0.6,2.1-2.8,3.4-5,2.8c-2.1-0.6-3.4-2.8-2.8-5L151,15.8c0.4-1.8,2-2.9,3.9-2.9c1.8,0,3.4,1.2,3.9,2.9L172.2,64.5z M159.8,49.8
			c-1.6-5.8-3.4-12.3-4.9-17.7c-1.5,5.5-3.3,11.9-4.9,17.7H159.8z"/>
		<path class="st1" d="M201.3,67.3c0,0-8.9-18.4-15.9-32.8c0,14.4,0,31.1,0,31.1c0,2.3-1.8,4-4,4c-2.3,0-4-1.8-4-4V16.8
			c0-1.8,1.3-3.5,3.1-3.9c1.8-0.4,3.7,0.5,4.5,2.2c0,0,8.9,18.4,15.9,32.8c0-14.4,0-31.1,0-31.1c0-2.2,1.8-4,4-4c2.2,0,4,1.8,4,4
			v48.7c0,1.8-1.3,3.5-3.1,3.9C204,69.9,202.1,69,201.3,67.3z"/>
		<path class="st1" d="M241.6,67.3c0,0-8.9-18.4-15.9-32.8c0,14.4,0,31.1,0,31.1c0,2.3-1.8,4-4,4c-2.3,0-4-1.8-4-4V16.8
			c0-1.8,1.3-3.5,3.1-3.9c1.8-0.4,3.7,0.5,4.5,2.2c0,0,8.9,18.4,15.9,32.8c0-14.4,0-31.1,0-31.1c0-2.2,1.8-4,4-4c2.2,0,4,1.8,4,4
			v48.7c0,1.8-1.3,3.5-3.1,3.9C244.3,69.9,242.4,69,241.6,67.3z"/>
		<path class="st1" d="M262,13.2h16.8c2.3,0,4,1.8,4,4c0,2.3-1.8,4-4,4h-12.8v15.1h11.1c2.3,0,4,1.8,4,4c0,2.3-1.8,4-4,4h-11.1v16.8
			h12.8c2.3,0,4,1.8,4,4c0,2.3-1.8,4-4,4H262c-2.2,0-4-1.8-4-4v-48C258,15,259.9,13.2,262,13.2z"/>
	</g>
</g>
<text transform="matrix(1 0 0 1 147.1636 180.1182)" class="st3 st4">Design</text>
</svg>
