<?xml version="1.0" encoding="utf-8"?>
<!-- Generator: Adobe Illustrator 20.1.0, SVG Export Plug-In . SVG Version: 6.00 Build 0)  -->
<svg version="1.1" id="Layer_1" xmlns="http://www.w3.org/2000/svg" xmlns:xlink="http://www.w3.org/1999/xlink" x="0px" y="0px"
	 viewBox="0 0 397.4 377.8" style="enable-background:new 0 0 397.4 377.8;" xml:space="preserve">
<style type="text/css">
	.st0{fill:none;}
	.st1{fill:#45BDA9;}
	.st2{fill:#27A08C;}
	.st3{fill:#6BD6C4;}
</style>
<g>
	<path class="st0" d="M5.6,356.5c-0.1-0.7-0.1-1.4-0.2-2H5.2c0.1,0.7,0.1,1.4,0.2,2c0.1,0.4,0.3,0.7,0.8,0.7h0.1c0.1,0,0.1,0,0.1,0
		C5.9,357.1,5.6,356.9,5.6,356.5z"/>
	<path class="st0" d="M6.4,298.8c4,1.1,8.2,1.8,12.6,1.8c0,0,0.1,0,0.1,0c-4.4,0-8.6-0.6-12.6-1.9C6.4,298.7,6.4,298.8,6.4,298.8z"
		/>
	<path class="st1" d="M353.9,208.6c4.5-3.3,9.8-5.9,15.6-7.6c0.4-0.1,0.8,0.1,1,0.5c0.1,0.4-0.1,0.8-0.5,0.9
		c-14.9,4.5-26,14.7-30.3,26.9c-0.8,2.9-1.3,6.1-1.3,9.2c0,21.6,19.9,39.3,45.2,41.2c-1.6-2.8-2.7-5.9-3.2-9c-3.6-3.4-7-7-10.1-11.1
		c-6.6-8.6-8.4-18.8-8.5-29.4h6.3c0,7.7,1,15.1,4.5,21.6c2.9-3.9,4.2-8.6,4.1-13.4h3.8c0.1,6.1-1.9,11.8-5.7,16.6
		c0,0.1,0,0.1-0.1,0.1c0.3,0.4,0.5,0.7,0.8,1c1.6,2,3.3,4,5,5.8c1.5-9.3,8-17.2,17-22v-42c-3-0.5-6.2-0.8-9.4-0.8
		C374.8,197.2,362.8,201.5,353.9,208.6z"/>
	<path class="st1" d="M390.8,288.3c0.2-1.9,0.4-3.7,0.6-5.5l0.3-2.8c-0.1,0-0.2-0.1-0.3-0.2c-1.1,0-2.3,0.1-3.4,0.1
		c-1.5,0-3,0-4.4-0.1C385.5,282.9,387.9,285.8,390.8,288.3z"/>
	<path class="st1" d="M391.4,279.8c-3.9-2.9-7.5-5.9-11-9.1c0.5,3.2,1.6,6.2,3.2,9c1.5,0.1,2.9,0.1,4.4,0.1
		C389.2,279.9,390.3,279.8,391.4,279.8z"/>
	<path class="st1" d="M380.4,261.9c5,5.3,10.5,9.9,16.4,14c0.2-4.5-0.3-8.8-2.3-13c-1.3-2.6-2.8-5.3-3.5-8.1c-0.8-2.9-0.9-6.1-1-9.1
		h3.8c0.1,3.6,0.4,7.1,1.7,10.4c0.5,1.5,1.3,2.8,2,4.1v-20.4C388.4,244.8,382,252.7,380.4,261.9z"/>
	<path class="st1" d="M247.9,333.4c-5.3-7.9-10.2-21-21.6-20.9v-6.3c7.9,0,13.6,4.6,18.2,10.4c1-1.5,1.5-3.4,1.9-5.2
		c0.8-2.9,1.2-5.8,1.4-8.8h3.8c-0.2,3.6-0.8,7.1-1.8,10.6c-0.7,2.3-1.5,4.7-3,6.5c1,1.5,1.9,3,2.8,4.5c3,5,6.1,9.9,10.3,14
		c1.5,1.5,3.1,3,5,4.1c-2.1-3.8-3.3-8-3.3-12.5c0-2.6,0.5-5.3,1.2-7.7c-0.1-0.4-0.3-0.7-0.5-1l0.9-0.3c4.5-12,18-20.6,33.9-20.6
		c2.6,0,5.2,0.3,7.7,0.7c-7.3-18.4-26-30.6-47.3-30.6c-20.4,0-38,11.3-45.9,27.5c-2.4,5.5-3.8,11.6-3.8,18
		c0,26.4,22.9,47.8,51.3,47.8c1,0,2.1,0,3.1-0.1c0.8-4.8,1.4-9.6,2.1-14.4C257.4,346.1,251.9,339.4,247.9,333.4z"/>
	<path class="st1" d="M276.5,361c2.7-0.9,5.3-2,7.8-3.3c-2.5-0.8-4.8-1.8-6.9-3C277.1,356.8,276.8,358.9,276.5,361z"/>
	<path class="st1" d="M288.6,278.6c8.3,5.8,14.6,13.9,18,22.9c0.5,0.1,1,0.2,1.4,0.4c-6.5-19.5-26-33.5-49-33.5
		c-8.2,0-15.9,1.8-22.8,5c6.5-2.8,13.7-4.3,21.3-4.3C268.8,269,279.6,272.3,288.6,278.6z"/>
	<path class="st1" d="M314.8,355.6c9.8-5.4,15.7-14.4,15.7-24.1c0-11.9-8.5-22.3-21.5-26.7c1,3.6,1.4,7.4,1.4,11.2
		c0,17.9-10.5,33.5-26.1,41.6c4,1.3,8.4,2,13,2c6.3,0,12.2-1.4,17.3-3.8C314.6,355.8,314.6,355.7,314.8,355.6z"/>
	<path class="st1" d="M332,331.5c0,3.5-0.7,7-2.1,10.1c1.9-3.6,2.9-7.5,2.9-11.6c0-13.2-10.4-24.4-24.8-28.3
		c0.1,0.4,0.3,0.9,0.4,1.3C322.6,307.5,332,318.8,332,331.5z"/>
	<path class="st1" d="M307.1,302.6c0.5,0.1,0.9,0.3,1.4,0.4c-0.1-0.4-0.3-0.9-0.4-1.3c-0.5-0.1-0.9-0.3-1.4-0.4
		C306.8,301.9,306.9,302.3,307.1,302.6z"/>
	<path class="st1" d="M269.5,333.6c0.4-1.2,0.8-2.4,1.3-3.5c-3.6-1.5-6.4-4.3-8-7.8c-0.8,2.5-1.2,5-1.2,7.7c0,4.5,1.2,8.6,3.3,12.5
		c1.2,0.8,2.5,1.4,3.9,1.8C268.3,340.8,268.5,337.1,269.5,333.6z"/>
	<path class="st1" d="M310.3,316c0-3.9-0.5-7.6-1.4-11.2c-0.9-0.3-1.7-0.5-2.6-0.8c-0.3,0-0.5-0.3-0.5-0.5c-0.3-0.8-0.6-1.6-0.9-2.4
		c-2.5-0.5-5-0.7-7.7-0.7c-15.9,0-29.3,8.6-33.9,20.6l2.8-0.8c1,2.9,3.4,5.3,6.3,6.5c0.1-0.4,0.3-0.8,0.5-1.1c1.1-3.1,1-6.4,0.9-9.6
		h3.8c0.1,2.9,0.3,5.8-0.4,8.6c-0.6,2.6-2,5-3,7.5c-1.5,3.8-2,7.9-1.5,11.8c12.1-7.1,20.4-19.4,22.8-33.3l6,1.6
		c-0.5,3.4-1.5,6.8-2.7,10c3-1.1,5.5-3.2,7.3-6l3.3,1.9c-2.6,4.4-7,7.5-12,8.5c-0.1,0-0.3,0-0.4,0c-1.5,3.2-3.5,6.3-5.6,9
		c0.2,0.3,0.2,0.6,0,0.9c-3.6,5.1-8,9.5-13,13.1l-0.3,2.9c-0.1,0.7-0.2,1.4-0.3,2.1c2.1,1.2,4.5,2.2,6.9,3
		C299.8,349.5,310.3,333.9,310.3,316z"/>
	<path class="st2" d="M390.6,290.3c2,1.6,4.4,3.1,6.8,4.4v-1.9c-2.4-1.3-4.6-2.8-6.6-4.5C390.8,289,390.7,289.6,390.6,290.3z"/>
	<path class="st2" d="M389.7,320c0.3,11.5,1.4,23,2.3,34.4h5.5v-32.2c-0.4,0.5-1.3,0.3-1.4-0.5c-0.6-5.5-0.8-11.1-0.6-16.8
		c0-1,1.5-1,1.5,0c-0.2,5.2,0,10.4,0.5,15.5v-24.2c-2.5-1.2-4.9-2.6-7-4.2C389.8,301.4,389.4,310.7,389.7,320z"/>
	<path class="st2" d="M396,283.3c0-0.1,0-0.2,0-0.3c-1.5-1-2.9-2-4.4-3.1l-0.3,2.8c-0.2,1.9-0.4,3.7-0.6,5.5c2,1.7,4.2,3.2,6.6,4.5
		v-7.2C396.6,285.3,395.8,284.5,396,283.3z"/>
	<path class="st2" d="M379,267.3c-7.8-7.2-13-16.6-15.3-26.9c-0.2-0.9,1.3-1.4,1.5-0.4c2.1,10.1,7.3,19.3,14.9,26.3
		c0-1.5,0.1-2.9,0.4-4.3c-1.8-1.9-3.4-3.8-5-5.8c-0.3-0.4-0.5-0.7-0.8-1c-1.5,1.7-4-0.9-2.5-2.8c0.1-0.2,0.3-0.4,0.5-0.6
		c-3.5-6.6-4.5-13.9-4.5-21.6h-6.3c0,10.6,1.9,20.9,8.5,29.5c3.1,4,6.5,7.7,10.1,11.1c-0.2-1.1-0.3-2.3-0.4-3.5
		C379.8,267.5,379.4,267.6,379,267.3z"/>
	<path class="st2" d="M391.4,279.8c0.1,0,0.2,0.1,0.3,0.2v-0.2C391.6,279.8,391.5,279.8,391.4,279.8z"/>
	<path class="st2" d="M391.8,279.7l0.5-5l4.4,3.8c0.1-0.9,0.1-1.6,0.2-2.5c-5.9-4.2-11.5-8.8-16.4-14c-0.3,1.4-0.4,2.9-0.4,4.3l0,0
		c0.4,0.3,0.3,0.8,0,1c0,1.1,0.1,2.3,0.4,3.5c3.5,3.3,7.1,6.3,11,9.1C391.5,279.8,391.6,279.8,391.8,279.7z"/>
	<path class="st2" d="M391.8,280c1.4,1,2.9,2,4.4,3.1c0.2-1.3,0.4-2.5,0.5-3.8c-1.6,0.3-3.2,0.4-4.9,0.5L391.8,280z"/>
	<path class="st2" d="M391.8,279.7c1.6-0.1,3.3-0.3,4.9-0.5c0-0.3,0-0.5,0.1-0.8l-4.4-3.8L391.8,279.7z"/>
	<path class="st2" d="M374.8,255.1c3.8-4.9,5.8-10.5,5.7-16.6h-3.8c0.1,4.9-1.3,9.5-4.1,13.4c0.6,1.1,1.3,2.3,2.1,3.4
		C374.8,255.1,374.8,255.1,374.8,255.1z"/>
	<path class="st2" d="M374.8,255.1c-0.8-1.1-1.5-2.2-2.1-3.4c-0.1,0.2-0.3,0.4-0.5,0.6C370.8,254.2,373.3,256.8,374.8,255.1z"/>
	<path class="st2" d="M393.8,245.7H390c0.1,3.1,0.3,6.1,1,9.1c0.8,2.9,2.3,5.5,3.5,8.1c2,4.2,2.5,8.6,2.3,13
		c0.2,0.1,0.4,0.3,0.6,0.4V264c-0.5-0.6-0.7-1.6,0-2.4v-1.4c-0.7-1.4-1.4-2.8-2-4.1C394.1,252.9,393.9,249.3,393.8,245.7z"/>
	<path class="st2" d="M396,283.3c-0.2,1.1,0.6,2,1.5,2.3V284c-0.5-0.3-1-0.6-1.4-1C396,283.1,396,283.2,396,283.3z"/>
	<path class="st2" d="M396.7,278.5l0.5,0.5c0.1-0.2,0.1-0.4,0.3-0.6v-1.9c-0.2-0.1-0.4-0.3-0.6-0.4
		C396.8,276.8,396.8,277.6,396.7,278.5z"/>
	<path class="st2" d="M397.1,279.1c-0.1,0-0.4,0-0.5,0c-0.1,1.3-0.4,2.5-0.5,3.8c0.5,0.4,1,0.6,1.4,1v-2
		C396.9,281.2,396.8,280.1,397.1,279.1z"/>
	<path class="st2" d="M397.1,279.1c0-0.1,0-0.1,0.1-0.3l-0.5-0.5c0,0.3,0,0.5-0.1,0.8C396.8,279.2,396.9,279.2,397.1,279.1z"/>
	<path class="st2" d="M397.5,279.1L397.5,279.1L397.5,279.1L397.5,279.1z"/>
	<path class="st2" d="M397.4,279.1L397.4,279.1l0-0.8c-0.1,0.2-0.2,0.4-0.3,0.6L397.4,279.1z"/>
	<path class="st2" d="M397.1,279.1c-0.3,1-0.1,2,0.4,2.8v-2.8l0,0C397.3,279.1,397.2,279.1,397.1,279.1z"/>
	<path class="st2" d="M397.4,279.1l-0.3-0.2c0,0.1,0,0.1-0.1,0.3C397.2,279.1,397.3,279.1,397.4,279.1z"/>
	<path class="st2" d="M397.5,264.1v-2.4C396.8,262.5,396.9,263.5,397.5,264.1z"/>
	<path class="st2" d="M275.5,361.3c0,0.1,0,0.2,0,0.3c-0.8,5.4-1.5,10.8-2.5,16.2h0.8c1-5.6,1.9-11.3,2.6-16.8
		C276.2,361,275.8,361.1,275.5,361.3z"/>
	<path class="st2" d="M268.4,363c-0.7,5-1.5,9.9-2.3,14.8h5.4c1-5.3,1.7-10.7,2.4-16C272.1,362.3,270.3,362.6,268.4,363z"/>
	<path class="st2" d="M264,363.5c-0.6,0-1.1,0.1-1.8,0.1c-0.8,4.7-1.5,9.4-2.5,14h2.2C262.8,373,263.4,368.3,264,363.5z"/>
	<path class="st2" d="M265.5,363.4c-0.6,4.8-1.3,9.6-2.1,14.4h1.3c0.8-4.9,1.5-9.7,2.2-14.5C266.4,363.3,266,363.4,265.5,363.4z"/>
	<path class="st2" d="M264.7,357.5c0.1-1,1.6-1,1.5,0c-0.2,2-0.5,4-0.7,5.9c0.5,0,0.9-0.1,1.4-0.2c0.1-1.1,0.3-2.1,0.5-3.3
		c0.1-1,1.6-0.5,1.5,0.4c-0.1,0.9-0.3,1.8-0.4,2.6c1.9-0.3,3.7-0.8,5.5-1.3c0-0.1,0-0.3,0-0.4c0.3-2.3,0.6-4.5,1-6.6l0.1-1.5
		c-0.7-0.5-1.4-1-2-1.5c-0.9,0.4-2,0.2-2.5-0.8c-2.1-0.3-4.2-0.9-6.1-1.8c-0.7,4.8-1.4,9.6-2.1,14.4c0.6,0,1.1-0.1,1.8-0.1
		C264.3,361.5,264.5,359.5,264.7,357.5z"/>
	<path class="st2" d="M276.5,354.1l-0.1,0.8c-0.3,2.1-0.6,4.2-0.9,6.4c0.3-0.1,0.6-0.2,1-0.3c0.3-2.1,0.6-4.2,0.9-6.3
		C277.1,354.5,276.8,354.3,276.5,354.1z"/>
	<path class="st2" d="M276.5,354.1c0.3,0.1,0.5,0.4,0.9,0.5c0.1-0.7,0.2-1.4,0.3-2.1l0.3-2.9c-0.4,0.3-0.7,0.5-1,0.8L276.5,354.1z"
		/>
	<path class="st2" d="M275.8,349.4c0.8-0.5,1.5-1,2.2-1.5c-0.8,0.5-1.6,1-2.4,1.5c-0.3,0.7-0.9,1.3-1.6,1.6
		c-0.1,0.4-0.5,0.7-0.9,0.9c0.6,0.5,1.4,1,2,1.5l0.4-3.4C275.5,349.7,275.6,349.5,275.8,349.4z"/>
	<path class="st2" d="M272.8,344.9c0.8,0,1.4,0.2,1.9,0.5l4-1.4l-0.4,3.6c4.5-3.4,8.4-7.4,11.6-12c0.3-0.4,0.7-0.4,1-0.2
		c0,0,0.1,0.1,0.2,0.2c2.1-2.8,4-5.9,5.6-9c-2,0-2.8-3.2-0.5-3.6c0.9-0.1,1.7-0.4,2.5-0.7c1.3-3.2,2.1-6.5,2.7-10l-6-1.6
		c-2.3,13.9-10.6,26.1-22.8,33.3c0,0.4,0.1,0.6,0.1,1C272.7,344.9,272.8,344.9,272.8,344.9z"/>
	<path class="st2" d="M278.6,344l-4,1.4c1.1,0.9,1.5,2.5,0.9,3.9c0.8-0.5,1.6-1,2.4-1.5c0.1,0,0.1-0.1,0.3-0.2L278.6,344z"/>
	<path class="st2" d="M297,326.6c5-1,9.3-4.1,12-8.5l-3.3-1.9c-1.8,2.9-4.3,4.9-7.3,6c-0.5,1.5-1.2,3-1.9,4.4
		C296.8,326.6,296.9,326.6,297,326.6z"/>
	<path class="st2" d="M296.6,326.6c0.7-1.5,1.4-2.9,1.9-4.4c-0.8,0.3-1.6,0.5-2.5,0.7C293.8,323.4,294.6,326.6,296.6,326.6z"/>
	<path class="st2" d="M268.5,347.5c-1.4-1.6-2.6-3.3-3.6-5c-1.8-1.1-3.5-2.6-5-4.1c-4.1-4.2-7.3-9-10.3-14c-0.9-1.5-1.8-3-2.8-4.5
		c-0.4,0.5-0.8,0.8-1.2,1.2c-1.9,1.5-4.5-1.1-2.6-2.6c0.6-0.5,1.1-1.1,1.5-1.8c-4.6-5.8-10.3-10.5-18.2-10.4v6.1
		c11.4,0,16.3,13,21.6,20.9c4.1,6,9.6,12.8,16.5,16c0-0.1,0-0.3,0-0.5L268.5,347.5z M256.8,342c-5.8-4.1-9-10.5-12.3-16.5
		c-0.4-0.9,0.9-1.6,1.3-0.8c3.2,5.9,6.3,12,11.8,16C258.3,341.2,257.6,342.5,256.8,342z"/>
	<path class="st2" d="M269.3,347.3c-0.3-1-0.4-2-0.5-3c-1.4-0.5-2.6-1-3.9-1.8c1,1.8,2.2,3.5,3.6,5L269.3,347.3z"/>
	<path class="st2" d="M269.7,348.9c-0.4-0.5-0.8-0.9-1.2-1.3l-4.1,1.3c0,0.1,0,0.3,0,0.5c2,0.9,4,1.5,6.1,1.8c0-0.1-0.1-0.2-0.1-0.3
		C270.1,350.1,269.9,349.5,269.7,348.9z"/>
	<path class="st2" d="M268.5,347.5c0.4,0.5,0.8,0.9,1.2,1.3c-0.1-0.5-0.3-1-0.4-1.5L268.5,347.5z"/>
	<path class="st2" d="M274,350c0,0.4,0,0.6,0,0.9c0.8-0.3,1.3-0.9,1.6-1.6c-0.2,0.1-0.4,0.3-0.5,0.4C274.7,349.9,274.3,350,274,350z
		"/>
	<path class="st2" d="M274.7,345.5c-0.5-0.4-1.1-0.5-1.9-0.5c0,0-0.1,0-0.2,0c0,0.4,0.1,0.8,0.3,1.2L274.7,345.5z"/>
	<path class="st2" d="M274.7,345.5l-1.8,0.6c0.3,1.3,0.6,2.5,1.1,3.6c0,0.1,0,0.2,0.1,0.3c0.3,0,0.6-0.2,1-0.4
		c0.2-0.1,0.4-0.2,0.5-0.4C276.1,348,275.8,346.3,274.7,345.5z"/>
	<path class="st2" d="M249.9,313.4c1-3.5,1.6-7,1.8-10.6h-3.8c-0.1,3-0.6,5.9-1.4,8.8c-0.5,1.8-1,3.6-1.9,5.2c0.8,1,1.6,2.1,2.3,3.2
		C248.4,318,249.2,315.6,249.9,313.4z"/>
	<path class="st2" d="M243,318.4c-1.9,1.5,0.8,4.2,2.6,2.6c0.4-0.4,0.9-0.8,1.2-1.2c-0.8-1.1-1.5-2.1-2.3-3.2
		C244.1,317.3,243.6,317.9,243,318.4z"/>
	<path class="st2" d="M271.3,330.4c-0.2,0-0.4-0.1-0.5-0.2c-0.5,1.1-1,2.3-1.3,3.5c-1,3.5-1.2,7.1-0.8,10.6c0.8,0.3,1.5,0.4,2.4,0.5
		c0.2-0.2,0.5-0.4,0.7-0.5c0.2-0.1,0.5-0.3,0.6-0.4c-0.5-4,0-8,1.5-11.8c1-2.5,2.4-4.8,3-7.5c0.6-2.9,0.5-5.8,0.4-8.6h-3.8
		c0.1,3.3,0.3,6.5-0.9,9.6c-0.1,0.4-0.3,0.8-0.5,1.1l0,0C274.5,327.6,273.5,331.3,271.3,330.4z"/>
	<path class="st2" d="M270.5,351c0.5,1,1.7,1.1,2.5,0.8c-0.3-0.2-0.5-0.5-0.9-0.6C271.6,351.1,271,351.1,270.5,351z"/>
	<path class="st2" d="M274,350.9c-0.4,0.1-0.7,0.2-1.1,0.2c-0.2,0-0.4,0-0.6,0c0.3,0.3,0.5,0.5,0.9,0.6
		C273.5,351.6,273.8,351.3,274,350.9z"/>
	<path class="st2" d="M271.1,344.8c0.5,0,1,0.1,1.5,0.1c0-0.4-0.1-0.6-0.1-1c-0.2,0.1-0.5,0.3-0.6,0.4
		C271.6,344.4,271.3,344.6,271.1,344.8z"/>
	<path class="st2" d="M271.1,344.8c-0.8-0.1-1.6-0.3-2.4-0.5c0.1,1,0.3,2,0.5,3l1-0.4C270.3,346.2,270.5,345.4,271.1,344.8z"/>
	<path class="st2" d="M269.7,348.9c0.2,0.6,0.4,1.3,0.6,1.9c0,0.1,0.1,0.2,0.1,0.3c0.5,0,1.1,0.1,1.8,0.1
		C271.3,350.4,270.5,349.6,269.7,348.9z"/>
	<path class="st2" d="M274,350c-2,0.4-3.6-1.3-3.7-3.1l-1,0.4c0.1,0.5,0.3,1,0.4,1.5c0.8,0.8,1.6,1.5,2.5,2.3c0.2,0,0.4,0,0.6,0
		c0.4,0,0.8-0.1,1.1-0.2C274.1,350.6,274.1,350.4,274,350z"/>
	<path class="st2" d="M270.3,347l0.4-0.1l2.1-0.8c-0.1-0.4-0.1-0.8-0.3-1.2c-0.5,0-1,0-1.5-0.1C270.5,345.4,270.3,346.2,270.3,347z"
		/>
	<path class="st2" d="M270.3,347c0.1,1.8,1.8,3.5,3.7,3.1c0-0.1,0-0.2-0.1-0.3c-0.5-1.2-0.8-2.4-1.1-3.6l-2.1,0.8L270.3,347z"/>
	<path class="st2" d="M262.4,321.3c0.1,0.4,0.3,0.7,0.5,1c0.1-0.5,0.3-0.9,0.5-1.3L262.4,321.3z"/>
	<path class="st2" d="M270.8,330.1c0.5-1.1,1-2.3,1.5-3.4c-2.9-1.1-5.2-3.5-6.3-6.5l-2.8,0.8c-0.1,0.5-0.3,0.9-0.5,1.3
		C264.4,325.9,267.2,328.6,270.8,330.1z"/>
	<path class="st2" d="M271.3,330.4c2.3,0.9,3.2-2.8,1-3.6l0,0c-0.5,1.1-1,2.3-1.5,3.4C270.9,330.2,271.1,330.3,271.3,330.4z"/>
	<path class="st2" d="M314.5,355.9c-0.1,0.2-0.1,0.5,0,0.8c0.1,0.3,0.4,0.4,0.6,0.4c0.1,0,0.3,0,0.4-0.1c6.8-3.7,11.8-9.1,14.4-15.3
		C326.8,347.8,321.3,352.8,314.5,355.9z"/>
	<path class="st2" d="M236.3,273.3c-18.1,7.6-30.7,24.6-30.7,44.3c0,4.5,0.6,9,1.9,13.3c0.1,0.4,0.6,0.6,0.9,0.5s0.6-0.5,0.5-1
		c-1.3-4.1-1.9-8.5-1.9-12.8c0-7,1.6-13.5,4.6-19.5C216.4,287.3,225.2,278.4,236.3,273.3z"/>
	<path class="st2" d="M257.5,270.5c21.3,0,40,12.2,47.3,30.6c0.6,0.1,1.1,0.3,1.8,0.4c-3.4-9-9.8-17.1-18-22.9
		c-9-6.3-19.8-9.6-31.1-9.6c-7.6,0-14.8,1.5-21.3,4.3c-11.1,5.1-19.9,14-24.6,24.8C219.6,281.8,237.2,270.5,257.5,270.5z"/>
	<path class="st2" d="M308.4,303c0.1,0.5,0.4,1.1,0.5,1.8c13,4.4,21.5,14.9,21.5,26.7c0,9.8-5.9,18.8-15.7,24.1
		c-0.1,0-0.2,0.1-0.3,0.3c6.9-3.2,12.3-8.2,15.4-14.3c1.4-3.2,2.1-6.6,2.1-10.1C332,318.8,322.6,307.5,308.4,303z"/>
	<path class="st2" d="M306.3,304c0.9,0.3,1.8,0.5,2.6,0.8c-0.1-0.6-0.3-1.1-0.5-1.8c-0.5-0.1-0.9-0.3-1.4-0.4
		c-0.1-0.4-0.3-0.8-0.5-1.2c-0.6-0.1-1.1-0.3-1.8-0.4c0.3,0.8,0.6,1.6,0.9,2.4C305.8,303.8,306,304,306.3,304z"/>
	<path class="st2" d="M382.9,281.3c-0.1-0.2-0.4-0.4-0.6-0.4c-25-1.9-44.5-19.6-44.5-40.4c0-3.9,0.6-7.6,1.9-11.2
		c2.2-8.1,7.2-15.2,14.1-20.7c-10.9,7.8-17.5,19.4-17.5,31.9c0,10.6,4.8,20.8,13.4,28.5c8.5,7.6,19.9,12.4,32.1,13.4
		c2.1,3.7,5.1,7,8.7,9.7c0-0.6,0.1-1.2,0.1-1.8C387.5,287.8,384.8,284.7,382.9,281.3z"/>
	<path class="st2" d="M339.8,229.3c4.3-12.3,15.4-22.4,30.3-26.9c0.4-0.1,0.6-0.6,0.5-0.9s-0.5-0.6-1-0.5
		c-5.9,1.8-11.1,4.4-15.6,7.6C346.9,214.1,341.9,221.3,339.8,229.3z"/>
	<path class="st2" d="M390.5,292c2.1,1.6,4.5,3,7,4.2v-1.6c-2.5-1.2-4.8-2.6-6.8-4.4C390.6,290.9,390.5,291.5,390.5,292z"/>
	<path class="st3" d="M257.5,340.6c-5.5-4-8.6-10.1-11.8-16c-0.4-0.9-1.8-0.1-1.3,0.8c3.3,6.1,6.6,12.4,12.3,16.5
		C257.6,342.5,258.3,341.2,257.5,340.6z"/>
	<path class="st3" d="M264,363.5c-0.6,4.8-1.3,9.5-2,14.2h1.5c0.8-4.8,1.5-9.5,2.1-14.4C265,363.5,264.5,363.5,264,363.5z"/>
	<path class="st3" d="M266.2,357.5c0.1-1-1.4-1-1.5,0c-0.2,2-0.5,4-0.7,6c0.5,0,1-0.1,1.5-0.1C265.8,361.5,266,359.5,266.2,357.5z"
		/>
	<path class="st3" d="M266.9,363.2c-0.7,4.9-1.5,9.7-2.2,14.5h1.5c0.8-4.9,1.5-9.9,2.3-14.8C267.9,363,267.4,363.1,266.9,363.2z"/>
	<path class="st3" d="M268.8,360.4c0.1-1-1.3-1.4-1.5-0.4c-0.1,1.1-0.3,2.1-0.5,3.3c0.5,0,1-0.1,1.5-0.3
		C268.5,362.1,268.7,361.3,268.8,360.4z"/>
	<path class="st3" d="M365.3,239.9c-0.2-0.9-1.6-0.6-1.5,0.4c2.2,10.4,7.5,19.7,15.3,26.9c0.4,0.4,0.8,0.2,1.1,0c0-0.3,0-0.6,0-0.9
		c0,0,0,0,0-0.1C372.5,259.1,367.4,250.1,365.3,239.9z"/>
	<path class="st3" d="M380.1,267.3c0.3-0.3,0.3-0.7,0-1l0,0c0,0,0,0,0,0.1C380.1,266.6,380.1,267,380.1,267.3z"/>
	<path class="st3" d="M0.2,321.8c-0.1-0.4-0.1-0.9-0.2-1.3v1.8C0.2,322.1,0.2,322,0.2,321.8z"/>
	<path class="st3" d="M397,305c0-1-1.5-1-1.5,0c-0.2,5.6,0,11.2,0.6,16.8c0.1,0.8,1,0.9,1.4,0.5v-1.8
		C396.9,315.4,396.8,310.2,397,305z"/>
	<path d="M278.2,347.7l-0.3,2c5-3.6,9.5-8,13-13.1c0.2-0.3,0.1-0.6,0-0.9C287.4,340.4,283.1,344.4,278.2,347.7z"/>
	<path d="M271.5,377.8h1.5c1-5.4,1.7-10.8,2.5-16.2c0-0.1,0-0.2,0-0.3c-0.5,0.1-1,0.3-1.6,0.5C273.2,367,272.4,372.5,271.5,377.8z"
		/>
	<path d="M276.5,354.1c-0.5-0.3-1-0.6-1.4-0.9l-0.1,1.5c-0.3,2.2-0.6,4.4-1,6.6c0,0.1,0,0.3,0,0.4c0.5-0.1,1-0.3,1.6-0.5
		c0.3-2.1,0.6-4.3,0.9-6.4L276.5,354.1z"/>
	<path d="M276.9,350.5c0.4-0.3,0.7-0.5,1-0.8l0.3-2c0,0-0.1,0.1-0.2,0.1c-0.7,0.5-1.5,1-2.2,1.5c-0.2,0.1-0.3,0.3-0.4,0.5l-0.4,3.4
		c0.5,0.3,1,0.6,1.4,0.9L276.9,350.5z"/>
	<path d="M289.8,335.6c-3.3,4.6-7.1,8.6-11.6,12v0c4.9-3.3,9.3-7.4,12.8-12c0,0-0.1-0.1-0.2-0.2C290.5,335.3,290,335.4,289.8,335.6z
		"/>
	<path d="M278,347.9c0,0,0.1-0.1,0.2-0.1v0C278.1,347.7,278.1,347.8,278,347.9z"/>
	<path class="st1" d="M40,239.3c0-0.3,0-0.6,0-0.8c0-20.1-17.2-36.8-40-40.6v41.9c5.9-3.1,12.9-5,20.5-5
		C27.7,234.9,34.3,236.5,40,239.3z"/>
	<path class="st1" d="M40,238.5c0,0.3,0,0.6,0,0.8c0.1,0.1,0.2,0.1,0.3,0.1c0-0.3,0-0.6,0-0.9c0-20.1-17.3-36.9-40.2-40.6v0.1
		C22.8,201.7,40,218.4,40,238.5z"/>
	<path class="st1" d="M40.8,253.3c-1.6,0.1-3,0.6-4.3,1.1c-1.1,2.1-2.3,4.2-3.8,6.1c1.8,0.1,3.6,0,5.3-0.4l1,3.6
		c-3.1,0.6-6.2,0.6-9.2,0.1c-3.6,4-8.1,7.3-13.3,9.9c-2.6,3.4-5.4,6.8-8.8,9.1c-0.5,4.2-0.9,8.5-1.2,12.6c4.4,1.5,9.1,2.3,14,2.3
		c9.1,0,17.6-2.7,24.1-7.1c7.2-5.6,11.7-13.5,11.7-22.3c0-0.4,0.3-0.8,0.8-0.8s0.8,0.4,0.8,0.8c0,1.5-0.2,3-0.4,4.5
		c0.5-2.1,0.8-4.3,0.8-6.5c0-11.3-7.2-21.3-18-26.8c-0.1,2.6-0.5,5.3-1.1,7.8c0.5-0.1,1.2-0.2,1.7-0.3
		C40.8,247.1,40.8,253.3,40.8,253.3z"/>
	<path class="st1" d="M58.2,266.4c0,2.3-0.3,4.4-0.8,6.5c-0.2,1-0.4,2-0.7,2.9c1.1-3,1.7-6.1,1.7-9.4c0-11.4-7.3-21.4-18.3-26.9
		c0,0.1,0,0.1,0,0.1C51,245.1,58.2,255,58.2,266.4z"/>
	<path class="st1" d="M6.1,249.9l3.6,1c-0.9,5.1-3.3,9.6-6.9,13.3c-0.3,0.3-0.5,0.4-0.8,0.5c1.3,3.8,1.5,7.8,1.3,11.8
		c3.5-0.9,6.2-4.5,8.3-7.1c2.9-3.5,5.6-7.2,8.6-10.6c5.1-5.6,11.4-10.1,19-11.4c0.7-2.5,1-5.1,1.1-7.8c-0.1-0.1-0.2-0.1-0.3-0.1
		c0-0.1,0-0.1,0-0.1c-5.7-2.8-12.3-4.4-19.4-4.4c-7.6,0-14.6,1.9-20.5,5v20.5c0.2,0.3,0.3,0.5,0.4,0.9C3.4,258,5.3,254.3,6.1,249.9z
		"/>
	<path class="st1" d="M40,239.4c0.1,0.1,0.2,0.1,0.3,0.1c0-0.1,0-0.1,0-0.1c-0.1-0.1-0.2-0.1-0.3-0.1C40,239.4,40,239.4,40,239.4z"
		/>
	<path class="st1" d="M36.5,254.4c-3.1,1.1-5.8,3-8.3,5.3c1.5,0.5,3,0.8,4.5,0.9C34.1,258.5,35.3,256.5,36.5,254.4z"/>
	<path class="st1" d="M21.5,267.5c-0.6,0.7-1.3,1.5-2,2.4c-0.8,1-1.6,2-2.5,3.1c-0.2,0.3-0.4,0.5-0.6,0.8c5.1-2.6,9.6-6,13.3-9.9
		c-1.5-0.3-3.1-0.8-4.6-1.4c-1.3,1.4-2.5,2.8-3.6,4.1C21.8,266.9,21.7,267.3,21.5,267.5z"/>
	<path class="st1" d="M94.3,375l2.7-2.6c1.6,1.6,2.9,3.5,3.9,5.4h1.7c-1.4-3.6-2.2-7.5-2.2-11.5c0-6.5,2.1-12.8,5.8-18
		c-22.5,1-41.4,13-48.1,29.5h38.5C95.9,376.8,95.1,375.9,94.3,375z"/>
	<path class="st1" d="M143.9,329.9c-16.2,0-30.3,7.4-37.8,18.4c0.9,0,1.9,0,2.9,0c23.7,0,43.8,12.3,50.9,29.3
		c3.8-7.5,5-16.3,5.1-24.6h6.3c-0.1,8.5-1.3,17.1-4.6,24.9h16.4c1-3,1.6-6.2,1.6-9.5c0-19.6-19.1-35.6-42.8-35.6
		c-7.2,0-14.3,1.5-20.6,4.4c-0.4,0.1-0.8,0-1-0.4c-0.2-0.4,0-0.8,0.3-1c6.4-3,13.8-4.5,21.2-4.5c24.4,0,44.3,16.6,44.3,37.1
		c0,3.2-0.5,6.4-1.4,9.5h0.5c1.4-3.6,2.2-7.5,2.2-11.5C187.4,346.2,167.9,329.9,143.9,329.9z"/>
	<path class="st1" d="M102.6,377.8h18.2c-1.1-2.8-1.8-5.8-1.6-8.9h3.8c-0.2,3.2,0.7,6.1,1.9,8.9h3.9c0.4-1.5,0.8-3,0.9-4.6h3.8
		c-0.1,1.6-0.4,3.1-0.8,4.6h14.8c-2.4-4.1-3.9-8.8-5.2-13.4l3.6-1c1.4,5,3.1,10,5.9,14.4h8.1c0.1-0.1,0.1-0.1,0.1-0.3
		c-7.1-17-27.2-29.3-50.9-29.3c-1,0-1.9,0-2.9,0c-3.7,5.3-5.8,11.5-5.8,18C100.4,370.3,101.2,374.1,102.6,377.8z"/>
	<path class="st2" d="M3.3,296c0.2,0.1,0.4,0.1,0.6,0.3c0.1-0.5,0.1-1.1,0.1-1.7c-1.3-0.5-2.7-1.1-4-1.9v1.9c0.8,0.4,1.5,0.8,2.3,1
		C2.8,295.6,3.2,295.7,3.3,296z"/>
	<path class="st2" d="M5.3,298.4c-0.6,8-0.7,15.9-0.4,23.6c0.3,9.9,1.1,19.9,1.9,29.5c0.1,1,0.2,1.9,0.3,2.9h1.2
		c-0.9-11.5-1.9-22.9-2.3-34.4c-0.2-7.1-0.1-14.3,0.3-21.4c0.1,0,0.2,0,0.3,0v0C6,298.6,5.6,298.5,5.3,298.4z"/>
	<path class="st2" d="M5.8,320c0.3,11.5,1.3,23,2.3,34.4h0.2C7.4,343,6.4,331.5,6,320c-0.2-7.1-0.1-14.2,0.3-21.3
		c-0.1,0-0.2,0-0.3,0C5.7,305.8,5.6,312.9,5.8,320z"/>
	<path class="st2" d="M5.4,354.5c-0.1-0.9-0.2-1.9-0.2-2.8C4.4,342,3.6,332,3.3,322.1c-0.3-8,0-16.1,0.5-24.2
		c-0.2,0-0.4-0.1-0.6-0.2c-0.8,6.9-1,13.8-0.7,20.6c0,1-1.5,1-1.5,0c-0.4-7.1-0.1-14.1,0.8-21.2c-0.5-0.3-1.1-0.5-1.7-0.8v24.2
		c0.1,0.4,0.1,0.9,0.2,1.3c0,0.2-0.1,0.4-0.2,0.5v32.2h5.1H5.4z"/>
	<path class="st2" d="M5.5,295.2c-0.1,0.5-0.1,1.1-0.1,1.6c0.3,0.1,0.8,0.3,1.1,0.4c0.1-0.5,0.1-1,0.1-1.6
		C6.2,295.5,5.8,295.3,5.5,295.2z"/>
	<path class="st2" d="M7.8,282.9c-0.3,0.3-0.7,0.5-1.1,0.7l-0.2,1.2c-0.4,3.5-0.8,6.9-1,10.4c0.3,0.1,0.8,0.3,1.1,0.4
		C6.9,291.4,7.3,287.1,7.8,282.9z"/>
	<path class="st2" d="M6,282.3c0.3-0.1,0.6-0.4,0.8-0.5c-0.3,0.1-0.6,0.3-0.8,0.4C6,282.1,6,282.1,6,282.3z"/>
	<path class="st2" d="M5,284.6L5,284.6c-0.8,0.8-2,1.1-3.2,0.5c-0.5,0.5-1.1,0.6-1.8,0.4v7.2c1.3,0.7,2.6,1.3,4,1.9
		C4.3,291.3,4.6,288,5,284.6z"/>
	<path class="st2" d="M5.6,282.5c0.2,0,0.3-0.1,0.4-0.3c0,0,0-0.1,0-0.2c-1.1,0.4-2.3,0.8-3.5,0.9c0,0,0,0-0.1,0
		c0,0.5-0.2,0.9-0.3,1.4c0,0.4-0.2,0.6-0.4,0.9c1.2,0.6,2.4,0.3,3.2-0.5l0.3-1.6C5.3,282.8,5.4,282.5,5.6,282.5z"/>
	<path class="st2" d="M40.8,253.3v-6.3c-0.6,0.1-1.2,0.1-1.7,0.3c-0.7,2.4-1.5,4.8-2.7,7.1C37.8,253.9,39.3,253.5,40.8,253.3z"/>
	<path class="st2" d="M8.1,280.9c2-1.6,3.8-3.5,5.4-5.6c-3.3,1.4-6.8,2.5-10.4,3.4c0.5,0.4,1,0.6,1.5,1c0.1,0,0.1,0.1,0.2,0.1
		l3.8-1.8L8.1,280.9z"/>
	<path class="st2" d="M13.5,275.2c0.9-1,1.6-2.1,2.4-3.1c0.8-1,1.6-2.1,2.5-3.1c0.7-0.9,1.4-1.6,2-2.4c0.3-0.3,0.8-0.4,1-0.1
		c0,0,0.1,0.1,0.1,0.2c1.1-1.4,2.4-2.8,3.6-4.1c-0.3-0.1-0.6-0.3-0.9-0.4c-2.2-1-0.3-4.2,1.9-3.3c0.6,0.3,1.3,0.5,1.9,0.7
		c2.5-2.3,5.3-4.1,8.3-5.3c1.2-2.3,2-4.6,2.7-7.1c-7.5,1.4-13.8,5.8-18.9,11.4c-3.1,3.4-5.8,7-8.6,10.6c-2.1,2.6-4.8,6.4-8.3,7.1
		c0,0.6-0.1,1.3-0.2,2l0,0C6.8,277.8,10.3,276.6,13.5,275.2z"/>
	<path class="st2" d="M8.5,277.9l-3.8,1.8c0.8,0.6,1.3,1.5,1.3,2.4c0.3-0.1,0.6-0.2,0.8-0.4c0.4-0.3,0.8-0.5,1.2-0.9L8.5,277.9z"/>
	<path class="st2" d="M4.6,279.5c-0.5-0.4-1-0.6-1.5-1h0c0,0.7-0.2,1.4-0.3,2l2-1C4.7,279.6,4.7,279.5,4.6,279.5z"/>
	<path class="st2" d="M3.1,278.5L3.1,278.5L3.1,278.5C3.1,278.5,3.1,278.5,3.1,278.5z"/>
	<path class="st2" d="M6,282c0-0.9-0.4-1.8-1.3-2.4l-1.9,1c-0.1,0.8-0.3,1.5-0.3,2.4c0,0,0,0,0.1,0C3.8,282.8,4.9,282.5,6,282z"/>
	<path class="st2" d="M39,263.8l-1-3.6c-1.8,0.4-3.6,0.5-5.3,0.4c-0.9,1.1-1.8,2.3-2.8,3.4C32.8,264.4,35.8,264.4,39,263.8z"/>
	<path class="st2" d="M32.7,260.5c-1.6-0.1-3.1-0.4-4.5-0.9c-1,0.9-2,1.9-3,2.9c1.5,0.6,3,1,4.6,1.4
		C30.8,262.8,31.8,261.6,32.7,260.5z"/>
	<path class="st2" d="M28.2,259.6c-0.6-0.2-1.3-0.5-1.9-0.7c-2.2-1-4.1,2.3-1.9,3.3c0.3,0.1,0.5,0.3,0.9,0.4
		C26.2,261.5,27.1,260.5,28.2,259.6z"/>
	<path class="st2" d="M2.5,276.7c0.3,0,0.5,0,0.7-0.1c0.3-4,0-8-1.3-11.8c-0.7,0.2-1.5-0.1-1.9-0.7v12.3c0.4,0.3,0.7,0.5,1.1,0.8
		C1.5,276.9,2,276.8,2.5,276.7z"/>
	<path class="st2" d="M0.5,261.3c-0.2-0.3-0.3-0.6-0.4-0.9v1.4c0.1,0,0.1,0,0.1-0.1C0.3,261.5,0.4,261.4,0.5,261.3z"/>
	<path class="st2" d="M1.8,285.1c-0.1,0-0.3-0.1-0.4-0.2c-0.4-0.3-0.9-0.6-1.4-1v1.5C0.7,285.8,1.4,285.6,1.8,285.1z"/>
	<path class="st2" d="M1.1,277.1c-0.4-0.3-0.7-0.5-1.1-0.8v1.9C0.3,277.9,0.7,277.5,1.1,277.1z"/>
	<path class="st2" d="M1.8,285.1c0.2-0.2,0.3-0.5,0.4-0.9c0.1-0.5,0.2-0.9,0.3-1.4c-1.1,0.1-1.9-0.3-2.4-1v2c0.4,0.3,0.9,0.6,1.4,1
		C1.6,285,1.7,285.1,1.8,285.1z"/>
	<path class="st2" d="M2.5,276.7c-0.5,0-1,0.3-1.4,0.5c0.6,0.5,1.3,0.9,1.9,1.3c0-0.6,0.1-1.3,0.2-2C3,276.6,2.8,276.6,2.5,276.7z"
		/>
	<path class="st2" d="M2.8,280.6c0.1-0.7,0.2-1.4,0.3-2c-1,0.2-2,0.4-3,0.5v0l2,1.8L2.8,280.6z"/>
	<path class="st2" d="M3.1,278.5c-0.7-0.5-1.3-0.9-1.9-1.3c-0.4,0.3-0.8,0.7-1.1,1.1v0.8C1.1,279,2.1,278.8,3.1,278.5
		C3.1,278.5,3.1,278.5,3.1,278.5z"/>
	<path class="st2" d="M2.5,283c0.2-0.8,0.3-1.5,0.3-2.4L2.1,281l-2-1.8v2.8C0.5,282.6,1.3,283,2.5,283z"/>
	<path class="st2" d="M9.7,250.9l-3.6-1c-0.8,4.3-2.7,8.1-5.7,11.3c0.5,1.1,1,2.2,1.5,3.4c0,0,0,0.1,0,0.2c0.3-0.1,0.5-0.3,0.8-0.5
		C6.4,260.5,8.8,256,9.7,250.9z"/>
	<path class="st2" d="M2,264.8c0,0,0-0.1,0-0.2c-0.4-1.1-0.9-2.3-1.5-3.4c-0.1,0.1-0.3,0.3-0.3,0.4c-0.1,0-0.1,0-0.1,0.1v2.4
		C0.5,264.6,1.3,265,2,264.8z"/>
	<path class="st2" d="M163.8,377.8c2.9-6.4,3.9-13.7,4.8-20.7c0.1-1,1.6-1,1.5,0c-0.8,7-1.9,14.3-4.6,20.7h1.3
		c3.3-7.8,4.6-16.5,4.6-24.9H165c-0.1,8.3-1.3,17.1-5.1,24.6c0.1,0.1,0.1,0.1,0.1,0.3H163.8z"/>
	<path class="st2" d="M160,377.8c-0.1-0.1-0.1-0.1-0.1-0.3c-0.1,0.1-0.1,0.1-0.1,0.3H160z"/>
	<path class="st2" d="M97,372.4l-2.7,2.6c0.8,0.9,1.6,1.8,2.2,2.8h4.4C99.8,375.8,98.5,374,97,372.4z"/>
	<path class="st2" d="M145.7,363.4l-3.6,1c1.3,4.6,2.9,9.3,5.2,13.4h4.4C148.8,373.4,147,368.4,145.7,363.4z"/>
	<path class="st2" d="M122.9,368.9h-3.8c-0.2,3.1,0.5,6.1,1.6,8.9h4.1C123.6,375,122.7,372,122.9,368.9z"/>
	<path class="st2" d="M133.3,373.1h-3.8c-0.1,1.6-0.4,3.1-0.9,4.6h3.9C132.9,376.3,133.2,374.7,133.3,373.1z"/>
	<path class="st2" d="M55.7,278.2c-2.4,4.9-6.2,9.1-11,12.4C38,295.8,29,299,19.1,299c-4.4,0-8.7-0.6-12.7-1.9
		c-0.1,0.5-0.1,1-0.1,1.5c4,1.2,8.3,1.8,12.6,1.9C36.2,300.5,50.7,291.1,55.7,278.2z"/>
	<path class="st2" d="M19,300.5c0,0,0.1,0,0.1,0c18.3,0,33.6-10.6,37.6-24.8c-0.3,0.9-0.7,1.6-1.1,2.5
		C50.7,291.1,36.2,300.5,19,300.5z"/>
	<path class="st2" d="M57.1,267.6c-0.4,0-0.8,0.4-0.8,0.8c0,8.8-4.5,16.7-11.7,22.3c4.8-3.3,8.7-7.5,11-12.4
		c0.3-0.8,0.6-1.6,0.8-2.5c0.3-1,0.7-1.9,0.9-2.9c0.3-1.5,0.4-3,0.4-4.5C57.8,267.9,57.5,267.6,57.1,267.6z"/>
	<path class="st2" d="M56.5,275.8c-0.3,0.9-0.5,1.6-0.8,2.5c0.4-0.8,0.8-1.6,1.1-2.5c0.3-1,0.5-1.9,0.7-2.9
		C57.2,273.9,56.8,274.8,56.5,275.8z"/>
	<path class="st2" d="M1.8,296.4c0-0.4,0.3-0.6,0.6-0.6c-0.8-0.4-1.6-0.7-2.3-1v1.6c0.6,0.3,1.1,0.5,1.7,0.8
		C1.8,296.8,1.8,296.6,1.8,296.4z"/>
	<path class="st2" d="M3.3,296c0,0.1,0,0.2,0,0.3c0,0.4-0.1,0.9-0.2,1.3c0.2,0.1,0.4,0.1,0.6,0.2c0-0.5,0.1-1,0.1-1.5
		C3.7,296.2,3.5,296.1,3.3,296z"/>
	<path class="st2" d="M5.3,298.4c0.4,0.1,0.8,0.3,1.2,0.4c0.1-0.5,0.1-1,0.1-1.5c-0.3-0.1-0.8-0.3-1.1-0.4
		C5.3,297.3,5.3,297.9,5.3,298.4z"/>
	<path class="st2" d="M186.1,368.3c0-20.5-19.9-37.1-44.3-37.1c-7.4,0-14.7,1.5-21.2,4.5c-0.4,0.1-0.6,0.6-0.3,1
		c0.2,0.4,0.6,0.5,1,0.4c6.3-2.9,13.4-4.4,20.6-4.4c23.6,0,42.8,16,42.8,35.6c0,3.2-0.5,6.4-1.6,9.5h1.6
		C185.6,374.7,186.1,371.5,186.1,368.3z"/>
	<path class="st3" d="M2.4,295.7c0.3,0.1,0.6,0.3,0.9,0.4C3.2,295.7,2.8,295.6,2.4,295.7z"/>
	<path class="st3" d="M1,318.3c0,1,1.5,1,1.5,0c-0.4-6.9-0.2-13.8,0.6-20.6c-0.5-0.2-1-0.4-1.5-0.6C0.9,304.1,0.6,311.1,1,318.3z"/>
	<path class="st3" d="M3.3,296c-0.3-0.1-0.6-0.3-0.9-0.4c-0.3,0.1-0.5,0.3-0.6,0.6c0,0.2,0,0.5-0.1,0.6c0.5,0.2,1,0.4,1.5,0.6
		c0-0.4,0.1-0.9,0.2-1.3C3.3,296.3,3.3,296.1,3.3,296z"/>
	<path class="st3" d="M170,357c0.1-1-1.4-1-1.5,0c-0.9,7-1.9,14.3-4.8,20.7h1.6C168.1,371.3,169.2,364,170,357z"/>
	<path d="M6.8,356.4c-0.1-0.6-0.1-1.3-0.2-2H5.4c0.1,0.7,0.1,1.4,0.2,2c0.1,0.4,0.3,0.6,0.7,0.6C6.6,357.1,6.9,356.8,6.8,356.4z"/>
	<path d="M6.8,356.4c0.1,0.4-0.3,0.7-0.6,0.8c0.1,0,0.1,0,0.1,0h0.1c0.4,0,0.7-0.4,0.7-0.8c-0.1-0.6-0.1-1.3-0.2-2H6.7
		C6.7,355.1,6.8,355.8,6.8,356.4z"/>
	<path d="M16.5,273.8c-0.3,0.1-0.5,0.3-0.9,0.4c-2.3,2.8-4.7,5.3-7.7,7l-0.3,1.6c0,0,0,0.1,0,0.2C11.2,280.5,13.9,277.1,16.5,273.8z
		"/>
	<path d="M15.7,274.2c0.3-0.1,0.5-0.3,0.9-0.4c0.2-0.3,0.4-0.5,0.6-0.8c0.9-1.1,1.6-2.1,2.5-3.1c0.7-0.9,1.4-1.6,2-2.4
		c0.2-0.3,0.3-0.6,0.1-0.9c-0.2,0.3-0.4,0.5-0.6,0.8C19.3,269.5,17.6,271.9,15.7,274.2z"/>
	<path d="M5.5,295.2c-0.5-0.2-1-0.4-1.5-0.5c-0.1,0.5-0.1,1.1-0.1,1.7c0.5,0.2,0.9,0.4,1.5,0.5C5.4,296.3,5.4,295.7,5.5,295.2z"/>
	<path d="M4.8,322c-0.2-7.8-0.1-15.7,0.4-23.6c-0.5-0.1-1-0.4-1.5-0.5c-0.5,8.1-0.7,16.3-0.5,24.2c0.3,9.9,1.1,20,1.9,29.6
		c0.1,0.9,0.2,1.9,0.2,2.8h1.3h0.3c-0.1-1-0.2-1.9-0.3-2.9C5.9,341.9,5.1,331.9,4.8,322z"/>
	<path d="M6.5,284.8l0.2-1.2c0.3-0.2,0.8-0.5,1.1-0.7c0,0,0-0.1,0-0.2l0.3-1.6c-0.4,0.2-0.8,0.4-1.2,0.6c-0.3,0.2-0.6,0.4-0.8,0.5
		c-0.1,0.9-0.4,1.8-1,2.4l0,0c-0.4,3.4-0.8,6.7-1,10c0.5,0.2,0.9,0.4,1.4,0.5C5.8,291.7,6.1,288.3,6.5,284.8z"/>
	<path d="M5.6,282.5c-0.2,0.1-0.3,0.3-0.4,0.5L5,284.6c0.6-0.6,1-1.5,1-2.4C5.9,282.3,5.8,282.4,5.6,282.5z"/>
	<path d="M15.7,274.2c-0.7,0.4-1.4,0.7-2.2,1c-1.7,2.1-3.4,4-5.4,5.6L8,281.1C11,279.5,13.5,277,15.7,274.2z"/>
	<path d="M21,267.4c0.2-0.3,0.4-0.5,0.6-0.8c0-0.1-0.1-0.1-0.1-0.2c-0.3-0.3-0.8-0.3-1,0.1c-0.6,0.7-1.3,1.5-2,2.4
		c-0.8,1-1.6,2.1-2.5,3.1c-0.8,1-1.6,2.1-2.4,3.1c0.8-0.3,1.4-0.6,2.2-1C17.6,271.9,19.3,269.5,21,267.4z"/>
	<path d="M6.9,281.7c0.4-0.2,0.8-0.4,1.1-0.6l0.1-0.3C7.7,281.1,7.3,281.5,6.9,281.7z"/>
	<path d="M5.4,296.8c-0.5-0.1-1-0.4-1.4-0.5c-0.1,0.5-0.1,1-0.1,1.5c0.5,0.2,0.9,0.4,1.5,0.5C5.3,297.9,5.3,297.3,5.4,296.8z"/>
</g>
<ellipse class="st1" cx="100.2" cy="170.4" rx="61" ry="51.4"/>
<ellipse class="st1" cx="144.4" cy="183.9" rx="36.2" ry="28.3"/>
<ellipse transform="matrix(0.1764 -0.9843 0.9843 0.1764 81.7127 349.4749)" class="st1" cx="249.7" cy="125.9" rx="44.9" ry="54.8"/>
<ellipse transform="matrix(0.1764 -0.9843 0.9843 0.1764 55.8049 312.7943)" class="st1" cx="214.8" cy="123" rx="32.9" ry="35.6"/>
<path class="st2" d="M148.8,279.8c-3.3-3.1-6.5-6.3-9.4-9.8c-0.1-0.1-1.4-1.7-0.7-0.9c0.6,0.8-0.6-0.9-0.7-1
	c-0.9-1.2-1.7-2.5-2.5-3.7c-1.7-2.7-3.3-5.5-4.6-8.4c-1.8-3.6-2.7-5.9-4.1-9.8c-1.6-4.3-2.9-8.7-3.9-13.1
	c-2.1-9.1-2.7-18.4-3.4-27.8v-7.3l-13.8,7.3l0,0c0.8,10.2,1.4,20.4,3.7,30.5c2,9.1,5.3,18.1,9.3,26.5c3.6,7.5,8.3,14.2,13.7,20.3"/>
<path class="st2" d="M61,156.8L61,156.8c1.2,13.4,6.3,26.3,15.1,36.6c8.8,10.4,22.1,17.5,35.9,14.4c3.9-0.9,2.3-6.9-1.7-6.1
	c-12,2.7-23.1-4.4-30.4-13.4c-7.3-8.9-11.7-20.1-12.7-31.5"/>
<path class="st2" d="M142.7,173.3c-0.8,8.1-7.9,12.5-14.6,15.3c-7.1,2.9-13.9,6.1-17.1,13.6c-0.7,1.6,0.7,3.4,2.2,3.9
	c1.8,0.5,3.2-0.6,3.8-2.2l0,0c3.1-7.4,13.4-8.8,19.7-12.4c6.8-3.8,11.5-10.4,12.3-18.1"/>
<path class="st2" d="M75.5,162.6c-0.7,4.6-2.9,8.5-6.7,11.4c-1.9,1.4,0.8,4.1,2.7,2.6l0,0c4.1-3.2,6.8-7.9,7.6-13"/>
<path class="st2" d="M127.7,163.4L127.7,163.4c0.8,8.1,2.5,19.8,10.7,23.9c2.1,1.1,4.1-2.1,1.9-3.3c-6.9-3.4-8.1-13.9-8.9-20.7"/>
<path class="st2" d="M109.7,164.9L109.7,164.9c0.8,3.5-0.4,7.1-1.3,10.6c-0.9,3.5-1.8,6.9-2.3,10.6c-0.8,5.8-0.3,11.9,2.9,16.9
	c1.3,2.1,4.5,0.1,3.3-1.9c-3.4-5.6-3.1-12.3-1.7-18.6c1.3-5.9,4.2-12.4,2.8-18.6"/>
<path class="st2" d="M97.9,174.4L97.9,174.4c1.4,4.9,4.8,9.1,9.3,11.4c2.2,1.1,4.1-2.1,1.9-3.3c-3.8-1.9-6.5-5.1-7.7-9.2"/>
<path class="st2" d="M214.7,104L214.7,104c0.1,6.3,1.4,12.7,3.8,18.6c2.6,6.3,6.6,11.3,10.3,16.8c6.9,10.2,9.1,22.9,6.1,34.9
	c-1,3.9,5.1,5.6,6.1,1.6c3.1-12.1,1.5-25.1-4.6-36.1c-3.2-5.8-7.8-10.6-10.8-16.5c-3-6-4.6-12.6-4.7-19.3"/>
<path class="st2" d="M284.6,121.9L284.6,121.9c-4.4,11.5-18,15.7-27.6,21.6c-10.6,6.4-18.2,16.4-20.2,28.7c-0.6,3.9,5.4,5.6,6.1,1.6
	c1-5.9,3.3-11.6,7.1-16.3c3.9-4.9,9.2-8.3,14.8-11.3c10.4-5.6,21.6-11.1,26.1-22.8"/>
<path class="st2" d="M203.1,118.7L203.1,118.7c4.1,6.4,11.3,10.3,19,10c2.4-0.1,2.4-3.8,0-3.8c-6.4,0.3-12.4-2.7-15.8-8.1"/>
<path class="st2" d="M269.3,122.5L269.3,122.5c0,4.4,0,10.8,3.9,13.6c2,1.4,3.8-1.8,1.9-3.3c-1.2-0.9-1.4-3.1-1.6-4.4
	c-0.4-2-0.5-4-0.4-6"/>
<path class="st2" d="M283.9,145c-4.8,1.5-9.7,0.2-13-3.4c-1.6-1.8-4.3,0.9-2.6,2.6l0,0c4.3,4.6,10.8,6.3,16.7,4.4"/>
<path class="st2" d="M241.8,125.3L241.8,125.3c4,9,2.8,19.7-2.9,27.7c-1.4,1.9,1.9,3.9,3.3,1.9c6.5-9.2,7.5-21.3,2.9-31.4"/>
<path class="st2" d="M253.6,129.4c-1.6,2.6-4,4.4-7,4.9c-2.4,0.5-1.4,4.1,1,3.6l0,0c3.9-0.8,7.3-3.3,9.2-6.7"/>
<g>
	<path class="st2" d="M249.7,152.3c-0.8-0.3-1.1,0.4-2.6,2.9c-1.3,2.4-4.1,7.4-5.6,7.4c-2,0-3.4-5.4-4.1-7.7
		c-0.6-2.1-0.8-2.6-1.5-2.6c-0.8,0.1-0.9,0.9-0.9,1.3c-0.3,2.8-0.6,5.5-0.9,8.2c-0.3,3.1-0.6,6.4-1.1,9.6c-0.1,0.6-0.1,1.1-0.2,1.6
		l-0.1,0.9c0,0.1-0.1,0.2-0.1,0.3c-0.1,0.4-0.1,0.7-0.1,1.1c-0.3,1.8-0.6,3.6-0.8,5.3c-0.6,3.7-1.4,7.3-2.1,10.6
		c-4.1,17.4-10.7,31.8-20.3,43.7h18.6c5.6-8.9,10.1-18.4,13.4-28.6c4.2-13,6.1-26.2,7.2-36.3c0.3-2.8,0.6-5.6,0.9-8.3
		c0.3-2.6,0.6-5.4,0.9-8.1C250.3,153.4,250.4,152.5,249.7,152.3z"/>
</g>
<path class="st2" d="M98.4,224.6c-22.2,0-42.8-10.1-53.8-26.5c-0.2-0.3-0.1-0.8,0.2-1c0.3-0.2,0.8-0.1,1,0.2
	c10.7,15.9,30.8,25.8,52.5,25.8c13.1,0,25.6-3.5,36.1-10.1c0.2-0.1,0.3-0.1,0.5-0.1c2.6,0.4,5.1,0.6,7.5,0.6
	c19.5,0,35.4-12.4,35.4-27.5c0-10.7-8-20.5-20.5-25c-0.4-0.1-0.6-0.6-0.4-1c0.1-0.4,0.6-0.6,1-0.4c13.1,4.7,21.5,15.1,21.5,26.4
	c0,16-16.6,29-36.9,29c-2.4,0-4.9-0.2-7.5-0.6C124.4,221.1,111.7,224.6,98.4,224.6z"/>
<path class="st2" d="M302,138.4c0,0-0.1,0-0.1,0c-0.4-0.1-0.7-0.5-0.6-0.9c1.8-10-0.7-20.5-7.1-29.7c-8.4-12-22.3-20.5-38.4-23.4
	c-11.3-2-22.6-1.1-32.8,2.7c-0.4,0.1-0.8-0.1-1-0.4c-0.1-0.4,0.1-0.8,0.4-1c10.4-3.8,22-4.8,33.5-2.7c16.4,2.9,30.8,11.7,39.3,24
	c6.6,9.5,9.2,20.4,7.3,30.8C302.6,138.1,302.3,138.4,302,138.4z"/>
<path class="st2" d="M226.6,169.1c-0.1,0-0.2,0-0.3-0.1c-6.4-2.6-12.2-6.2-17-10.4c-0.7-0.1-1.4-0.2-2.1-0.3
	c-9.8-1.8-18.3-7-23.9-14.7c-0.2-0.3-0.2-0.8,0.2-1s0.8-0.2,1,0.2c5.4,7.4,13.6,12.4,23,14.2c0.7,0.1,1.5,0.2,2.2,0.3
	c0.1,0,0.3,0.1,0.4,0.2c4.8,4.2,10.4,7.7,16.8,10.3c0.4,0.2,0.6,0.6,0.4,1C227.2,168.9,226.9,169.1,226.6,169.1z"/>
<path class="st2" d="M183.9,143.8c-0.2,0-0.5-0.1-0.6-0.3c-5.4-7.3-7.5-16.1-5.9-24.8c2.3-12.9,12.5-23.2,26.1-26.3
	c0.4-0.1,0.8,0.2,0.9,0.6c0.1,0.4-0.2,0.8-0.6,0.9c-13,3-22.8,12.9-24.9,25.2c-1.5,8.3,0.5,16.7,5.7,23.7c0.2,0.3,0.2,0.8-0.2,1
	C184.2,143.7,184.1,143.8,183.9,143.8z"/>
<path d="M129.6,284.4c-0.2,0-0.4-0.1-0.6-0.3c-5.4-6.3-9.6-12.6-12.9-19.5c-4.3-9.1-7.5-18-9.4-26.6c-2-9.1-2.8-18.5-3.4-26.8
	c-10.7,0-21.5-5.6-29.7-15.4c-8.7-10.3-14-23.1-15.2-37c0-0.4,0.3-0.8,0.7-0.8c0.4,0,0.8,0.3,0.8,0.7c1.2,13.6,6.4,26.1,14.9,36.2
	c8.1,9.7,18.8,15.1,29.3,14.8c0.4,0,0.7,0.3,0.8,0.7c0.6,8.5,1.4,18.1,3.4,27.3c1.9,8.5,5,17.3,9.2,26.3c3.2,6.7,7.4,13,12.7,19.1
	c0.3,0.3,0.2,0.8-0.1,1.1C129.9,284.3,129.8,284.4,129.6,284.4z"/>
<path d="M225.1,238.3c-0.1,0-0.3,0-0.4-0.1c-0.3-0.2-0.4-0.7-0.2-1c5.9-9,10.5-18.8,13.9-29.2c4-12.4,5.9-25.2,7.2-36
	c0.3-2.6,0.6-5.2,0.8-7.7c0.1-1.2,0.2-2.4,0.4-3.6c0-0.1,0.1-0.3,0.1-0.4c0.1-0.2,0.3-0.4,0.4-0.6c0.1-0.2,0.3-0.3,0.4-0.5
	c4.1-5.2,9.7-8.6,15.1-11.5c0.4-0.2,0.8-0.1,1,0.3c0.2,0.4,0.1,0.8-0.3,1c-5.2,2.8-10.6,6.1-14.6,11.1c-0.1,0.2-0.3,0.3-0.4,0.5
	c-0.1,0.1-0.2,0.2-0.3,0.3c-0.1,1.1-0.2,2.2-0.3,3.3c-0.3,2.5-0.5,5.2-0.8,7.8c-1.3,10.9-3.2,23.7-7.2,36.3
	c-3.4,10.6-8.1,20.5-14,29.6C225.6,238.1,225.4,238.3,225.1,238.3z"/>
<g>
	<g>
		<path class="st3" d="M123.1,245.4c1.8,7.6,5.3,14.6,10,20.9c0.6,0.8,1.6-0.3,1.1-1c-4.6-6-7.8-12.8-9.7-20.1
			C124.3,244,122.9,244.4,123.1,245.4L123.1,245.4z"/>
	</g>
</g>
<g>
	<g>
		<path class="st3" d="M121.8,250.9c0.9,0,0.9-1.5,0-1.5C120.8,249.4,120.8,250.9,121.8,250.9L121.8,250.9z"/>
	</g>
</g>
<g>
	<g>
		<path class="st3" d="M121.2,250.7c1.7,5.1,4.1,9.8,7.3,14c0.6,0.8,1.9,0,1.3-0.8c-3.2-4.1-5.6-8.7-7.2-13.6
			C122.4,249.4,120.9,249.8,121.2,250.7L121.2,250.7z"/>
	</g>
</g>
<g>
	<g>
		<path class="st3" d="M126.8,194.2c4-1.7,8.3-2.9,11.9-5.3c3.4-2.3,5.2-5.4,6.8-9.1c0.4-0.9-0.9-1.6-1.3-0.8
			c-1.6,3.7-3.4,6.8-6.9,9c-3.4,2.1-7.3,3.2-10.9,4.7C125.5,193.1,125.9,194.6,126.8,194.2L126.8,194.2z"/>
	</g>
</g>
<g>
	<g>
		<path class="st3" d="M233.4,183.4c-0.9,8.8-3.3,17.3-6.8,25.3c-0.4,0.9,0.9,1.6,1.3,0.8c3.6-8.3,6-17,7-26.1
			C235,182.5,233.5,182.5,233.4,183.4L233.4,183.4z"/>
	</g>
</g>
<g>
	<g>
		<path class="st3" d="M235.2,189.6c-0.9,5.7-2.4,11.3-4.4,16.6c-0.4,0.9,1.1,1.3,1.4,0.4c2.1-5.4,3.6-10.9,4.4-16.6
			C236.8,189.1,235.3,188.6,235.2,189.6L235.2,189.6z"/>
	</g>
</g>
<g>
	<g>
		<path class="st3" d="M216.1,108.4c0.6,7.6,3.7,15.1,7.7,21.5c2.3,3.8,5.2,7.1,7.6,10.9c2.6,4.1,4.1,8.6,5.8,13.1
			c0.3,0.9,1.8,0.5,1.4-0.4c-1.4-4.1-2.9-8.1-5-11.9c-2.1-3.6-4.6-6.8-7-10.1c-4.6-6.7-8.4-14.8-8.9-23
			C217.5,107.4,216,107.4,216.1,108.4L216.1,108.4z"/>
	</g>
</g>
<g>
	<path class="st0" d="M273,0L273,0c-0.1,0.4-0.1,0.8-0.2,1.1C272.9,0.8,273,0.4,273,0z"/>
	<path class="st0" d="M271.3,0.9l-1.9,10.2C270.3,7.8,270.9,4.4,271.3,0.9z"/>
	<path class="st3" d="M389.2,120.7c-1.9,1.3-3.8,2.5-5.8,3.6c0,0.2,0,0.3,0,0.4C385.4,123.4,387.3,122.1,389.2,120.7z"/>
	<path class="st3" d="M368.3,129.9c0,0.4,0,0.8,0,1.2c0.4-0.1,0.8-0.2,1.1-0.4c0-0.4,0-0.8,0-1.1C369,129.6,368.6,129.8,368.3,129.9
		z"/>
	<path class="st1" d="M366,106.2c0-0.1,0-0.2,0-0.3c-10.8-1.6-20.5-7.1-26.7-11.4c-5.3-3.7-9.7-7.9-13-12.7
		c-0.3-0.3-0.1-0.8,0.2-1.1s0.8-0.2,1,0.2c3.2,4.6,7.5,8.8,12.6,12.3c6.3,4.3,16,9.8,26.7,11.3c0.4,0.1,0.6,0.4,0.6,0.8
		c0,0.3,0,0.5,0,0.7c0.9,8.1,1,16.2,0.8,23.8c0.4-0.1,0.8-0.2,1.2-0.3c0.4-8.4,0.3-16.9-0.6-25.4c0-0.3,0-0.6,0-0.8
		c-9.7-1.3-19.3-6-27-11.4c-9.5-6.6-17.4-16.2-19.1-28l6-1.7c0.9,5.8,3.3,10.9,6.7,15.3c2.3-5.6,2.1-11.8,2-17.7h3.8
		c0.1,7.1,0.1,14.4-3,20.9c2.3,2.3,4.8,4.4,7.5,6.3c8.3,5.6,18.5,10.4,28.8,10.4c-2.3-9.7-6.9-19-16.3-23.6l1.4-2.3
		c-4.6-5.8-7.4-12.8-7.4-20.5c0-9,3.9-17.2,10.2-23.5c-2.5-0.3-5.1-0.5-7.9-0.5c-31.6,0-57.3,23.4-57.3,52.2s25.5,52.1,57.1,52.1
		c4.3,0,8.4-0.4,12.4-1.2C367,122.4,366.9,114.3,366,106.2z"/>
	<path class="st1" d="M373.3,83.8c2,3.6,3.4,7.6,4.5,11.6c1-3.4,2.5-6.7,4-9.9c-2.9-0.7-5.5-1.7-8.1-2.9
		C373.5,82.8,373.4,83.3,373.3,83.8C373.3,83.7,373.3,83.7,373.3,83.8z"/>
	<path class="st1" d="M387.9,86.4c-0.5,1.2-1.1,2.3-1.6,3.4c-1.9,4.2-3.6,8.6-4,13.2c0.1,0.3,0.1,0.7,0.2,1.1
		c0.8,6.8,1,13.4,0.9,20.1c2-1.1,4-2.3,5.8-3.6c3-2.4,5.9-5.1,8.3-8V86.6c-1.4,0.1-2.7,0.2-4.1,0.2
		C391.5,86.8,389.8,86.7,387.9,86.4z"/>
	<path class="st1" d="M393.4,15.2c-12.4,0-23.5,4.8-31.1,12.3c9.7,1.2,18.6,4.7,26.1,9.7l5.5-1.5c0.6,2.3,1.2,4.8,1.6,7.2
		c0.6,0.7,1.3,1.3,2,2v-26c-2-0.3-4-0.4-6.1-0.4c-0.4,0-0.8-0.3-0.8-0.8c0-0.4,0.4-0.8,0.8-0.8c2,0,4.1,0.2,6.1,0.4v-2
		C396.1,15.3,394.8,15.2,393.4,15.2z"/>
	<path class="st1" d="M396.4,52c0.4-0.2,0.7-0.5,1-0.7v-6.5c-0.6-0.7-1.3-1.3-2-2C396,45.8,396.3,48.9,396.4,52z"/>
	<path class="st1" d="M359.5,71.4l0.5-0.8c4.3,2.1,7.6,5.1,10.4,8.6c0.2-3.3-0.8-6.6-2.8-9.3l3.3-1.9c3,4.2,4,9.5,2.9,14.5
		c2.5,1.2,5.3,2.2,8.1,2.9c1.7-3.7,3.5-7.4,4.9-11.3c4.3-11.8,4.6-24.7,1.2-36.8l0.5-0.2c-7.5-5-16.5-8.5-26.1-9.7
		C356,33.8,352.1,42,352.1,51C352.1,58.6,354.8,65.7,359.5,71.4z"/>
	<path class="st1" d="M393.8,72.3c-0.3,1-0.6,2-1,2.9c1.7-0.2,3.3-0.8,4.6-1.8v-18c-0.4,0.2-0.7,0.3-1,0.5
		C396.3,61.6,395.4,67.1,393.8,72.3z"/>
	<path class="st1" d="M391.3,79.2c-1,2.4-2.2,4.9-3.4,7.3c1.8,0.2,3.6,0.3,5.4,0.3c1.4,0,2.8-0.1,4.1-0.2v-8.8
		c-1.8,0.8-3.6,1.3-5.6,1.3C391.6,79.2,391.5,79.2,391.3,79.2z"/>
	<path class="st2" d="M254.4,18.9C254.4,18.6,254.4,18.7,254.4,18.9C254.3,19.1,254.3,19.1,254.4,18.9z"/>
	<path class="st2" d="M248.4,29.4c-0.1,0.1-0.2,0.3-0.4,0.4C248,29.9,248.1,29.8,248.4,29.4z"/>
	<path class="st2" d="M272.8,1.2c-0.9,6.7-2.3,13.2-4.5,19.5c0,0.1-0.1,0.3-0.2,0.5c2.6-6.8,4.4-13.9,5.7-21.1H273
		C273,0.4,272.9,0.8,272.8,1.2z"/>
	<path class="st2" d="M271.3,0.9c0-0.3,0.1-0.6,0.1-0.9h-3.1h-2.1c-0.3,1.6-0.5,3.2-0.8,4.8c-0.1,0.9-1.6,0.6-1.5-0.4
		c0.3-1.5,0.5-3,0.7-4.4h-1.3c-0.1,0.6-0.2,1.2-0.3,1.8c-0.1,1-1.6,0.5-1.5-0.4c0.1-0.4,0.1-0.9,0.3-1.4h-2.2
		c-0.5,2.3-1,4.7-1.6,7.1c-0.6,2.4-1.3,4.8-2.1,7.3c-0.4,1.1-0.8,2.2-1.2,3.4c-0.1,0.2-0.4,1-0.5,1.3c0.1-0.3,0.1-0.3,0,0
		c-0.1,0.2-0.1,0.2,0,0c-0.1,0.3-0.4,0.9-0.4,0.9c-0.9,2-2,4-3.1,6c-0.6,1-1.3,2-2,3c-0.1,0.1-0.6,0.8-0.7,1
		c0.1-0.2,0.2-0.3,0.4-0.4c-0.3,0.4-0.4,0.5-0.4,0.4c-0.3,0.3-0.6,0.6-0.9,1l13.9,1.6c4.1-6.6,6.7-13.8,8.5-21.2L271.3,0.9z"/>
	<path class="st2" d="M369.4,130.7c5-1.4,9.7-3.5,14-6.1c0-0.2,0-0.3,0-0.4c-4.3,2.3-9,4.1-14,5.4
		C369.4,129.9,369.4,130.4,369.4,130.7z"/>
	<path class="st2" d="M381.8,168.4C381.8,168.6,381.8,168.6,381.8,168.4C381.8,168.2,381.8,168.1,381.8,168.4z"/>
	<path class="st2" d="M368.4,144c-1,11.4-1.5,22.5,1.1,33.7l13.3-3.6c-0.4-1.4-0.6-2.9-0.9-4.3c0-0.1-0.1-1-0.2-1.4c0,0.1,0,0.2,0,0
		c0-0.3,0-0.2,0,0c0-0.4-0.1-1.4-0.2-1.6c-0.3-2.5-0.4-5.1-0.4-7.6c0-5.3,0.5-10.6,1-15.9c0.5-5.6,0.9-11.3,1.1-16.8
		c-4.4,2.5-9.1,4.5-14,5.8C369.1,136.2,368.8,140.1,368.4,144z M380.8,135.3c-0.3,9.9-3.8,19.8-1.4,29.6c0.3,0.9-1.2,1.4-1.5,0.4
		c-2.5-10,1-20,1.4-30C379.3,134.4,380.8,134.4,380.8,135.3z M376.3,140.9c0.1-0.9,1.6-0.6,1.5,0.4c-0.9,6.1-2.8,12.8-1.5,18.9
		c0.2,0.9-1.3,1.4-1.5,0.4C373.4,154.2,375.3,147.3,376.3,140.9z"/>
	<path class="st2" d="M382.6,108c0.7,3.9-5.3,5.6-6,1.7c-0.4-2.1-0.5-4.1-0.4-6.1c-2.5,0.2-5,0.1-7.4-0.3c0,0.3,0,0.6,0,0.8
		c1,8.5,1,16.9,0.6,25.4c5-1.2,9.6-3.1,14-5.3c0.1-6.7-0.1-13.3-0.9-20.1c0-0.3-0.1-0.7-0.2-1.1C382.3,104.7,382.3,106.3,382.6,108z
		"/>
	<path class="st2" d="M374.4,97.4L374.4,97.4c-10.3,0.1-20.5-4.8-28.8-10.4c-2.7-1.8-5.3-3.9-7.5-6.3c-0.1,0.3-0.3,0.6-0.5,0.8
		c-1.1,2.2-4.4,0.3-3.3-1.9c0.4-0.7,0.7-1.4,1-2.1c-3.5-4.4-5.9-9.6-6.7-15.3l-6,1.7c1.8,11.8,9.6,21.3,19.1,28
		c7.8,5.4,17.4,10.1,27,11.4C368.9,100.4,371.6,98,374.4,97.4z"/>
	<path class="st2" d="M376.2,103.6c0-0.1,0-0.2,0-0.3c-0.4-0.2-0.8-0.6-0.9-1.2c-0.3-1.6-0.6-3.2-1-4.7c-2.8,0.6-5.5,3-5.6,5.9
		C371.3,103.6,373.7,103.7,376.2,103.6z"/>
	<path class="st2" d="M380.5,95.6c-0.3,0.9-1.7,0.6-1.5-0.4c0.8-3.3,2.1-6.6,3.6-9.7c-0.3-0.1-0.6-0.2-0.9-0.2c-1.5,3.3-3,6.6-4,9.9
		c0.1,0.7,0.4,1.3,0.5,2.1c0.8,0.2,1.3,0.7,1.6,1.3c1.3,1.1,2.1,2.7,2.5,4.4c0.4-4.6,2-9.1,4-13.2c0.5-1.2,1-2.3,1.6-3.4
		c-1.3-0.2-2.5-0.3-3.8-0.6C382.7,89,381.3,92.2,380.5,95.6z"/>
	<path class="st2" d="M393.9,35.7l-5.5,1.5c2.5,1.7,4.9,3.6,7.1,5.7C395.1,40.5,394.6,38,393.9,35.7z"/>
	<path class="st2" d="M386.7,74.1c-1.4,3.8-3.2,7.6-4.9,11.3c0.3,0.1,0.6,0.2,0.9,0.2c3-6.6,6.8-12.9,7.9-20.2
		c0.1-0.9,1.6-0.6,1.5,0.4c-1.1,7.3-4.8,13.6-7.9,20.1c1.3,0.3,2.5,0.4,3.8,0.6c1.1-2.4,2.3-4.8,3.4-7.3c-1.9-0.4-1.8-3.7,0.5-3.7
		c0.4,0,0.6-0.1,1-0.1c0.4-1,0.7-1.9,1-2.9c1.5-5.3,2.4-10.8,2.6-16.3c-0.4,0.2-0.7,0.3-1.1,0.5c-2.3,0.9-3.2-2.8-1-3.6
		c0.7-0.3,1.4-0.7,2.1-1c-0.1-3-0.4-6.1-0.9-9.1c-2.2-2-4.5-4-7.1-5.7l-0.5,0.2C391.3,49.4,390.9,62.3,386.7,74.1z"/>
	<path class="st2" d="M379.8,98.7c0.9,1.8-0.1,4.6-2.7,4.8c-0.3,0.1-0.6,0.1-1,0.1c-0.1,1.9,0,4,0.4,6.1c0.7,3.9,6.8,2.3,6-1.7
		c-0.3-1.7-0.4-3.3-0.3-4.9C381.9,101.3,381.1,99.8,379.8,98.7z"/>
	<path class="st2" d="M379.8,98.7c-0.3-0.7-0.9-1.2-1.6-1.3c0,0.2,0,0.3,0.1,0.4C378.8,98,379.3,98.3,379.8,98.7z"/>
	<path class="st2" d="M378.9,101.1c0.3,1.8-1.6,2.8-2.8,2.2c0,0.1,0,0.2,0,0.3c0.3,0,0.6-0.1,1-0.1c2.6-0.3,3.5-3.1,2.7-4.8
		c-0.5-0.3-1-0.7-1.5-0.9C378.5,98.9,378.8,100,378.9,101.1z"/>
	<path class="st2" d="M396.4,56.1c0.4-0.2,0.7-0.3,1-0.5v-4.3c-0.4,0.3-0.7,0.5-1,0.7C396.4,53.3,396.4,54.7,396.4,56.1z"/>
	<path class="st2" d="M395.3,56.5c0.4-0.2,0.7-0.3,1.1-0.5c0-1.4,0-2.8,0-4.2c-0.6,0.4-1.4,0.8-2.1,1
		C392.1,53.8,393.1,57.5,395.3,56.5z"/>
	<path class="st2" d="M341.1,59.8h-3.8c0.1,5.9,0.3,12.2-2,17.7c0.9,1.1,1.8,2.1,2.7,3.1C341.3,74.2,341.3,67,341.1,59.8z"/>
	<path class="st2" d="M337.6,81.6c0.1-0.3,0.3-0.6,0.5-0.8c-1-1-1.9-2.1-2.7-3.1c-0.3,0.7-0.6,1.4-1,2.1
		C333.3,81.8,336.5,83.7,337.6,81.6z"/>
	<path class="st2" d="M391.3,79.2c0.1,0.1,0.3,0.1,0.5,0.1c2-0.1,4-0.6,5.6-1.3v-4.3c-1.4,0.9-3,1.6-4.6,1.8
		C392.3,76.7,391.8,77.9,391.3,79.2z"/>
	<path class="st2" d="M391.3,79.2c0.5-1.3,1-2.5,1.5-3.8c-0.4,0.1-0.6,0.1-1,0.1C389.6,75.5,389.4,78.8,391.3,79.2z"/>
	<path class="st2" d="M375.6,97.3c0.3,0,0.5,0,0.9,0.1c0.2,0,0.4-0.1,0.6-0.1h0c0.1-0.7,0.4-1.3,0.5-1.9c-1-4-2.5-7.9-4.5-11.6
		c-0.8,2.3-4.4,1.3-3.6-1c0.2-0.7,0.4-1.4,0.5-2.1c-4.2-2.4-7.8-5.6-10.7-9.2l-1.4,2.3c9.4,4.6,14,13.9,16.3,23.5h0
		C374.8,97.3,375.3,97.3,375.6,97.3z"/>
	<path class="st2" d="M370.2,80.6c0.1-0.5,0.1-0.9,0.1-1.4c-2.7-3.6-6.1-6.6-10.4-8.6l-0.5,0.8C362.4,75.1,366,78.2,370.2,80.6z"/>
	<path class="st2" d="M375.6,97.3c-0.4,0-0.8,0.1-1.3,0.2c0.7,0,1.4-0.1,2.1-0.1C376.3,97.3,375.9,97.3,375.6,97.3z"/>
	<path class="st2" d="M374.4,97.3C374.4,97.3,374.4,97.3,374.4,97.3C374.4,97.4,374.4,97.4,374.4,97.3
		C374.4,97.4,374.4,97.4,374.4,97.3z"/>
	<path class="st2" d="M377.1,97.3L377.1,97.3c-0.3,0-0.4,0.1-0.6,0.1c0.2,0.1,0.4,0.1,0.6,0.1C377.1,97.3,377.1,97.3,377.1,97.3z"/>
	<path class="st2" d="M376.5,97.3c-0.7,0.1-1.4,0.1-2.1,0.1h0c0.4,1.6,0.7,3.2,1,4.7c0.1,0.7,0.5,1,0.9,1.2c0.1-2,0.5-4,1-5.9
		C376.9,97.3,376.7,97.3,376.5,97.3z"/>
	<path class="st2" d="M378.2,97.3c-0.1-0.7-0.3-1.3-0.5-2.1c-0.2,0.7-0.4,1.3-0.5,1.9C377.5,97.2,377.9,97.3,378.2,97.3z"/>
	<path class="st2" d="M377.1,97.4c0.4,0.1,0.8,0.2,1.2,0.4c0-0.2,0-0.3-0.1-0.4c-0.3-0.1-0.6-0.1-1-0.1
		C377.1,97.3,377.1,97.3,377.1,97.4z"/>
	<path class="st2" d="M378.9,101.1c-0.2-1.1-0.4-2.2-0.6-3.3c-0.4-0.2-0.8-0.3-1.2-0.4c-0.5,1.9-0.8,3.9-1,5.9
		C377.3,103.8,379.3,102.8,378.9,101.1z"/>
	<path class="st2" d="M373.3,83.8C373.3,83.7,373.3,83.7,373.3,83.8c0.1-0.4,0.3-0.8,0.4-1.3c-0.5-0.3-1-0.5-1.6-0.8
		C372.5,82.3,372.9,83.1,373.3,83.8z"/>
	<path class="st2" d="M373.6,82.4c1.2-5,0.2-10.3-2.9-14.5l-3.3,1.9c2,2.8,3,6.1,2.8,9.3c0.6,0.8,1.2,1.7,1.7,2.5
		C372.6,81.9,373.1,82.2,373.6,82.4z"/>
	<path class="st2" d="M370.2,80.6c-0.1,0.7-0.3,1.4-0.5,2.1c-0.8,2.3,2.9,3.3,3.6,1c-0.4-0.7-0.8-1.4-1.2-2.1
		C371.4,81.3,370.8,80.9,370.2,80.6z"/>
	<path class="st2" d="M372,81.7c-0.5-0.8-1.1-1.7-1.7-2.5c0,0.5-0.1,0.9-0.1,1.4C370.8,80.9,371.4,81.3,372,81.7z"/>
	<path class="st2" d="M352.4,133.1c-0.4,0-0.8,0.4-0.8,0.8s0.4,0.8,0.8,0.8c4.9,0,9.6-0.6,14.2-1.6c0-0.6,0-1.1,0.1-1.6
		C362.1,132.5,357.3,133.1,352.4,133.1z"/>
	<path class="st2" d="M383.4,124.7c0,0.6,0,1.3,0,1.8c3-1.8,6-3.8,8.6-6.1c2-1.7,3.9-3.5,5.5-5.4v-1.4c-2.5,2.6-5.3,4.9-8.3,7.1
		C387.3,122.1,385.4,123.4,383.4,124.7z"/>
	<path class="st2" d="M368.3,131.1c0,0.6,0,1.1,0,1.6c0.4-0.1,0.8-0.2,1.1-0.3c0-0.6,0-1.1,0.1-1.6
		C369,130.9,368.6,130.9,368.3,131.1z"/>
	<path class="st2" d="M389.2,120.7c3-2.1,5.8-4.4,8.3-7.1v-0.9C395,115.6,392.3,118.3,389.2,120.7z"/>
	<path class="st2" d="M369.4,130.7c0,0.6,0,1.1-0.1,1.6c5-1.4,9.6-3.3,14-5.8c0-0.6,0-1.3,0-1.8
		C379.1,127.2,374.4,129.3,369.4,130.7z"/>
	<path class="st2" d="M390.6,17.7c0,0.4,0.4,0.8,0.8,0.8c2,0,4.1,0.2,6.1,0.4v-1.5c-2-0.3-4-0.4-6.1-0.4
		C390.9,17,390.6,17.3,390.6,17.7z"/>
	<path class="st3" d="M263.1,1.8c0.1-0.6,0.2-1.2,0.3-1.8h-1.5c-0.1,0.4-0.1,0.9-0.3,1.4C261.5,2.3,263,2.8,263.1,1.8z"/>
	<path class="st3" d="M265.4,4.8c0.3-1.6,0.5-3.2,0.8-4.8h-1.5c-0.3,1.5-0.5,3-0.7,4.4C263.8,5.4,265.3,5.8,265.4,4.8z"/>
	<path class="st3" d="M377.9,165.3c0.3,0.9,1.6,0.6,1.5-0.4c-2.4-9.9,1.1-19.8,1.4-29.6c0-0.9-1.5-0.9-1.5,0
		C379,145.4,375.5,155.3,377.9,165.3z"/>
	<path class="st3" d="M376.3,160.2c-1.4-6.1,0.5-12.8,1.5-18.9c0.1-0.9-1.3-1.4-1.5-0.4c-1,6.4-2.9,13.3-1.5,19.6
		C375,161.6,376.4,161.1,376.3,160.2z"/>
	<path class="st3" d="M380.5,95.6c0.9-3.4,2.1-6.6,3.6-9.8c-0.5-0.1-1-0.2-1.5-0.3c-1.5,3.1-2.8,6.3-3.6,9.7
		C378.8,96.2,380.3,96.6,380.5,95.6z"/>
	<path class="st3" d="M392,65.8c0.1-0.9-1.3-1.3-1.5-0.4c-1.1,7.3-4.8,13.6-7.9,20.2c0.5,0.1,1,0.2,1.5,0.3
		C387.2,79.3,390.9,73,392,65.8z"/>
	<path d="M368.3,129.9c-0.5,0.1-1,0.2-1.5,0.3c0,0.4,0,0.9,0,1.3c0.5-0.1,1-0.3,1.5-0.4C368.3,130.6,368.3,130.3,368.3,129.9z"/>
	<path d="M365.7,145.9c-1,10.8-1.5,22.4,1.2,33.9c0.1,0.4,0.4,0.6,0.8,0.6c0,0,0.1,0,0.1,0c0.4-0.1,0.6-0.5,0.5-0.9
		c-2.6-11.4-2.1-22.8-1.1-33.4c0.4-4.2,0.8-8.8,1-13.4c-0.5,0.1-1,0.3-1.5,0.4C366.4,137.5,366,141.9,365.7,145.9z"/>
	<path d="M367.5,106.1c0-0.2,0-0.4,0-0.7c0-0.4-0.3-0.8-0.6-0.8c-10.8-1.4-20.5-6.9-26.7-11.3c-5.1-3.6-9.4-7.8-12.6-12.3
		c-0.3-0.3-0.7-0.4-1-0.2c-0.4,0.3-0.4,0.7-0.2,1.1c3.3,4.8,7.7,9.1,13,12.7c6.3,4.3,16,9.8,26.7,11.4c0,0.1,0,0.2,0,0.3
		c1,8.2,1,16.3,0.7,23.9c0.5-0.1,1-0.2,1.5-0.3C368.5,122.2,368.4,114.2,367.5,106.1z"/>
	<path d="M366.7,131.4c0,0.6,0,1.1-0.1,1.6c0.5-0.1,1-0.3,1.5-0.4c0-0.6,0-1.1,0-1.6C367.7,131.2,367.2,131.3,366.7,131.4z"/>
	<path d="M272.8,1.2c0-0.4,0.1-0.8,0.1-1.1h-1.5l-0.1,0.9c-0.5,3.4-1,6.8-1.9,10.2l-1.2,6.9l-5.6,14.5l-1.5-0.2c0,0,0,0.1-0.1,0.2
		c-0.5,0.9-1.1,1.8-1.7,2.6c-0.3,0.3-0.1,0.8,0.2,1c0.1,0.1,0.4,0.2,0.5,0.2c0.2,0,0.4-0.2,0.5-0.3c3.3-4.7,5.8-9.7,7.6-14.9
		c-1,2.6-2.1,5.1-3.4,7.6C268.8,20.2,271.1,10.8,272.8,1.2z"/>
	<path d="M272.8,1.2c-1.7,9.6-4,19-8.1,27.6c1.3-2.5,2.4-5,3.4-7.6c0-0.2,0.1-0.4,0.2-0.5C270.6,14.4,271.9,7.8,272.8,1.2z"/>
	<path d="M271.5,0L271.5,0c-0.1,0.3-0.1,0.6-0.1,0.9L271.5,0z"/>
	<path d="M268.3,18l1.3-6.9c-1.8,7.5-4.4,14.6-8.5,21.2l1.5,0.2L268.3,18z"/>
	<path class="st3" d="M131.4,52.8c0.6-0.3,1.2-0.5,1.8-0.8c-0.1-0.1-0.1-0.2-0.1-0.3c-0.6,0.3-1.2,0.5-1.9,0.7
		C131.3,52.5,131.4,52.7,131.4,52.8z"/>
	<path class="st1" d="M-0.2,112.7c6.4-7.7,10.5-17,11.3-27.1c0.1-0.4,0.4-0.7,0.8-0.7c0.4,0.1,0.7,0.4,0.7,0.8
		C12.2,91,10.9,96.1,8.8,101c2.8-5.5,4.6-11.6,5.1-17.9C9.6,85,4.8,86.2-0.2,86.6V112.7z"/>
	<path class="st1" d="M-0.2,15.4v2c20.3,2.5,35.9,17.8,35.9,36.1c0,4.2-0.8,8.3-2.4,12.2C35.7,61.2,37,56.2,37,51
		C37,32.5,20.7,17.2-0.2,15.4z"/>
	<path class="st1" d="M34.3,53.5c0-17.5-14.9-32.1-34.4-34.7v25.9C0.9,45.9,2,47.1,3,48.3c0.8-1,1.5-2,2.1-3.1l3.3,1.9
		c-0.8,1.5-1.9,3-3.1,4.3c5.5,8,8.8,17.6,8.8,27.8c0,1.3-0.1,2.7-0.1,3.9c3-1.3,5.9-2.9,8.4-4.8c0-0.1,0.1-0.1,0.1-0.2
		C30.1,71.6,34.3,62.8,34.3,53.5z"/>
	<path class="st1" d="M5.3,51.5c-1.5,1.7-3.4,3-5.4,4.2v18c1.6-1.2,2.9-2.7,3.7-4.6l3.6,1c-1.4,3.6-4,6.3-7.3,7.9v8.8
		c5-0.4,9.8-1.7,14.1-3.4c0.1-1.3,0.1-2.6,0.1-3.9C14.1,69,10.8,59.5,5.3,51.5z"/>
	<path class="st1" d="M3,48.4c-1-1.3-2-2.5-3.2-3.6v6.5C1,50.5,2.1,49.5,3,48.4z"/>
	<path class="st1" d="M141.9,24.9c-1,0.8-2,1.6-2.9,2.5v1.1c0.1,5.5,2.9,10.7,5.8,16c0.1,0.2,0.2,0.4,0.3,0.6
		c8.4-6,14.3-14.1,16.6-23.3c-5.4,2-11.4,3.1-17.8,3.1C143.2,25,142.6,25,141.9,24.9z"/>
	<path class="st1" d="M110,12.2c0.4,0.1,0.9,0.3,1.3,0.5c-3.9-3.6-6.8-7.9-8.7-12.6h-1.7c1.8,3.3,2.9,6.8,3.2,10.6
		C106.1,11,108,11.5,110,12.2z"/>
	<path class="st1" d="M102.5,19.9c-3.3-0.9-6.8-1.2-10.3-1.5c-7.8-0.7-15.9-1.4-21.7-8c-0.3-0.3-0.3-0.8,0.1-1.1
		c0.3-0.3,0.8-0.3,1.1,0.1c5.4,6.1,12.8,6.8,20.7,7.5c3.5,0.3,7.2,0.6,10.6,1.5c8,2,15.4,6.5,21,12.8c0.1,0.1,0.2,0.3,0.2,0.5
		c0.4,7.6,3.6,14.1,7.2,20.8c0.6-0.3,1.3-0.5,1.9-0.7c-3.8-7-7.3-14-7.8-22.1c-5.4-6.1-12.7-10.5-20.7-12.5
		c-10.7-2.7-23.5,0-31.7-9.2l4.4-4.4c3.9,4.4,9.9,5.4,15.6,5.8c2.4,0.2,4.8,0.4,7.3,0.7C99.8,6.4,98.6,3,96.5,0H58
		c-1.7,4.2-2.7,8.7-2.7,13.4c0,23.7,24,42.9,53.7,42.9c7.4,0,14.4-1.2,20.8-3.3c-3.4-6.5-6.8-13.3-7.3-21
		C117.2,26,110.1,21.8,102.5,19.9z"/>
	<path class="st1" d="M131.2,27c0.1-0.1,0.1-0.2,0.2-0.3c-0.1-1.1-0.2-2.2-0.4-3.3c-1.6-0.4-3.2-0.9-4.7-1.5
		C128.1,23.5,129.7,25.2,131.2,27z"/>
	<path class="st1" d="M182.4,5.4c1.1-1.7,2-3.5,2.7-5.4h-0.5C184.1,1.9,183.3,3.7,182.4,5.4z"/>
	<path class="st1" d="M173.8,14.3c4.4-4.1,7.6-9,9.3-14.3h-16.4c-1.2,2.8-2.6,5.4-4.4,7.9c0.3,1.8,0.4,3.6,0.4,5.4
		c0,2.9-0.4,5.7-1.1,8.4c4.4-1.6,8.4-4,11.9-6.6C173.4,14.9,173.5,14.5,173.8,14.3z"/>
	<path class="st1" d="M162.3,8c-0.6,0.9-1.3,1.8-1.9,2.6c-4.4,5.3-10.4,8.7-15.9,12.5c-0.9,0.6-1.7,1.2-2.5,1.9c0.6,0,1.3,0,1.9,0
		c6.4,0,12.4-1.2,17.8-3.2c0.7-2.8,1.1-5.5,1.1-8.4C162.7,11.5,162.5,9.7,162.3,8z"/>
	<path class="st1" d="M156.3,5.6c1.4-1.8,2.6-3.6,3.6-5.6h-8.1C152.9,2,154.4,3.9,156.3,5.6z"/>
	<path class="st1" d="M111.3,12.7c5.6,2.1,10.7,5.3,15.1,9.2c1.5,0.5,3.1,1,4.7,1.5c-0.3-1.9-0.6-3.8-1.2-5.6
		c-1-3.2-2.7-6.1-4.4-8.9c-1.7-2.8-3.4-5.8-4.7-8.9h-18.2C104.5,4.7,107.4,9,111.3,12.7z"/>
	<path class="st1" d="M129.1,7.7c0.4,0.8,0.9,1.4,1.3,2.2c2.4,4.3,3.6,8.6,4.3,13.1c5.6-5.2,13-8.9,18.5-14.1
		c0.2-0.2,0.4-0.4,0.6-0.6c-2.6-2.4-4.8-5.3-6.5-8.4h-14.8c-0.6,2.5-1.6,4.8-2.9,7.1C129.5,7.4,129.3,7.6,129.1,7.7z"/>
	<path class="st1" d="M128.7,0h-3.9c0.7,1.4,1.4,2.8,2.2,4.2C127.7,2.8,128.2,1.5,128.7,0z"/>
	<path class="st2" d="M8.4,47.2l-3.3-1.9c-0.6,1.1-1.3,2.2-2.1,3.1c0.8,1,1.5,2,2.3,3C6.5,50.2,7.5,48.8,8.4,47.2z"/>
	<path class="st2" d="M3,48.4c-1,1.1-2,2-3.2,2.8v4.3c2-1.1,3.9-2.5,5.4-4.2C4.6,50.4,3.8,49.3,3,48.4z"/>
	<path class="st2" d="M7.1,69.9l-3.6-1c-0.8,1.9-2,3.5-3.7,4.6v4.3C3.1,76.3,5.7,73.5,7.1,69.9z"/>
	<path class="st2" d="M135.2,51C135.2,51,135.1,51,135.2,51c-0.1-0.1-0.1-0.1-0.1-0.1c-0.6,0.3-1.3,0.5-1.9,0.8
		c0.1,0.1,0.1,0.2,0.1,0.3C133.9,51.7,134.5,51.4,135.2,51z"/>
	<path class="st2" d="M138.8,49.1c-0.8,0.4-1.6,0.8-2.4,1.2c0,0,0.1,0.1,0.1,0.1C137.3,50,138,49.5,138.8,49.1z"/>
	<path class="st2" d="M140.4,49c0.2,0.3,0.1,0.8-0.3,1c-0.9,0.6-1.9,1.2-2.9,1.7c4.8,8.7,8.4,17.5,9.9,27.5c0.1,0.9-1.3,1.3-1.4,0.4
		c-1.6-9.8-5.1-18.5-9.8-27.2c-0.6,0.3-1.3,0.7-1.9,0.9c2.1,4,4.2,7.9,5.8,12.1c4.6,12.7,5.9,25.9,7.3,39.2h13.8
		c-1.4-13.8-2.8-27.9-7.2-41.2c-2.1-6.5-5.2-12.4-8.4-18.3c-1.8,1.3-3.6,2.5-5.5,3.5C139.9,48.5,140.2,48.7,140.4,49z M145.4,62.5
		c2.4,7.4,4.3,14.9,5.8,22.5c0.2,0.9-1.3,1.3-1.4,0.4c-1.5-7.6-3.4-15.2-5.8-22.5C143.7,62,145.2,61.7,145.4,62.5z"/>
	<path class="st2" d="M139,28.6v-1.1c-1.6,1.6-3,3.4-4,5.3c0.1,1-0.4,1.8-1,2.3c-0.3,0.8-0.4,1.5-0.6,2.3c-0.7,4-6.8,2.3-6.1-1.7
		c0.2-1,0.4-1.8,0.7-2.8c-0.8-1.2-1.8-2.3-2.8-3.4c0.4,8.1,4.1,15.1,7.8,22.1c0.6-0.3,1.3-0.5,1.9-0.8c-0.4-0.8,0.9-1.5,1.4-0.7
		c0,0,0,0,0.1,0c0.8-0.4,1.6-0.8,2.4-1.2c0.2-0.1,0.4-0.3,0.6-0.3c0.1,0,0.1,0,0.2-0.1c1.9-1,3.8-2.3,5.5-3.5
		c-0.1-0.2-0.2-0.4-0.3-0.6C141.9,39.3,139.1,34.2,139,28.6z"/>
	<path class="st2" d="M130.8,27.5c0.1-0.2,0.3-0.4,0.4-0.5c-1.5-1.8-3.1-3.5-4.8-5c-5.8-2.1-10.9-5.3-15.1-9.2
		c-0.4-0.1-0.8-0.4-1.3-0.5c-1.9-0.7-3.9-1.1-5.9-1.6c0.1,0.9,0.1,1.8,0.1,2.7c-0.1,2.4-3.8,2.4-3.8,0c0.1-1.1-0.1-2.2-0.2-3.3
		c-2.4-0.3-4.8-0.5-7.3-0.7C87.4,8.9,81.4,8,77.4,3.5L73,7.9c8.2,9.2,20.9,6.4,31.7,9.2c7.9,2,15.2,6.4,20.7,12.5
		c0-0.4-0.1-0.7-0.1-1L130.8,27.5z"/>
	<path class="st2" d="M111.3,12.7c4.2,3.9,9.3,7.1,15.1,9.2C122,17.9,116.9,14.8,111.3,12.7z"/>
	<path class="st2" d="M125.3,28.6c0,0.3,0.1,0.7,0.1,1c0.9,1.1,1.9,2.2,2.8,3.4c0.6-2,1.6-3.8,2.8-5.5L125.3,28.6z"/>
	<path class="st2" d="M135,32.8c-0.4,0.8-0.8,1.5-1,2.3C134.7,34.5,135.1,33.7,135,32.8z"/>
	<path class="st2" d="M135.1,26.7l3.9-0.8v1.6c0.9-0.9,1.9-1.8,2.9-2.5c-2.4-0.1-4.8-0.3-7.1-0.8C134.9,25,135.1,25.8,135.1,26.7z"
		/>
	<path class="st2" d="M131.4,26.7c-0.1,0.1-0.1,0.2-0.2,0.3c0.1,0.1,0.1,0.2,0.3,0.3C131.4,27,131.4,26.9,131.4,26.7z"/>
	<path class="st2" d="M163.8,0H160c0.6,1.4,1.1,2.8,1.4,4.3C162.3,2.9,163.1,1.5,163.8,0z"/>
	<path class="st2" d="M162.3,8c1.8-2.5,3.2-5.2,4.4-7.9h-1.3c-0.9,2.2-2.1,4.3-3.4,6.3C162.1,6.8,162.2,7.4,162.3,8z"/>
	<path class="st2" d="M157.2,6.4c1.9,1.5-0.8,4.2-2.6,2.7c-0.3-0.2-0.5-0.4-0.8-0.7c-0.2,0.2-0.4,0.4-0.6,0.6
		c-5.5,5.2-12.9,9-18.5,14.1c0.1,0.4,0.1,0.8,0.1,1.1c2.3,0.4,4.6,0.6,7.1,0.8c0.8-0.7,1.6-1.3,2.5-1.9c5.5-3.9,11.5-7.3,15.9-12.5
		c0.7-0.9,1.4-1.7,1.9-2.6c-0.1-0.6-0.2-1.1-0.3-1.7c-1.3,1.9-2.9,3.7-4.7,5.3c-0.7,0.6-1.8-0.4-1.1-1.1c2.1-1.9,3.9-3.9,5.3-6.2
		C161,2.8,160.5,1.3,160,0h-0.3c-1,2-2.1,3.8-3.6,5.6C156.6,5.9,156.9,6.2,157.2,6.4z"/>
	<path class="st2" d="M129.1,34.5c-0.4-0.5-0.7-1-1.1-1.5c-0.3,0.9-0.5,1.8-0.7,2.8c-0.7,4,5.3,5.6,6.1,1.7c0.1-0.8,0.4-1.5,0.6-2.3
		C132.7,36.3,130.4,36.5,129.1,34.5z"/>
	<path class="st2" d="M135.1,26.7c0.1,0.8,0.1,1.6,0.2,2.4c0.1,1-0.5,1.6-1.3,1.8c0.1,0.2,0.3,0.4,0.4,0.6c0.3,0.5,0.4,0.9,0.5,1.3
		c1.1-2,2.4-3.7,4-5.3v-1.6L135.1,26.7z"/>
	<path class="st2" d="M131.2,27c-0.1,0.2-0.3,0.4-0.4,0.5l0.6-0.1c0,0,0-0.1,0-0.1C131.4,27.2,131.3,27,131.2,27z"/>
	<path class="st2" d="M134.1,30.8c-1.1,0.3-2.4-0.3-2.5-1.8c-0.1-0.5-0.1-1.1-0.1-1.7l-0.6,0.2c-1.1,1.7-2.1,3.5-2.8,5.5
		c0.4,0.5,0.7,1,1.1,1.5c1.3,1.9,3.6,1.7,4.9,0.5c0.3-0.8,0.6-1.6,1-2.3c-0.1-0.5-0.2-0.9-0.5-1.3C134.4,31.2,134.2,31,134.1,30.8z"
		/>
	<path class="st2" d="M104.1,10.7c-0.3-3.8-1.4-7.3-3.2-10.6h-4.4c2.1,3,3.3,6.4,3.8,10.1C101.6,10.2,102.8,10.4,104.1,10.7z"/>
	<path class="st2" d="M100.4,13.4c-0.1,2.4,3.7,2.4,3.8,0c0-0.9,0-1.8-0.1-2.7c-1.3-0.3-2.6-0.4-3.8-0.6
		C100.4,11.2,100.5,12.3,100.4,13.4z"/>
	<path class="st2" d="M153.8,8.4c0.9-0.9,1.7-1.8,2.5-2.8c-1.8-1.7-3.3-3.5-4.6-5.6h-4.4C148.9,3.1,151.1,6,153.8,8.4z"/>
	<path class="st2" d="M157.2,6.4c-0.3-0.3-0.6-0.6-0.9-0.8c-0.8,0.9-1.6,1.9-2.5,2.8c0.3,0.3,0.5,0.4,0.8,0.7
		C156.4,10.6,159,8,157.2,6.4z"/>
	<path class="st2" d="M133.8,24c-0.9-0.2-1.9-0.4-2.7-0.6c0.1,1.1,0.3,2.2,0.4,3.3C132.1,25.7,132.9,24.8,133.8,24z"/>
	<path class="st2" d="M129.8,17.7c0.6,1.9,0.9,3.8,1.2,5.7c0.9,0.3,1.8,0.5,2.7,0.6c0.3-0.3,0.6-0.6,0.9-0.9
		c-0.7-4.6-1.9-8.9-4.3-13.2c-0.4-0.8-0.9-1.4-1.3-2.2c-1.4,1-3.8-0.7-2.7-2.5c0.2-0.3,0.4-0.7,0.6-1.1c-0.8-1.3-1.6-2.8-2.2-4.2
		h-4.1c1.2,3,2.9,6,4.7,8.9C127.1,11.7,128.8,14.5,129.8,17.7z"/>
	<path class="st2" d="M131.4,27.3c0.1,0,0.1,0,0.1,0.1l3.6-0.7c-0.1-0.9-0.2-1.7-0.3-2.5c-0.4,0-0.7-0.2-1.1-0.2
		c-0.9,0.8-1.6,1.8-2.4,2.7C131.4,26.9,131.4,27,131.4,27.3z"/>
	<path class="st2" d="M134.7,23c-0.3,0.3-0.6,0.6-0.9,0.9c0.4,0,0.7,0.1,1.1,0.2C134.8,23.8,134.7,23.5,134.7,23z"/>
	<path class="st2" d="M134.1,30.8c0.8-0.1,1.4-0.8,1.3-1.8c-0.1-0.8-0.1-1.6-0.2-2.4l-3.6,0.7C132.4,28.5,133.3,29.6,134.1,30.8z"/>
	<path class="st2" d="M131.4,27.3c0,0,0,0.1,0,0.1h0.1C131.5,27.4,131.4,27.3,131.4,27.3z"/>
	<path class="st2" d="M131.4,27.4c0.1,0.5,0.1,1.1,0.1,1.7c0.1,1.4,1.4,2,2.5,1.8C133.3,29.7,132.4,28.5,131.4,27.4L131.4,27.4z"/>
	<path class="st2" d="M129.1,7.7c0.2-0.2,0.4-0.3,0.6-0.6c1.3-2.3,2.3-4.7,2.9-7.1h-3.9c-0.4,1.5-1,2.8-1.7,4.2
		C127.7,5.4,128.4,6.6,129.1,7.7z"/>
	<path class="st2" d="M-0.2,115.1c3.8-4.3,6.8-8.9,9-14c-2.3,4.6-5.3,8.8-9,12.6V115.1z"/>
	<path class="st2" d="M126.4,5.2c-1.1,1.8,1.3,3.5,2.7,2.5c-0.7-1.2-1.4-2.3-2.2-3.6C126.8,4.5,126.6,4.9,126.4,5.2z"/>
	<path class="st2" d="M12,84.9c-0.4-0.1-0.8,0.3-0.8,0.7C10.3,95.7,6.2,105-0.2,112.7v0.9c3.6-3.8,6.7-8,9-12.6
		c2.1-4.8,3.4-10,3.9-15.3C12.7,85.3,12.4,84.9,12,84.9z"/>
	<path class="st2" d="M22.3,78.3c-0.1,0.3-0.1,0.7,0,0.9c0.1,0.2,0.4,0.3,0.5,0.3c0.1,0,0.4-0.1,0.5-0.2c4.5-3.9,7.9-8.6,9.9-13.6
		C30.8,70.6,27,74.9,22.3,78.3z"/>
	<path class="st2" d="M-0.2,17.4v1.5C19.3,21.4,34.3,36,34.3,53.5c0,9.3-4.2,18.1-11.8,24.7c0,0.1-0.1,0.1-0.1,0.2
		c4.7-3.4,8.5-7.8,11.1-12.7c1.5-3.8,2.4-8,2.4-12.2C35.8,35.2,20.1,20-0.2,17.4z"/>
	<path class="st2" d="M173.6,15.1c0.1,0.1,0.1,0.1,0.1,0.2c0.1,0.1,0.4,0.3,0.6,0.3s0.4-0.1,0.5-0.2c3.2-3,5.8-6.4,7.6-10
		C180.2,9.1,177.2,12.3,173.6,15.1z"/>
	<path class="st2" d="M183.1,0c-1.8,5.3-4.9,10.1-9.3,14.3c-0.3,0.2-0.3,0.6-0.1,0.9c3.6-2.8,6.6-6.1,8.9-9.8
		c0.9-1.8,1.6-3.5,2.2-5.4L183.1,0L183.1,0z"/>
	<path class="st2" d="M131.4,52.8c0.3,0.5,0.5,0.9,0.7,1.3c0.6-0.3,1.2-0.5,1.8-0.8c-0.3-0.5-0.5-0.9-0.7-1.3
		C132.7,52.3,132.1,52.5,131.4,52.8z"/>
	<path class="st2" d="M107,57.5c-22,0-41.9-11-49.6-27.5c-0.2-0.4-0.6-0.5-1-0.3s-0.6,0.6-0.3,1C64,47.7,84.5,59.1,107,59.1
		c8.3,0,16.4-1.5,23.8-4.3c-0.3-0.5-0.5-0.9-0.7-1.3C122.9,56.1,115.1,57.5,107,57.5z"/>
	<path class="st2" d="M135.2,51c-0.6,0.3-1.3,0.6-1.9,0.9c0.3,0.5,0.5,0.9,0.7,1.3c0.6-0.3,1.3-0.6,1.9-0.9
		C135.6,52,135.4,51.5,135.2,51z"/>
	<path class="st2" d="M137.2,51.7c1-0.5,2-1.1,2.9-1.7c0.4-0.2,0.4-0.7,0.3-1c-0.2-0.3-0.5-0.4-0.8-0.3c-0.3,0.2-0.6,0.3-0.9,0.5
		c-0.8,0.5-1.5,0.9-2.3,1.3C136.7,50.8,136.9,51.3,137.2,51.7z"/>
	<path class="st2" d="M139.4,48.7c-0.2,0.2-0.4,0.3-0.6,0.3c0.3-0.2,0.6-0.3,0.9-0.5C139.5,48.7,139.4,48.7,139.4,48.7z"/>
	<path class="st3" d="M145.7,79.5c0.1,0.9,1.6,0.6,1.4-0.4c-1.6-9.9-5.1-18.8-9.9-27.5c-0.4,0.3-0.9,0.5-1.4,0.7
		C140.6,61,144.1,69.8,145.7,79.5z"/>
	<path class="st3" d="M135.2,51c0.4-0.3,0.9-0.5,1.4-0.7c0,0-0.1-0.1-0.1-0.1c-0.4,0.2-0.9,0.4-1.4,0.7
		C135.1,50.9,135.1,51,135.2,51C135.1,51,135.1,51,135.2,51z"/>
	<path class="st3" d="M136.4,50.2c-0.4-0.8-1.7-0.2-1.4,0.7C135.4,50.7,135.9,50.5,136.4,50.2C136.4,50.3,136.4,50.2,136.4,50.2z"/>
	<path class="st3" d="M135.2,51c0.3,0.5,0.5,0.8,0.8,1.3c0.4-0.3,0.9-0.5,1.4-0.7c-0.3-0.5-0.5-0.8-0.8-1.3
		C136,50.6,135.6,50.8,135.2,51z"/>
	<path class="st3" d="M149.8,85.5c0.2,0.9,1.6,0.6,1.4-0.4c-1.5-7.6-3.4-15.2-5.8-22.5c-0.3-0.9-1.8-0.5-1.4,0.4
		C146.4,70.3,148.3,77.9,149.8,85.5z"/>
	<path class="st3" d="M161.9,6.3c1.4-1.9,2.5-4.1,3.4-6.3h-1.6c-0.6,1.5-1.4,2.9-2.3,4.3C161.7,5,161.8,5.6,161.9,6.3z"/>
	<path class="st3" d="M156.2,10.5c-0.8,0.6,0.4,1.7,1.1,1.1c1.8-1.6,3.4-3.4,4.7-5.3c-0.1-0.7-0.3-1.3-0.5-2
		C160.1,6.5,158.3,8.6,156.2,10.5z"/>
	<path d="M130.9,55c2.2,4.1,4.5,8.4,6.1,12.7c2.6,7.2,4.4,15.1,5.8,25.4c0.1,0.4,0.4,0.7,0.8,0.7c0.1,0,0.1,0,0.1,0
		c0.4-0.1,0.7-0.4,0.6-0.8c-1.4-10.4-3.1-18.3-5.8-25.7c-1.6-4.5-3.9-8.8-6.2-13c0,0-0.1-0.1-0.1-0.2c-0.4,0.2-0.9,0.4-1.4,0.5
		C130.8,54.8,130.9,54.8,130.9,55z"/>
	<path d="M131.3,52.4c-0.4,0.2-0.9,0.3-1.4,0.5c0.1,0.2,0.1,0.3,0.2,0.4c0.4-0.2,0.9-0.4,1.4-0.5C131.4,52.7,131.3,52.5,131.3,52.4z
		"/>
	<path d="M124.1,31.6c0-0.2-0.1-0.4-0.2-0.5c-5.6-6.2-13-10.8-21-12.8c-3.4-0.9-7.1-1.2-10.6-1.5c-7.8-0.7-15.3-1.4-20.7-7.5
		c-0.3-0.3-0.8-0.4-1.1-0.1s-0.3,0.8-0.1,1.1c5.8,6.5,13.9,7.3,21.7,8c3.4,0.3,7.1,0.6,10.3,1.5c7.7,2,14.8,6.2,20.1,12.1
		c0.5,7.8,3.8,14.5,7.3,21c0.5-0.2,0.9-0.3,1.4-0.5C127.7,45.7,124.5,39.2,124.1,31.6z"/>
	<path d="M130.1,53.3c0.3,0.5,0.5,0.9,0.7,1.3c0.4-0.2,0.9-0.4,1.4-0.5c-0.3-0.5-0.5-0.9-0.7-1.3C130.9,53,130.5,53.2,130.1,53.3z"
		/>
</g>
</svg>
