<?xml version="1.0" encoding="utf-8"?>
<!-- Generator: Adobe Illustrator 20.1.0, SVG Export Plug-In . SVG Version: 6.00 Build 0)  -->
<svg version="1.1" id="Layer_1" xmlns="http://www.w3.org/2000/svg" xmlns:xlink="http://www.w3.org/1999/xlink" x="0px" y="0px"
	 viewBox="0 0 620.7 85.4" style="enable-background:new 0 0 620.7 85.4;" xml:space="preserve">
<style type="text/css">
	.st0{fill:#FFF0D5;}
	.st1{fill:none;stroke:#000000;stroke-width:2;stroke-miterlimit:10;}
</style>
<g>
	<path class="st0" d="M23.7,71.6c-5.4,3-12.2,3-17.5,0c-2.4-1.5-3.2-4.5-1.9-6.9c1.4-2.4,4.5-3.2,6.9-1.9c2.3,1.4,5.1,1.4,7.5,0
		c2.3-1.2,3.7-3.7,3.7-6.4V8.5c0-2.7,2.2-5,5-5c2.7,0,5,2.3,5,5v47.8C32.5,62.6,29,68.4,23.7,71.6z"/>
	<path class="st0" d="M41.6,56.4V21c0-9.7,7.8-17.5,17.5-17.5S76.6,11.3,76.6,21v35.4c0,9.7-7.8,17.5-17.5,17.5S41.6,66,41.6,56.4z
		 M51.6,21v35.4c0,4.2,3.3,7.5,7.5,7.5s7.5-3.3,7.5-7.5V21c0-4.2-3.3-7.5-7.5-7.5S51.6,16.8,51.6,21z"/>
	<path class="st0" d="M123.6,67.5c0.7,2.7-0.8,5.4-3.4,6.1c-2.7,0.7-5.4-0.8-6.1-3.4c0,0-1.2-4.5-3-10.9H93.3
		c-1.8,6.4-3,10.9-3,10.9c-0.7,2.6-3.4,4.2-6.1,3.4c-2.6-0.7-4.2-3.4-3.4-6.1L97.4,7.2c0.5-2.2,2.5-3.6,4.8-3.6s4.3,1.5,4.8,3.6
		L123.6,67.5z M108.2,49.3c-2-7.2-4.2-15.2-6-21.9c-1.9,6.8-4.1,14.8-6,21.9H108.2z"/>
	<path class="st0" d="M159.7,71c0,0-11-22.8-19.7-40.7c0,17.8,0,38.5,0,38.5c0,2.8-2.3,5-5,5c-2.8,0-5-2.2-5-5V8.5
		c0-2.3,1.6-4.4,3.8-4.9c2.3-0.5,4.6,0.6,5.6,2.7c0,0,11,22.8,19.7,40.7c0-17.8,0-38.5,0-38.5c0-2.7,2.2-5,5-5c2.7,0,5,2.3,5,5v60.3
		c0,2.3-1.7,4.4-3.8,4.9C163,74.3,160.6,73.1,159.7,71z"/>
	<path class="st0" d="M209.6,71c0,0-11-22.8-19.7-40.7c0,17.8,0,38.5,0,38.5c0,2.8-2.3,5-5,5c-2.8,0-5-2.2-5-5V8.5
		c0-2.3,1.6-4.4,3.8-4.9c2.3-0.5,4.6,0.6,5.6,2.7c0,0,11,22.8,19.7,40.7c0-17.8,0-38.5,0-38.5c0-2.7,2.2-5,5-5c2.7,0,5,2.3,5,5v60.3
		c0,2.3-1.7,4.4-3.8,4.9C212.9,74.3,210.5,73.1,209.6,71z"/>
	<path class="st0" d="M234.8,4h20.8c2.8,0,5,2.3,5,5c0,2.8-2.2,5-5,5h-15.8v18.7h13.7c2.8,0,5,2.3,5,5c0,2.8-2.2,5-5,5h-13.7v20.8
		h15.8c2.8,0,5,2.3,5,5c0,2.8-2.2,5-5,5h-20.8c-2.7,0-5-2.2-5-5V8.9C229.9,6.2,232.1,4,234.8,4z"/>
	<path class="st0" d="M326.6,67.5c0.7,2.7-0.8,5.4-3.4,6.1c-2.7,0.7-5.4-0.8-6.1-3.4c0,0-1.2-4.5-3-10.9h-17.7
		c-1.8,6.4-3,10.9-3,10.9c-0.7,2.6-3.4,4.2-6.1,3.4c-2.6-0.7-4.2-3.4-3.4-6.1l16.6-60.3c0.5-2.2,2.5-3.6,4.8-3.6s4.3,1.5,4.8,3.6
		L326.6,67.5z M311.2,49.3c-2-7.2-4.2-15.2-6-21.9c-1.9,6.8-4.1,14.8-6,21.9H311.2z"/>
	<path class="st0" d="M358.6,42.7l9,24.3c1,2.6-0.3,5.5-2.9,6.4c-2.6,0.9-5.4-0.3-6.4-2.9l-9.7-25.9H343v24.1c0,2.8-2.2,5-5,5
		c-2.7,0-5-2.2-5-5V8.9c0-2.7,2.3-5,5-5h12.5c9.7,0,17.5,7.8,17.5,17.5v5.8C368,34,364.2,39.8,358.6,42.7z M343,34.7h7.5
		c4.2,0,7.5-3.3,7.5-7.5v-5.8c0-4.2-3.3-7.5-7.5-7.5H343V34.7z"/>
	<path class="st0" d="M405.9,37.6c3.2,3.2,5.3,7.6,5.3,12.5V56c0,9.7-7.9,17.5-17.5,17.5h-12.5c-2.8,0-5-2.2-5-5V8.9
		c0-2.7,2.2-5,5-5h12.5c9.6,0,17.5,7.8,17.5,17.5v3.7C411.2,30.1,409.1,34.5,405.9,37.6z M393.8,32.7c4.2,0,7.5-3.3,7.5-7.5v-3.7
		c0-4.2-3.3-7.5-7.5-7.5h-7.5v18.7H393.8z M393.8,42.6h-7.5v20.8h7.5c4.2,0,7.5-3.3,7.5-7.5v-5.8C401.2,46,397.9,42.6,393.8,42.6z"
		/>
	<path class="st0" d="M419.5,56.4V21c0-9.7,7.8-17.5,17.5-17.5s17.5,7.8,17.5,17.5v35.4c0,9.7-7.8,17.5-17.5,17.5
		S419.5,66,419.5,56.4z M429.5,21v35.4c0,4.2,3.3,7.5,7.5,7.5s7.5-3.3,7.5-7.5V21c0-4.2-3.3-7.5-7.5-7.5S429.5,16.8,429.5,21z"/>
	<path class="st0" d="M464.1,68.4V8.5c0-2.7,2.2-5,5-5c2.7,0,5,2.3,5,5v54.9h15.8c2.7,0,5,2.3,5,5c0,2.8-2.3,5-5,5H469
		C466.2,73.4,464.1,71.2,464.1,68.4z"/>
	<path class="st0" d="M505.2,4H526c2.8,0,5,2.3,5,5c0,2.8-2.2,5-5,5h-15.8v18.7H524c2.8,0,5,2.3,5,5c0,2.8-2.2,5-5,5h-13.7v20.8H526
		c2.8,0,5,2.3,5,5c0,2.8-2.2,5-5,5h-20.8c-2.7,0-5-2.2-5-5V8.9C500.2,6.2,502.5,4,505.2,4z"/>
	<path class="st0" d="M556,4c9.7,0,17.5,7.8,17.5,17.5V56c0,9.7-7.8,17.5-17.5,17.5h-12.5c-2.8,0-5-2.2-5-5V8.9c0-2.7,2.2-5,5-5H556
		z M556,13.9h-7.5v49.5h7.5c4.2,0,7.5-3.3,7.5-7.5V21.4C563.5,17.3,560.2,13.9,556,13.9z"/>
	<path class="st0" d="M620.5,67.5c0.7,2.7-0.8,5.4-3.4,6.1c-2.7,0.7-5.4-0.8-6.1-3.4c0,0-1.2-4.5-3-10.9h-17.7
		c-1.8,6.4-3,10.9-3,10.9c-0.7,2.6-3.4,4.2-6.1,3.4c-2.6-0.7-4.2-3.4-3.4-6.1l16.6-60.3c0.5-2.2,2.5-3.6,4.8-3.6s4.3,1.5,4.8,3.6
		L620.5,67.5z M605.1,49.3c-2-7.2-4.2-15.2-6-21.9c-1.9,6.8-4.1,14.8-6,21.9H605.1z"/>
</g>
<g>
	<path class="st1" d="M21.7,74.6c-5.4,3-12.2,3-17.5,0c-2.4-1.5-3.2-4.5-1.9-6.9c1.4-2.4,4.5-3.2,6.9-1.9c2.3,1.4,5.1,1.4,7.5,0
		c2.3-1.2,3.7-3.7,3.7-6.4V11.5c0-2.7,2.2-5,5-5c2.7,0,5,2.3,5,5v47.8C30.5,65.6,27,71.4,21.7,74.6z"/>
	<path class="st1" d="M39.6,59.4V24c0-9.7,7.8-17.5,17.5-17.5S74.6,14.3,74.6,24v35.4c0,9.7-7.8,17.5-17.5,17.5S39.6,69,39.6,59.4z
		 M49.6,24v35.4c0,4.2,3.3,7.5,7.5,7.5s7.5-3.3,7.5-7.5V24c0-4.2-3.3-7.5-7.5-7.5S49.6,19.8,49.6,24z"/>
	<path class="st1" d="M121.6,70.5c0.7,2.7-0.8,5.4-3.4,6.1c-2.7,0.7-5.4-0.8-6.1-3.4c0,0-1.2-4.5-3-10.9H91.3
		c-1.8,6.4-3,10.9-3,10.9c-0.7,2.6-3.4,4.2-6.1,3.4c-2.6-0.7-4.2-3.4-3.4-6.1l16.6-60.3c0.5-2.2,2.5-3.6,4.8-3.6s4.3,1.5,4.8,3.6
		L121.6,70.5z M106.2,52.3c-2-7.2-4.2-15.2-6-21.9c-1.9,6.8-4.1,14.8-6,21.9H106.2z"/>
	<path class="st1" d="M157.7,74c0,0-11-22.8-19.7-40.7c0,17.8,0,38.5,0,38.5c0,2.8-2.3,5-5,5c-2.8,0-5-2.2-5-5V11.5
		c0-2.3,1.6-4.4,3.8-4.9c2.3-0.5,4.6,0.6,5.6,2.7c0,0,11,22.8,19.7,40.7c0-17.8,0-38.5,0-38.5c0-2.7,2.2-5,5-5c2.7,0,5,2.3,5,5v60.3
		c0,2.3-1.7,4.4-3.8,4.9C161,77.3,158.6,76.1,157.7,74z"/>
	<path class="st1" d="M207.6,74c0,0-11-22.8-19.7-40.7c0,17.8,0,38.5,0,38.5c0,2.8-2.3,5-5,5c-2.8,0-5-2.2-5-5V11.5
		c0-2.3,1.6-4.4,3.8-4.9c2.3-0.5,4.6,0.6,5.6,2.7c0,0,11,22.8,19.7,40.7c0-17.8,0-38.5,0-38.5c0-2.7,2.2-5,5-5c2.7,0,5,2.3,5,5v60.3
		c0,2.3-1.7,4.4-3.8,4.9C210.9,77.3,208.5,76.1,207.6,74z"/>
	<path class="st1" d="M232.8,7h20.8c2.8,0,5,2.3,5,5c0,2.8-2.2,5-5,5h-15.8v18.7h13.7c2.8,0,5,2.3,5,5c0,2.8-2.2,5-5,5h-13.7v20.8
		h15.8c2.8,0,5,2.3,5,5c0,2.8-2.2,5-5,5h-20.8c-2.7,0-5-2.2-5-5V11.9C227.9,9.2,230.1,7,232.8,7z"/>
	<path class="st1" d="M324.6,70.5c0.7,2.7-0.8,5.4-3.4,6.1c-2.7,0.7-5.4-0.8-6.1-3.4c0,0-1.2-4.5-3-10.9h-17.7
		c-1.8,6.4-3,10.9-3,10.9c-0.7,2.6-3.4,4.2-6.1,3.4c-2.6-0.7-4.2-3.4-3.4-6.1l16.6-60.3c0.5-2.2,2.5-3.6,4.8-3.6s4.3,1.5,4.8,3.6
		L324.6,70.5z M309.2,52.3c-2-7.2-4.2-15.2-6-21.9c-1.9,6.8-4.1,14.8-6,21.9H309.2z"/>
	<path class="st1" d="M356.6,45.7l9,24.3c1,2.6-0.3,5.5-2.9,6.4c-2.6,0.9-5.4-0.3-6.4-2.9l-9.7-25.9H341v24.1c0,2.8-2.2,5-5,5
		c-2.7,0-5-2.2-5-5V11.9c0-2.7,2.3-5,5-5h12.5c9.7,0,17.5,7.8,17.5,17.5v5.8C366,37,362.2,42.8,356.6,45.7z M341,37.7h7.5
		c4.2,0,7.5-3.3,7.5-7.5v-5.8c0-4.2-3.3-7.5-7.5-7.5H341V37.7z"/>
	<path class="st1" d="M403.9,40.6c3.2,3.2,5.3,7.6,5.3,12.5V59c0,9.7-7.9,17.5-17.5,17.5h-12.5c-2.8,0-5-2.2-5-5V11.9
		c0-2.7,2.2-5,5-5h12.5c9.6,0,17.5,7.8,17.5,17.5v3.7C409.2,33.1,407.1,37.5,403.9,40.6z M391.8,35.7c4.2,0,7.5-3.3,7.5-7.5v-3.7
		c0-4.2-3.3-7.5-7.5-7.5h-7.5v18.7H391.8z M391.8,45.6h-7.5v20.8h7.5c4.2,0,7.5-3.3,7.5-7.5v-5.8C399.2,49,395.9,45.6,391.8,45.6z"
		/>
	<path class="st1" d="M417.5,59.4V24c0-9.7,7.8-17.5,17.5-17.5s17.5,7.8,17.5,17.5v35.4c0,9.7-7.8,17.5-17.5,17.5
		S417.5,69,417.5,59.4z M427.5,24v35.4c0,4.2,3.3,7.5,7.5,7.5s7.5-3.3,7.5-7.5V24c0-4.2-3.3-7.5-7.5-7.5S427.5,19.8,427.5,24z"/>
	<path class="st1" d="M462.1,71.4V11.5c0-2.7,2.2-5,5-5c2.7,0,5,2.3,5,5v54.9h15.8c2.7,0,5,2.3,5,5c0,2.8-2.3,5-5,5H467
		C464.2,76.4,462.1,74.2,462.1,71.4z"/>
	<path class="st1" d="M503.2,7H524c2.8,0,5,2.3,5,5c0,2.8-2.2,5-5,5h-15.8v18.7H522c2.8,0,5,2.3,5,5c0,2.8-2.2,5-5,5h-13.7v20.8H524
		c2.8,0,5,2.3,5,5c0,2.8-2.2,5-5,5h-20.8c-2.7,0-5-2.2-5-5V11.9C498.2,9.2,500.5,7,503.2,7z"/>
	<path class="st1" d="M554,7c9.7,0,17.5,7.8,17.5,17.5V59c0,9.7-7.8,17.5-17.5,17.5h-12.5c-2.8,0-5-2.2-5-5V11.9c0-2.7,2.2-5,5-5
		H554z M554,16.9h-7.5v49.5h7.5c4.2,0,7.5-3.3,7.5-7.5V24.4C561.5,20.3,558.2,16.9,554,16.9z"/>
	<path class="st1" d="M618.5,70.5c0.7,2.7-0.8,5.4-3.4,6.1c-2.7,0.7-5.4-0.8-6.1-3.4c0,0-1.2-4.5-3-10.9h-17.7
		c-1.8,6.4-3,10.9-3,10.9c-0.7,2.6-3.4,4.2-6.1,3.4c-2.6-0.7-4.2-3.4-3.4-6.1l16.6-60.3c0.5-2.2,2.5-3.6,4.8-3.6s4.3,1.5,4.8,3.6
		L618.5,70.5z M603.1,52.3c-2-7.2-4.2-15.2-6-21.9c-1.9,6.8-4.1,14.8-6,21.9H603.1z"/>
</g>
</svg>
