<?xml version="1.0" encoding="utf-8"?>
<!-- Generator: Adobe Illustrator 20.1.0, SVG Export Plug-In . SVG Version: 6.00 Build 0)  -->
<svg version="1.1" id="Layer_1" xmlns="http://www.w3.org/2000/svg" xmlns:xlink="http://www.w3.org/1999/xlink" x="0px" y="0px"
	 viewBox="0 0 225 225" style="enable-background:new 0 0 225 225;" xml:space="preserve">
<style type="text/css">
	.st0{fill:#6BD6C4;}
	.st1{fill:#27A08C;}
	.st2{fill:#FDA6B0;}
	.st3{fill:#F85B6D;}
</style>
<path class="st0" d="M175.1,130.2c-27.9,23.7-57.1,45.6-87.7,65.7c4,5.2,8.1,10.5,12.1,15.7c32.7-34.2,66.9-66.8,102.6-97.8
	c8.7-7.6-2.5-21.2-12.1-15.7c-48.1,27.4-91.4,62.4-138.7,91.1c4,5.2,8.1,10.5,12.1,15.7C116.6,161.4,167.3,115.2,218,69
	c8.3-7.5-2.7-22.2-12.1-15.7C143.9,95.5,87.5,145.7,22.3,183.1c4,5.2,8.1,10.5,12.1,15.7c56-46.2,109.5-95.2,160.3-147
	c9.1-9.3-4.5-22.5-14.1-14.1C126.1,84.8,68.8,128.5,9,168.6c3.4,5.8,6.7,11.5,10.1,17.3c55.5-41.9,106.5-89,157.4-136.2
	c4-3.7,3.7-10.4,0-14.1c-4.1-4.1-10-3.4-14.1,0C115.4,74,65.8,109.3,14,141.1c4,5.2,8.1,10.5,12.1,15.7
	C74,118,120.4,77.4,165.2,35.2c9.4-8.9-4.6-22.7-14.1-14.1c-39.6,35.6-82.4,67.4-127.9,95.1c4.6,4.6,9.1,9.1,13.7,13.7
	c6.6-8.9,16.3-16.1,24.4-23.6c9.5-8.8,19.1-17.6,28.6-26.4c18.9-17.4,37.7-34.8,56.6-52.1c4-3.7,3.7-10.4,0-14.1
	c-4.1-4.1-10-3.5-14.1,0c-33.8,28.8-70,54.7-108,77.7c4,5.2,8.1,10.5,12.1,15.7c24.9-20.6,49.8-41.3,72.1-64.7
	c8.9-9.3-5.2-23.5-14.1-14.1C72,51.4,47.1,72.1,22.3,92.7c-8.8,7.3,2.5,21.5,12.1,15.7c39.5-23.8,76.9-50.9,112.1-80.8
	c-4.7-4.7-9.4-9.4-14.1-14.1c-19.3,17.8-38.7,35.7-58,53.5c-9.5,8.8-19.1,17.6-28.6,26.4c-9.1,8.4-18.7,16.3-26,26.3
	c-6.1,8.3,5.6,18.6,13.7,13.7c46.9-28.5,91.1-61.5,131.9-98.2c-4.7-4.7-9.4-9.4-14.1-14.1C106.2,63.3,59.8,103.8,12,142.6
	c-8.9,7.2,2.6,21.6,12.1,15.7c53.3-32.7,104.2-69.1,152.5-108.7c-4.7-4.7-9.4-9.4-14.1-14.1C112.8,81.5,63.1,127.7,9,168.6
	c-4.3,3.3-6.5,8.6-3.6,13.7c2.6,4.4,9.2,6.6,13.7,3.6c61.2-41,119.8-85.8,175.5-134c-4.7-4.7-9.4-9.4-14.1-14.1
	c-50.8,51.8-104.3,100.9-160.3,147c-8.9,7.4,2.5,21.2,12.1,15.7C97.6,162.9,154,112.8,216,70.6c-4-5.2-8.1-10.5-12.1-15.7
	c-50.7,46.2-101.4,92.4-154.5,135.9c-8.9,7.3,2.6,21.5,12.1,15.7c47.3-28.8,90.6-63.7,138.7-91.1c-4-5.2-8.1-10.5-12.1-15.7
	c-35.7,31-70,63.6-102.6,97.8c-7.6,7.9,2.3,22.2,12.1,15.7c31.9-21.1,62.6-44.1,91.7-68.8c4.1-3.5,3.6-10.5,0-14.1
	C185.2,126.1,179.3,126.6,175.1,130.2L175.1,130.2z"/>
<path class="st1" d="M145,187.2H80c-4.2,0-7.6-3.4-7.6-7.6V45.4c0-4.2,3.4-7.6,7.6-7.6H145c4.2,0,7.6,3.4,7.6,7.6v134.2
	C152.6,183.8,149.2,187.2,145,187.2z"/>
<rect x="77.3" y="47.5" class="st2" width="70.5" height="115.3"/>
<rect x="77.3" y="47.5" class="st3" width="70.5" height="11.5"/>
<path d="M142,191.7H77c-5,0-9.1-4.1-9.1-9.1V48.4c0-5,4.1-9.1,9.1-9.1c0.8,0,1.5,0.7,1.5,1.5s-0.7,1.5-1.5,1.5
	c-3.3,0-6.1,2.7-6.1,6.1v134.2c0,3.3,2.7,6.1,6.1,6.1H142c0.8,0,1.5,0.7,1.5,1.5S142.9,191.7,142,191.7z"/>
<path d="M135.8,73.7H89.2c-0.8,0-1.5-0.7-1.5-1.5s0.7-1.5,1.5-1.5h46.7c0.8,0,1.5,0.7,1.5,1.5S136.7,73.7,135.8,73.7z"/>
<path d="M135.8,83.8H89.2c-0.8,0-1.5-0.7-1.5-1.5s0.7-1.5,1.5-1.5h46.7c0.8,0,1.5,0.7,1.5,1.5S136.7,83.8,135.8,83.8z"/>
<path d="M135.8,94H89.2c-0.8,0-1.5-0.7-1.5-1.5s0.7-1.5,1.5-1.5h46.7c0.8,0,1.5,0.7,1.5,1.5S136.7,94,135.8,94z"/>
<g>
	<path d="M131.5,144.7h-38c-0.8,0-1.5-0.7-1.5-1.5v-38c0-0.8,0.7-1.5,1.5-1.5h38c0.8,0,1.5,0.7,1.5,1.5v38
		C133,144,132.3,144.7,131.5,144.7z M95,141.7h35v-35H95V141.7z"/>
	<path d="M131.5,144.7c-0.4,0-0.8-0.1-1.1-0.4l-38-38c-0.6-0.6-0.6-1.5,0-2.1c0.6-0.6,1.5-0.6,2.1,0l38,38c0.6,0.6,0.6,1.5,0,2.1
		C132.3,144.5,131.9,144.7,131.5,144.7z"/>
	<path d="M93.5,144.7c-0.4,0-0.8-0.1-1.1-0.4c-0.6-0.6-0.6-1.5,0-2.1l38-38c0.6-0.6,1.5-0.6,2.1,0c0.6,0.6,0.6,1.5,0,2.1l-38,38
		C94.3,144.5,93.9,144.7,93.5,144.7z"/>
</g>
</svg>
